<?xml version="1.0" encoding="UTF-8"?>
<svg width="49px" height="25px" viewBox="0 0 49 25" version="1.1" xmlns="http://www.w3.org/2000/svg" xmlns:xlink="http://www.w3.org/1999/xlink">
    <!-- Generator: Sketch 52.4 (67378) - http://www.bohemiancoding.com/sketch -->
    <title>Group 15</title>
    <desc>Created with Sketch.</desc>
    <g id="Page-1" stroke="none" stroke-width="1" fill="none" fill-rule="evenodd">
        <g id="Victoire2-Copy" transform="translate(-16.000000, -38.000000)">
            <g id="Group-15" transform="translate(16.000000, 38.000000)">
                <path d="M45.561045,17 L6,17 L6,8 L45.561045,8 C47.4599642,8 49,9.54843173 49,11.4607934 L49,13.5392066 C49,15.4501845 47.4599642,17 45.561045,17" id="Fill-1" fill="#04E762"></path>
                <path d="M2.64885677,16.0997608 C-0.882952257,14.4995061 -0.882952257,10.5002857 2.64885677,8.90144717 L11.8507997,4.73228816 L21.0541168,0.563129149 C24.5859258,-1.0371255 29,0.963900888 29,4.16299403 L29,12.4998959 L29,20.8382139 C29,24.0373071 24.5859258,26.0369173 21.0541168,24.4366626 L11.8507997,20.2689198 L2.64885677,16.0997608 Z" id="Fill-3" fill="#04E762"></path>
                <path d="M4.79914213,12.9985666 C2.36784625,12.1384589 2.64673425,11.3851527 4.17923762,9.42143003 C5.64823183,7.54030051 9.58717967,5.98954347 13.5813529,4.38752174 C17.9979999,2.6160417 22.5195752,0.89013029 24.6692218,1.00547585 C25.565253,1.05246849 26.6642374,1.24755914 26.9541705,2.30987755 C27.1695493,3.10305631 26.5924445,3.81364195 25.9200759,4.59542856 C22.5195752,8.54708217 8.21897171,13.0925518 4.79914213,12.9985666" id="Fill-5" fill="#39B54A" opacity="0.2"></path>
                <path d="M19.3997473,6.96889473 C17.9254566,6.45766975 17.6290315,5.3663501 18.4477917,4.52137202 C20.1048997,2.81552286 22.1080547,1.75863806 24.5382186,2.04736097 C25.0683887,2.10960858 25.7395892,2.68175674 25.9563583,3.18900847 C26.1182822,3.56911616 25.8035753,4.39290357 25.4405524,4.72665666 C23.6032388,6.41396398 21.4237957,7.16755728 19.3997473,6.96889473" id="Fill-7" fill="#F5FAFD" opacity="0.45"></path>
                <path d="M16.8276351,6.82849656 C17.227843,7.54628339 16.8973488,8.51189558 16.1847206,8.70683137 C15.5844089,8.87003343 15.0705936,8.98941271 14.5541964,8.99999063 C14.3721664,9.00452402 13.8790071,7.36343664 14.0274713,7.22743492 C14.6639308,6.64413868 15.4695105,6.25880048 16.2608892,6.00190835 C16.3499677,5.97319688 16.5177968,6.26937839 16.8276351,6.82849656" id="Fill-9" fill="#F5FAFD" opacity="0.45"></path>
                <path d="M42.6988901,11.128433 C41.8704621,10.3115297 41.8000393,9.54055674 42.3736649,9.301063 C43.5311594,8.8187948 44.8333407,8.85488289 46.255881,9.86042851 C46.5670216,10.0802378 46.9114531,10.6609281 46.9921192,11.0464146 C47.0497378,11.3351194 46.7808508,11.7337288 46.5298896,11.8141069 C45.2648403,12.2225585 43.8896754,11.9420556 42.6988901,11.128433" id="Fill-11" fill="#F5FAFD" opacity="0.3"></path>
                <path d="M40.7617248,10.3532867 C40.8307248,10.4862867 40.7577248,10.6762867 40.6177248,10.7222867 C40.5007248,10.7612867 40.4007248,10.7902867 40.3017248,10.7992867 C40.2657248,10.8022867 40.1887248,10.4932867 40.2187248,10.4652867 C40.3477248,10.3442867 40.5067248,10.2602867 40.6617248,10.2012867 C40.6797248,10.1942867 40.7077248,10.2492867 40.7617248,10.3532867" id="Fill-13" fill="#F5FAFD" opacity="0.3"></path>
            </g>
        </g>
    </g>
</svg>