<svg xmlns="http://www.w3.org/2000/svg" viewBox="0 0 638.8 376.5">
  <title>ase</title>
  <g id="Calque_2" data-name="Calque 2">
    <g id="Calque_3" data-name="Calque 3">
      <g>
        <g id="maze">
          <path d="M272.7,270.1a132.7,132.7,0,0,0,36.5-110.8c-.5-3.7-2.7-6-5.7-5.9s-5.4,2.7-5.2,6.6.7,6,.9,9.1a121.5,121.5,0,0,1-6.2,47.1,85.8,85.8,0,0,1-4.8,12l-27.9-14.5c.2-.7.2-1.1.3-1.5s.5-1.3.8-1.9a92.8,92.8,0,0,0,6.3-31.3,91.5,91.5,0,0,0-19.3-58.4c-10.2-12.7-22.7-22.6-38.2-28.5a91.5,91.5,0,0,0-38-6.1,5.6,5.6,0,0,0-5.6,5.8c0,3.1,2.7,5.4,6.3,5.1a75.9,75.9,0,0,1,23.7,2.4c4,1,8,1.9,11.7,4.3l-13.6,26.3a49.6,49.6,0,0,0-55.9,16.8,48.5,48.5,0,0,0-3.5,55A47,47,0,0,0,154,219.5a49.1,49.1,0,0,0,25.3,6.4,49.4,49.4,0,0,0,25.5-91.1c4.5-8.8,8.9-17.3,13.4-25.9,2.6.6,4.3,2.3,6.2,3.6a79.6,79.6,0,0,1,24.1,28.7,76.2,76.2,0,0,1,8,30.4c1.2,22.1-5.2,41.5-19.8,58.1a71.3,71.3,0,0,1-16.9,14.5c-3.5,2-4.2,5.9-1.8,8.5s4.7,2.6,7.6.8a94.2,94.2,0,0,0,21.9-19.4c2.7-3.3,4.9-6.9,7.5-10.4l28.1,14.5c-2.1,3.5-4.2,6.7-6.4,9.9-14.5,20.5-33.7,35-57.1,43.9a123.2,123.2,0,0,1-92.5-2.6,120,120,0,0,1-54.9-48.1c-1.7-2.7-3.1-5.6-4.8-8.2s-4.9-3.8-7.5-2.3-3.4,4.7-1.9,7.6a133.4,133.4,0,0,0,122.2,72.3A132.3,132.3,0,0,0,233,298.2,130.3,130.3,0,0,0,272.7,270.1Z" style="fill: #1e1e24"/>
          <path d="M206.4,340a184,184,0,0,1-30.6,2.5,162.9,162.9,0,0,1-44.9-6.4,167.1,167.1,0,0,1-61.4-33,162.3,162.3,0,0,1-40.9-51.8A165,165,0,0,1,12.9,202a170.2,170.2,0,0,1-.7-45.1,168.5,168.5,0,0,1,14.2-49.7,172.5,172.5,0,0,1,17.1-29A158.1,158.1,0,0,1,71,49.1,146.7,146.7,0,0,1,98.2,30.9l8.9-4.7a5.1,5.1,0,0,0,2.9-6.7,5.8,5.8,0,0,0-6.8-3.1,6.7,6.7,0,0,0-1.8.7A169.6,169.6,0,0,0,62.6,41.9,173.4,173.4,0,0,0,27.9,81.7l-5.6,8.8h0L8.2,83.3A5.6,5.6,0,0,0,.7,85.6v.2a5.6,5.6,0,0,0,2.5,7.5l14,7.2h0a12.7,12.7,0,0,1-.4,1.4A169.9,169.9,0,0,0,4.9,136.1a170.5,170.5,0,0,0-3.1,65.2,179.8,179.8,0,0,0,5.1,24,183.1,183.1,0,0,0,11,28.9,216.4,216.4,0,0,0,11.8,20.4,156.2,156.2,0,0,0,21.4,26.5A176,176,0,0,0,92,331.8a177.6,177.6,0,0,0,93.4,21.6,145.1,145.1,0,0,0,22.8-2.9c3.3-.7,5.5-3.7,4.9-6.6S209.9,339.4,206.4,340Z" style="fill: #1e1e24"/>
          <path d="M351.3,260.8l-15.2-7.9H336a122.9,122.9,0,0,0,6-14.2,181.5,181.5,0,0,0,10.6-47.2,177.3,177.3,0,0,0-3.7-53.9,176.2,176.2,0,0,0-78-110A177.2,177.2,0,0,0,205.2,2.4,160.9,160.9,0,0,0,167.9.3c-8,.5-16,1-23.8,3.1a5.5,5.5,0,0,0-3.8,6.5,5.4,5.4,0,0,0,6.2,3.9,168.9,168.9,0,0,1,55.4-.8c14.5,2.2,28.2,6.6,41.7,12.3,1.4.5,2.9.9,4,2.3h0L233.4,55.1h0a6.2,6.2,0,0,1-1.4-.4,133.1,133.1,0,0,0-57-11.8,130.4,130.4,0,0,0-44.9,8.4A137,137,0,0,0,96.7,69.4a133.7,133.7,0,0,0-34.4,37.5,130.6,130.6,0,0,0-17.1,44.5,136.4,136.4,0,0,0-1,43.7,5.6,5.6,0,0,0,5.7,5.1,5.4,5.4,0,0,0,5.1-5.7c0-1.3-.1-2.7-.2-4a118.6,118.6,0,0,1,5.1-51.9,87.1,87.1,0,0,1,5.2-13.1h.1L93.3,140h0c-.9,2.2-1.7,4.2-2.3,6.2A94.1,94.1,0,0,0,86.2,187a91.1,91.1,0,0,0,41.9,66.9c16.1,10.2,33.7,14.5,52.7,13.8,3.7-.1,6.1-2.6,6-5.9s-2.7-5.2-6.6-5.1c-18.8.7-35.9-4.1-51-15.4-21.7-16.4-32.8-38.4-32.5-65.4s12.3-49.1,34.6-65a38.8,38.8,0,0,0,3.3-2.3,5.2,5.2,0,0,0-.9-8.9c-2.4-1.3-4.5-.6-6.6.8a96.3,96.3,0,0,0-23.6,21.9c-1.9,2.5-3.1,5.4-5.3,7.4h0L70.6,115.6h-.1a5.6,5.6,0,0,1,1.4-2.9c2.8-4.4,5.9-8.7,9.2-12.9C95,82,112.8,69.6,133.7,61.7a119,119,0,0,1,48-7.7,120.5,120.5,0,0,1,45.1,10.5c23,10.3,41.1,26.4,54.4,47.9,1.6,2.5,2.9,5.3,4.5,7.9s5,4.1,7.7,2.6,3.4-4.9,1.6-8.3a159.3,159.3,0,0,0-10.9-17.5,132.1,132.1,0,0,0-29.3-29c-3.7-2.7-7.6-5.2-11.4-7.8h0c4.7-9.2,9.5-18.3,14.1-27.4h.1a8.9,8.9,0,0,1,3.8,1.7A175.6,175.6,0,0,1,301,67.4a169.7,169.7,0,0,1,29.2,47,147.6,147.6,0,0,1,9.1,30.6,171.3,171.3,0,0,1,1.4,54.4,163.1,163.1,0,0,1-11.5,41.8,169.7,169.7,0,0,1-27.6,44.6,151.1,151.1,0,0,1-16.1,15.9c-11.5,10.4-24.6,18.4-38.5,25.2-3.3,1.6-4.8,4.3-3.6,7.3s4.4,4,7.6,2.7a160.8,160.8,0,0,0,36.7-22.5,175.7,175.7,0,0,0,38.1-43c1.8-2.7,3.1-5.7,5.3-8.3h0l15.1,7.8a5.7,5.7,0,1,0,5.1-10.1Z" style="fill: #1e1e24"/>
        </g>
        <g id="slime">
          <path d="M234.6,233.2c-2.6-3.2-3.9-6-3.9-8.6s2.2-5.9,6.5-10.1c2.5-2.4,5.1-3.6,7.9-3.6s6.7,2.5,11.7,7.5a23.9,23.9,0,0,0,6,4.9,14.7,14.7,0,0,0,7.2,2.3c9.3,0,14-3.8,14-11.4,0-2.3-1.3-4.2-3.8-5.8a30,30,0,0,0-9.6-3.4,87.5,87.5,0,0,1-12.3-3.3,86.4,86.4,0,0,1-12.3-5.5,24.9,24.9,0,0,1-9.5-10,33.4,33.4,0,0,1-3.8-16.4c0-8.8,3.3-16.5,9.8-23s15.5-9.9,26.8-9.9a52.8,52.8,0,0,1,16.4,2.4c5,1.5,8.4,3.1,10.3,4.7l3.7,2.8c3.1,2.9,4.7,5.4,4.7,7.4s-1.2,4.7-3.6,8.2q-5.1,7.5-10.5,7.5-3.2,0-7.8-3l-1.7-1.5-2.4-1.9a14.8,14.8,0,0,0-8-2,13.4,13.4,0,0,0-8.1,2.4,7.5,7.5,0,0,0-3.2,6.4,7.8,7.8,0,0,0,3.8,6.7,23.8,23.8,0,0,0,9.5,3.4,126.3,126.3,0,0,1,12.5,2.8,81.9,81.9,0,0,1,12.4,4.6,22.2,22.2,0,0,1,9.6,9.4c2.5,4.4,3.8,9.9,3.8,16.4a36.6,36.6,0,0,1-3.9,17.2,29.8,29.8,0,0,1-10.2,11.4,46.8,46.8,0,0,1-26,8,52.1,52.1,0,0,1-13.3-1.7,37.7,37.7,0,0,1-10.2-4.3q-7.9-4.8-11.1-9.3Z" style="fill: #04e762"/>
          <path d="M320.4,145.6a31.3,31.3,0,0,1,.3-5.1,11.9,11.9,0,0,1,1.2-4c1.4-2.7,5.3-4.1,11.7-4.1s9.9,1.4,11.4,4.1a13.3,13.3,0,0,1,1.5,4c.1,1.2.2,3,.2,5.3v69.4q0,5.4.9,6.9c.6.9,1.9,1.4,4,1.4l4.1.2a8.6,8.6,0,0,1,2.5,1.3c2,1.3,3,4.8,3,10.6s-1,10.2-3,11.6-8.8,2.1-18.6.9c-7.7-1-12.7-3.6-15-7.7s-4.2-12.7-4.2-23.4Z" style="fill: #04e762"/>
          <path d="M394.2,155a6.4,6.4,0,0,1-4,3.1,25.8,25.8,0,0,1-7.6.9,26.3,26.3,0,0,1-7.6-.9,6.1,6.1,0,0,1-3.9-3.2,13.3,13.3,0,0,1-1.4-3.9c-.1-1.2-.2-2.9-.2-5.2s.1-4,.2-5.2a14.3,14.3,0,0,1,1.3-3.8c1.4-2.7,5.3-4.1,11.7-4.1s10.1,1.4,11.4,4.1a10.7,10.7,0,0,1,1.4,4,34.1,34.1,0,0,1,.2,5.1,35.7,35.7,0,0,1-.2,5.2A11.2,11.2,0,0,1,394.2,155Zm-24.7,27.8c0-2.3.1-4,.2-5.1a15.4,15.4,0,0,1,1.3-4q2.1-3.9,11.7-3.9c4.8,0,8.2.8,10.2,2.5s2.6,3.6,2.7,6.5c.1,1,.1,2.4.1,4.3v52.5a35.7,35.7,0,0,1-.2,5.2,10.7,10.7,0,0,1-1.4,4c-1.3,2.6-5.2,3.9-11.6,3.9s-10.1-1.4-11.5-4.1a16.1,16.1,0,0,1-1.3-3.9c-.1-1.1-.2-2.8-.2-5.2Z" style="fill: #04e762"/>
          <path d="M433.5,180.1c4.7-7.1,10.4-10.6,17-10.6,10.2,0,17.8,4.3,22.8,13a50.4,50.4,0,0,1,4-4.7,34.5,34.5,0,0,1,7.4-5.4,21.3,21.3,0,0,1,10.5-2.9,25.8,25.8,0,0,1,20.1,9.2c5.4,6.2,8.1,16.3,8.1,30.5v26.3c0,2.3-.1,4-.2,5.2a13.9,13.9,0,0,1-1.5,3.9c-1.3,2.7-5.1,4.1-11.5,4.1s-10.2-1.4-11.6-4.2a11.9,11.9,0,0,1-1.2-4,32.7,32.7,0,0,1-.3-5.2V209.1c0-8.7-3.1-13.1-9.3-13.1-3.5,0-5.8,1.2-7.1,3.5s-1.9,5.5-1.9,9.7v26.3a34.9,34.9,0,0,1-.2,5.2,10.9,10.9,0,0,1-1.4,3.9c-1.4,2.7-5.3,4.1-11.7,4.1s-10.2-1.4-11.6-4.2a11.9,11.9,0,0,1-1.2-4,32.7,32.7,0,0,1-.3-5.2V209.1c0-8.7-3.1-13.1-9.3-13.1s-9,4.4-9,13.1v26.5a35.7,35.7,0,0,1-.2,5.2,10.7,10.7,0,0,1-1.4,4q-2.2,3.9-11.7,3.9c-6.3,0-10.2-1.4-11.6-4.1a12.1,12.1,0,0,1-1.2-3.9,31.9,31.9,0,0,1-.3-5.2V182.7a33.6,33.6,0,0,1,.3-5.2,9.9,9.9,0,0,1,1.4-3.8c1.5-2.7,5-4.1,10.6-4.1s9.3.9,11,2.7S433.5,176.7,433.5,180.1Z" style="fill: #04e762"/>
          <path d="M611.6,199.7c0,6.2-1.6,10.7-4.6,13.7s-6.4,4.4-10.1,4.4H561.3c0,2.8,1.7,5.1,5,7a19.8,19.8,0,0,0,9.9,2.9c5.8,0,10.3-.6,13.6-1.8l1.7-.6a15.3,15.3,0,0,1,6-1.7c3.2,0,5.9,2.3,8.2,6.8a16.7,16.7,0,0,1,2,6.9c0,8.9-10.7,13.3-32,13.3a47.1,47.1,0,0,1-19.7-3.8,32.6,32.6,0,0,1-13.4-10.1,43.3,43.3,0,0,1-9.5-27.2c0-12.6,4.1-22.6,12.2-30.2S563.7,168,575.9,168q20.9,0,30.6,14.7A30.5,30.5,0,0,1,611.6,199.7Zm-31.7,4.4q5.7,0,5.7-4.8a6.8,6.8,0,0,0-2.6-5.5q-2.7-2.1-7.5-2.1c-3.3,0-6.5,1.3-9.7,4s-4.8,5.4-4.8,8.4Z" style="fill: #04e762"/>
        </g>
        <g id="escape">
          <path d="M165.9,315.8h46.2l5.2.2a13.3,13.3,0,0,1,3.9,1.4c2.7,1.4,4.1,5.3,4.1,11.7s-1.9,11.1-5.6,12.3a25.1,25.1,0,0,1-7.8.9H152.5q-10.5,0-12.3-5.7a23.2,23.2,0,0,1-.9-7.6V245.6c0-5.1,1-8.6,2.9-10.4s5.5-2.8,10.8-2.8h59.1l5.2.2a13.3,13.3,0,0,1,3.9,1.4c2.7,1.4,4.1,5.3,4.1,11.7s-1.9,11.1-5.6,12.3a25.1,25.1,0,0,1-7.8.9h-46v15.2h29.7l5.2.2a13.3,13.3,0,0,1,3.9,1.4c2.7,1.4,4.1,5.3,4.1,11.7s-1.9,11.1-5.7,12.3a25.1,25.1,0,0,1-7.8.9H165.9Z" style="fill: #65ff00"/>
          <path d="M235.6,335.3c-1.9-1.2-2.8-3.1-2.8-5.7s1.9-6.6,5.7-11.9c1.1-1.7,2.9-2.5,5.3-2.5s5.8,1.2,10,3.7,8,3.6,11.4,3.6c6.1,0,9.1-1.2,9.1-3.6s-3.3-3.3-10-4.2a49.2,49.2,0,0,1-18.8-7,19.8,19.8,0,0,1-7.2-8.5,30.5,30.5,0,0,1-2.8-13.7c0-15.8,10.8-23.7,32.5-23.7a52.9,52.9,0,0,1,21.9,5.1c3.5,1.6,5.3,3.6,5.3,6s-1.1,5.3-3.3,8.8-4.5,5.3-6.8,5.3-3.4-.8-6.6-2.3a25.2,25.2,0,0,0-10.6-2.2c-5.9,0-8.9,1.1-8.9,3.3s3.4,4.9,10.2,5.8a55.8,55.8,0,0,1,19.2,5.7,17.1,17.1,0,0,1,7.3,7.3c2,3.5,2.9,7.8,2.9,13a27.5,27.5,0,0,1-2.9,13.3,18.9,18.9,0,0,1-8.2,8.1c-6.4,3.1-14.4,4.7-24,4.7A51.6,51.6,0,0,1,235.6,335.3Z" style="fill: #65ff00"/>
          <path d="M333.1,302.8q0,6.4,4.2,9.9a13.5,13.5,0,0,0,9,3.5,15.7,15.7,0,0,0,8.8-2.7c2.8-1.9,5-2.8,6.7-2.8s6.6,2.6,10.9,7.9c2.3,2.9,3.5,5.5,3.5,7.8,0,3.8-2.8,7.4-8.3,10.7s-12.7,6-21,6-18.2-3.4-26.8-10.1A35.3,35.3,0,0,1,310,320.2a39.6,39.6,0,0,1-3.9-17.7A38.8,38.8,0,0,1,310,285a35.8,35.8,0,0,1,10.1-12.7c8.3-6.6,17.1-9.9,26.5-9.9a37.7,37.7,0,0,1,11.1,1.6,35.7,35.7,0,0,1,8,3l2.4,1.5,4.2,2.9c2.6,2,3.9,4.3,3.9,6.8s-1.1,5.4-3.2,8.6c-3.6,5.5-7,8.3-10.3,8.3s-4.6-1.1-8.1-3.3c-1.8-1.7-4.4-2.6-7.7-2.6a14.4,14.4,0,0,0-9.4,3.6A12.4,12.4,0,0,0,333.1,302.8Z" style="fill: #65ff00"/>
          <path d="M437.2,271.7c.6-5.6,4.6-8.4,11.9-8.4a31.1,31.1,0,0,1,8.7.9,6.4,6.4,0,0,1,4,3.1,13.1,13.1,0,0,1,1.3,4,36.4,36.4,0,0,1,.2,5.2V329a36.4,36.4,0,0,1-.2,5.2,12.7,12.7,0,0,1-1.3,3.9q-2.1,3.9-10.2,3.9c-5.5,0-9.1-.6-11-2a8.1,8.1,0,0,1-3.2-5.9c-3.7,5.3-9.9,7.9-18.5,7.9s-16.7-3.9-24.1-11.8a39.1,39.1,0,0,1-11.1-27.5c0-10.5,3.7-19.6,11.2-27.5s15.6-11.8,24.5-11.8a23.4,23.4,0,0,1,9.3,1.8,21.4,21.4,0,0,1,5.8,3.4A23.8,23.8,0,0,1,437.2,271.7Zm-27.3,31.2a12.3,12.3,0,0,0,3.9,8.9,12.7,12.7,0,0,0,9.5,4,11.9,11.9,0,0,0,9.2-4.1,12.7,12.7,0,0,0,3.7-8.9,14.2,14.2,0,0,0-3.5-9.1,11.8,11.8,0,0,0-9.5-4.2,12.3,12.3,0,0,0-9.6,4.2A14,14,0,0,0,409.9,302.9Z" style="fill: #65ff00"/>
          <path d="M475.3,363.8V276.2a31.3,31.3,0,0,1,.3-5.1,11,11,0,0,1,1.2-3.8c1.4-2.7,4.8-4,10.1-4s8.9.7,10.7,2a8,8,0,0,1,3.2,5.9q5.7-7.8,18-7.8c8.1,0,15.8,3.9,23.1,11.6s11,16.6,11,26.8A37.9,37.9,0,0,1,542,328.7c-7.2,7.7-15,11.5-23.2,11.5s-14.1-2.3-17.8-6.9v30.3c0,2.3-.1,4-.2,5.1a13.3,13.3,0,0,1-1.4,3.9,6.2,6.2,0,0,1-3.8,3,24.4,24.4,0,0,1-7.4.9,24.8,24.8,0,0,1-7.4-.9,6.7,6.7,0,0,1-3.9-3,11,11,0,0,1-1.3-3.7A31.3,31.3,0,0,1,475.3,363.8ZM505,293.1a13.1,13.1,0,0,0,.1,17.7,11.7,11.7,0,0,0,9,3.9,12.4,12.4,0,0,0,9.3-3.9,12,12,0,0,0,3.8-8.8,12.8,12.8,0,0,0-3.6-8.9,11.8,11.8,0,0,0-9.3-4A11.6,11.6,0,0,0,505,293.1Z" style="fill: #65ff00"/>
          <path d="M638.8,293.4c0,6.1-1.5,10.7-4.5,13.6a14.3,14.3,0,0,1-10.2,4.4H588.6c0,2.8,1.6,5.2,4.9,7.1a19.6,19.6,0,0,0,9.9,2.8c5.8,0,10.4-.6,13.7-1.8l1.6-.6a14.9,14.9,0,0,1,6-1.6c3.2,0,6,2.2,8.3,6.7a16.4,16.4,0,0,1,1.9,6.9c0,8.9-10.6,13.4-31.9,13.4a48.7,48.7,0,0,1-19.7-3.8,34,34,0,0,1-13.5-10.2,42.9,42.9,0,0,1-9.4-27.1c0-12.6,4.1-22.7,12.2-30.2s18.3-11.4,30.5-11.4q20.9,0,30.6,14.7A30.6,30.6,0,0,1,638.8,293.4Zm-31.6,4.4q5.7,0,5.7-4.8a7,7,0,0,0-2.6-5.6q-2.7-2.1-7.5-2.1c-3.3,0-6.5,1.4-9.7,4s-4.8,5.5-4.8,8.5Z" style="fill: #65ff00"/>
        </g>
        <g id="a">
          <path d="M191.4,143.2l31.3,64.7a14.8,14.8,0,0,1,1.9,5.9c0,2.8-2.2,5.3-6.7,7.5a15.5,15.5,0,0,1-6.2,2,6.7,6.7,0,0,1-5.8-3.3l-1.8-3.4-6-12.6H166l-6.1,12.6a22.2,22.2,0,0,1-1.8,3.3,9.7,9.7,0,0,1-2,2.2,6.3,6.3,0,0,1-3.8,1.1c-1.5,0-3.5-.7-6.2-2-4.4-2.2-6.7-4.6-6.7-7.4s.7-3.3,2-5.9L172.7,143a10,10,0,0,1,3.9-4.3,11,11,0,0,1,5.5-1.6C186.3,137.1,189.4,139.1,191.4,143.2ZM182,171l-7.7,15.9h15.4Z" style="fill: #fff"/>
        </g>
      </g>
    </g>
  </g>
</svg>
