<svg xmlns="http://www.w3.org/2000/svg" viewBox="0 0 96.3514 71.7865">
  <title>chantil</title>
  <g id="Calque_2" data-name="Calque 2">
    <g id="game">
      <g>
        <path d="M95.3907,15.4969a2.2767,2.2767,0,0,0-2.6623.1451.2379.2379,0,0,0-.1654.0859,2.52,2.52,0,0,0-1.2174-.0416c-.4086.0161-.8174.0132-1.2258-.0034a4.6014,4.6014,0,0,0-2.1286-3.4306,6.7615,6.7615,0,0,0-2.6226-.97l0-.0049c-.05-.4336-.1083-.8635-.1764-1.2946-.0277-.1752-.0369-.3634-.0745-.5358a2.1956,2.1956,0,0,0,.7254-.8006,2.439,2.439,0,0,0-.9525-3.1088,2.4911,2.4911,0,0,0-3.1889.8043,2.4762,2.4762,0,0,0,.5934,3.2778.3055.3055,0,0,0,.0385.0175,2.0522,2.0522,0,0,0,.0878.9049,6.2326,6.2326,0,0,0,.2542.9522,3.1789,3.1789,0,0,0-1.7682,1.621.3715.3715,0,0,0-.12-.03.3107.3107,0,0,0-.2-.1079c-1.51-.216-3.0313-.4528-4.5558-.5963-.1225-2.6662-4.4183-4.1962-6.6207-4.0666-3.0652.18-5.2817,3.1476-5.2071,6.0945a6.33,6.33,0,0,0,.1417,1.18,1.0375,1.0375,0,0,0-.4788.156,1.2688,1.2688,0,0,0-.2265.1707c-1.0928.5773-2.0832,1.4332-3.1463,2.072-1.1064.6648-2.2679,1.2262-3.387,1.8666a6.9886,6.9886,0,0,0-2.3053-.9926c.0041-1.0292.0207-2.0656-.0221-3.0949a2.781,2.781,0,0,0,1.7321-3.3851,3.1676,3.1676,0,0,0-4.1412-1.8621,3.0658,3.0658,0,0,0-1.6677,4.1051,2.6552,2.6552,0,0,0,1.4465,1.222,8.9776,8.9776,0,0,0,.1386,2.9631,6.1057,6.1057,0,0,0-4.9293,4.5573c-.6186,2.9556,1.2259,6.1241,4.3152,6.3157-.1445,1.0478-.2728,2.0977-.3525,3.152a4.1154,4.1154,0,0,0-2.0138.8224c-2.7652.37-3.9962,3.8905-3.773,6.5061a11.93,11.93,0,0,0-2.4645.9082c-.87.366-1.7654.7159-2.601,1.156-.0391-.1018-.0769-.2039-.12-.3047-1.1948-2.7877-3.3816-3.6015-6.2256-3.0752a44.3514,44.3514,0,0,0-1.7018-4.7693.3008.3008,0,0,0-.0509-.0826c.1074-.074.2174-.1429.3214-.2233,2.1713-1.6768,3.7585-5.3607,3.008-8.23a6.0893,6.0893,0,0,0,.7245-.4694,3.8452,3.8452,0,0,0,.9911-.749,3.5486,3.5486,0,0,0,1.3086.3166,3.985,3.985,0,0,0,4.1419-4.25,4.1421,4.1421,0,0,0-4.4568-3.8c-1.9433.1329-4.24,2.1453-3.1411,4.2014a3.325,3.325,0,0,0,.01.6917c-.2983.0621-.5128.3352-.7465.5315-.2042.1715-.4031.348-.6022.5247-2.1117-2.435-6.5311-2.1592-9.2433-.6345a31.5373,31.5373,0,0,1-2.42-2.5461.6377.6377,0,0,0,.0519-.0858,7.1936,7.1936,0,0,0,.2763-5.7078,19.3973,19.3973,0,0,0,2.1489-1.3815,17.5025,17.5025,0,0,0,1.846-1.72.3055.3055,0,0,0,.0412-.0614,3.6751,3.6751,0,0,0,3.668.15,3.4182,3.4182,0,0,0,1.0435-4.947,3.8451,3.8451,0,0,0-5.4006-.5281A2.7537,2.7537,0,0,0,25.12,8.2824a.3593.3593,0,0,0-.1741.0545c-1.3516.8448-2.5753,1.975-3.8435,2.96-1.1854-1.1691-3.0983-2.3039-4.6246-1.8479a20.2063,20.2063,0,0,0-1.0527-2.55c1.7692-.8292,1.8558-3.3451.9659-4.9079A4.0063,4.0063,0,0,0,10.9466.5269,3.87,3.87,0,0,0,9.6733,5.8626a3.3639,3.3639,0,0,0,2.5634,1.54c.3261,1.0285.6937,2.0439,1.0746,3.054a6.5246,6.5246,0,0,0-3.09,8.1451l-.0126.0015a8.0054,8.0054,0,0,0-1.8935,1.1006c-.5748.3592-1.1393.7336-1.702,1.1111a4.0646,4.0646,0,0,0-3.721-.7083A4.32,4.32,0,0,0,.1905,25.3913,4.3648,4.3648,0,0,0,5.5018,28.06,4.3545,4.3545,0,0,0,8.27,23.1071,9.2141,9.2141,0,0,0,11.832,20.994a5.8932,5.8932,0,0,0,7.178.8684.4842.4842,0,0,0,.1756-.2c.3747.43.7659.8472,1.1808,1.2367a4.9842,4.9842,0,0,0,1.7582,1.332,7.008,7.008,0,0,0-.0412,8.1169,7.3315,7.3315,0,0,0,7.5128,2.8277c.3581,1.4049.7809,2.8779,1.2664,4.2982-4.2519.7913-5.3419,5.6354-4.1226,9.2552a.4457.4457,0,0,0-.3615.0977c-1.1615.9408-2.3116,1.8962-3.435,2.882-2.0064-2.4759-5.9416-2.8274-8.6314-1.2121a5.7338,5.7338,0,0,0-2.1962,2.4223.4666.4666,0,0,0-.1407-.0614,23.3448,23.3448,0,0,0-2.9161-.53,4.4931,4.4931,0,0,0-1.4867-2.721,3.7725,3.7725,0,0,0-5.1932.5581,3.4233,3.4233,0,0,0,.6386,4.7988,3.6032,3.6032,0,0,0,4.6582-.384.2435.2435,0,0,0,.1868.1384c.6506.1273,1.2891.2961,1.9374.4325a3.1234,3.1234,0,0,0,1.6061.1481.2556.2556,0,0,0,.0679-.0362,6.5116,6.5116,0,0,0,.618,3.35,6.6524,6.6524,0,0,0,6.8062,3.5219c.1262.6059.2677,1.2089.4047,1.8123a5.8341,5.8341,0,0,0,.4723,1.6267,3.51,3.51,0,0,0,1.5217,6.133,4.0906,4.0906,0,0,0,4.547-3.0021,3.1716,3.1716,0,0,0-2.64-4.0979l-.0023-.0188a10.5065,10.5065,0,0,0-1.4-3.249,5.2909,5.2909,0,0,0,2.85-7.0187.4874.4874,0,0,0-.1757-.23q.9493-.68,1.8721-1.3955a7.4653,7.4653,0,0,0,1.7031-1.4318,5.199,5.199,0,0,0,3.3754,2.2524c1.7552.2763,3.96.1456,5.3778-1.0405a3.7934,3.7934,0,0,0-.017,2.1938,3.5646,3.5646,0,0,0,4.7529,2.299,3.7394,3.7394,0,0,0,1.9627-4.85A4.1156,4.1156,0,0,0,40.03,49.6633a9.5255,9.5255,0,0,0,1.0143-3.957c.1635-.0672.2546-.2414.3756-.38a1.65,1.65,0,0,1,.351-.2961,7.3856,7.3856,0,0,0,1.6618-.6456,31.1846,31.1846,0,0,0,2.9284-1.3919.46.46,0,0,0,.15-.1252,5.9267,5.9267,0,0,0,7.5731,1.399c.1287-.0712.2513-.1513.3742-.231a.2188.2188,0,0,0,.0444.0565c.7113.5958,1.4267,1.1871,2.183,1.7253a14.0439,14.0439,0,0,0,1.8078,1.2021,4.7561,4.7561,0,0,0,2.2707,6.4192,32.0107,32.0107,0,0,0-.137,3.5158,2.5514,2.5514,0,0,0-1.3431,1.049,2.7679,2.7679,0,0,0,.9093,3.8073,2.9187,2.9187,0,0,0,3.7251-.7118,3.126,3.126,0,0,0-.3034-4.1055.4859.4859,0,0,0-.1552-.1071q.1217-1.4712.1133-2.946a4.7848,4.7848,0,0,0,2.25-.7962,6.0655,6.0655,0,0,0,2.2336-2.9277.3548.3548,0,0,0,.067.001,25.59,25.59,0,0,0,4.6129-1.0209.3923.3923,0,0,0,.13-.0813,5.19,5.19,0,0,0,6.9914,1.5254,21.4614,21.4614,0,0,0,2.5,1.7309,2.47,2.47,0,0,0,.0624,1.03A2.8649,2.8649,0,0,0,85.7,55.3057a2.9667,2.9667,0,0,0,2.2261-3.2613c-.1562-1.29-1.7276-2.9857-3.1148-2.2073-.2364-.4491-.9293-.7439-1.3-.9811-.3492-.2234-.705-.443-1.0639-.6577a.3752.3752,0,0,0,.1435-.1681,5.4225,5.4225,0,0,0,.4031-2.9953c.7275-.8151,1.42-1.6628,2.1359-2.4878a9.0921,9.0921,0,0,0,1.7963-2.4152c3.2376.86,6.7054.3284,8.2111-3.1042A5.9033,5.9033,0,0,0,92.38,29.5865a5.1332,5.1332,0,0,0-.8687-.3484.3021.3021,0,0,0-.0069-.1151c-.7843-3.11-1.2516-6.3348-2.1019-9.417a.322.322,0,0,0-.1916-.2141,6.94,6.94,0,0,0,.6513-1.4366c.4707.0924.9493.1543,1.4226.229.2125.0335.4242.0788.6359.11a1.99,1.99,0,0,0,.7942,1.0956,2.4294,2.4294,0,0,0,3.1905-.611A2.4711,2.4711,0,0,0,95.3907,15.4969ZM7.7478,53.2229c-.0625.104-.1158.2126-.1683.3217a.4018.4018,0,0,0-.2565.1143,2.9863,2.9863,0,0,1-3.0949.9289A2.5168,2.5168,0,0,1,2.8346,51.21a2.72,2.72,0,0,1,3.5918-1.1638,2.8012,2.8012,0,0,1,1.4185,1.4775A8.5687,8.5687,0,0,1,7.9965,52.84,3.9418,3.9418,0,0,0,7.7478,53.2229Zm3.7749,1.64-.0012-.0012A2.9737,2.9737,0,0,0,10,54.4272c-.4743-.0706-.95-.1283-1.4246-.1926a1.947,1.947,0,0,0,.5028-1.1525,22.8311,22.8311,0,0,0,2.6693.6032.5293.5293,0,0,0,.0568.0038A6.5882,6.5882,0,0,0,11.5227,54.8633Zm25.083-36.3248a2.8786,2.8786,0,0,1,2.1561-.8407,2.9576,2.9576,0,0,1,2.9336,2.8683A2.8492,2.8492,0,0,1,38.9,23.49a2.9552,2.9552,0,0,1-2.8326-2.6089.3955.3955,0,0,0,.0456-.1786A2.9506,2.9506,0,0,1,36.6057,18.5385Zm-1.5918,4.1c.1681-.0987.347-.1775.4963-.2851a3.6849,3.6849,0,0,0,.9278,1.3262c-.2464.1731-.4767.3985-.68.5491-.1343.1-.2919.1977-.4406.3054a4.5266,4.5266,0,0,0-.7806-1.094,4.4965,4.4965,0,0,0-.2346-.4014C34.541,22.9075,34.7788,22.7762,35.0139,22.6383ZM26.3258,5.9853a2.9582,2.9582,0,0,1,4.1037.0158,2.4269,2.4269,0,0,1-.4189,3.577c-1.4113,1.029-2.5928.107-3.658-.8309a.4269.4269,0,0,0-.3831-.0916A2.33,2.33,0,0,1,26.3258,5.9853Zm-.931,2.9466a4.6941,4.6941,0,0,0,.7656,1.07c-.0064.0054-.0134.0066-.02.0126a29.269,29.269,0,0,1-3.7979,2.9845,6.5639,6.5639,0,0,0-.6066-.9871c-.0744-.0994-.1585-.2014-.2474-.3043A13.0549,13.0549,0,0,0,25.3948,8.9319ZM10.604,5.3186a2.79,2.79,0,0,1,.6566-3.7376,2.9327,2.9327,0,0,1,3.8285.3733c.8921.9838,1.3984,3.5333-.2956,4.0492l-.0087.0036a.3692.3692,0,0,0-.2772.1113.2973.2973,0,0,0-.1315.0253A3.0961,3.0961,0,0,1,10.604,5.3186ZM13.0425,7.38a3.3878,3.3878,0,0,0,1.4538-.5813.5237.5237,0,0,0,.1342.1611c.5012,1.4672.9547,2.9464,1.3786,4.4386a.4738.4738,0,0,0,.1956.2764.7023.7023,0,0,1-.4339.5412.8051.8051,0,0,1-.8916-.2725.5116.5116,0,0,0-.0282-.1049C14.279,10.3416,13.6981,8.8437,13.0425,7.38ZM5.2618,27.19A3.4227,3.4227,0,0,1,.9833,24.9821a3.3562,3.3562,0,0,1,2.4468-4.06A3.7482,3.7482,0,0,1,7.353,23.1437,3.5432,3.5432,0,0,1,5.2618,27.19ZM9.913,21.44a12.2033,12.2033,0,0,1-1.8646,1.1016.4053.4053,0,0,0-.2255-.11,3.7566,3.7566,0,0,0-.77-1.2173c.5558-.27,1.1051-.551,1.6368-.8677A7.2017,7.2017,0,0,0,10.4563,19.16a6.2615,6.2615,0,0,0,.7613,1.1783C10.7833,20.7042,10.3746,21.1041,9.913,21.44Zm8.5036-1.6648a.3431.3431,0,0,0-.1777.2964,1.3335,1.3335,0,0,0,.3172.8491c-2.9645,1.2238-6.2842.2684-7.3233-3.0122-.8336-2.6315.4806-5.0132,2.3284-6.7916q.1869.4873.3754.9738a.4835.4835,0,0,0,.4052.313,1.5332,1.5332,0,0,0,1.61.6888,1.5621,1.5621,0,0,0,1.1523-1.8287.4035.4035,0,0,0-.1537-.2043c-.0712-.2958-.1541-.5874-.2393-.8782.3278.102.666.1679,1.0126.2857a6.469,6.469,0,0,1,2.6984,1.7033,5.9254,5.9254,0,0,1,1.0451,6.1763q-.2-.27-.3906-.548a.5713.5713,0,0,0-.826-.123A1.7264,1.7264,0,0,0,18.4166,19.7754Zm3.19,2.8883c-.3662-.37-.7278-.7469-1.08-1.1308a9.1117,9.1117,0,0,0-1.4418-1.61,1.1451,1.1451,0,0,1,1.1432-1.4071c.0056,0,.01-.0025.0152-.0024A13.4911,13.4911,0,0,0,24.1,22.2714a7.7985,7.7985,0,0,0-1.4955,1.3378C22.2921,23.5533,21.8069,22.8661,21.6067,22.6637Zm1.5246,9.0718a5.9663,5.9663,0,0,1,1.9024-8.6009c2.2712-1.4035,6.0565-1.7667,8.1661.12a.4015.4015,0,0,0,.0863.3621,6.6138,6.6138,0,0,1-.9272,8.8915A6.309,6.309,0,0,1,23.1313,31.7355Zm7.0049,3.3122a7.625,7.625,0,0,0,1.8-.7718A23.69,23.69,0,0,0,33.8128,40.57c-.0044.0161-.0074.0315-.0128.0478a.9544.9544,0,0,1-.4059.5221,1.1668,1.1668,0,0,1-1.104.0714A24.5265,24.5265,0,0,0,30.1362,35.0477ZM22.7824,65.5383c1.9275-.0893,2.7388,2.0028,1.91,3.5484A2.8849,2.8849,0,0,1,20.8564,70.52a2.6146,2.6146,0,0,1-1.0415-3.532,3.5985,3.5985,0,0,1,2.6389-1.57A.4134.4134,0,0,0,22.7824,65.5383Zm-.5157-.82a3.1222,3.1222,0,0,0-1.821.3894,8.59,8.59,0,0,0-.3751-1.3728c-.1681-.5621-.3332-1.1254-.51-1.6849a8.2362,8.2362,0,0,0,1.8287-.5264C21.7118,62.5835,21.9694,63.65,22.2667,64.7182Zm-9.2329-6.3954a5.362,5.362,0,0,1,1.7779-6.9712,6.7037,6.7037,0,0,1,7.6307.8042c-.2538.2266-.5085.4523-.759.6827a.3344.3344,0,0,0,.143.5409,1.5062,1.5062,0,0,0,1.65,1.37.222.222,0,0,0,.0291-.0028c.0295-.003.0589-.0036.0884-.0085a.3461.3461,0,0,0,.1692-.0816C25.9732,61.058,15.8445,63.75,13.0338,58.3228Zm12.7389-6.3744c-.7379.6226-1.4633,1.2629-2.1665,1.9252a.6271.6271,0,0,0-.2565-.0209,1.0378,1.0378,0,0,1-.983-.7307c1.5831-1.1746,3.1183-2.4123,4.6314-3.6755l.0145-.0148a10.8347,10.8347,0,0,0,.5806,1.1329A6.6276,6.6276,0,0,0,25.7727,51.9484Zm9.5036-2.6379a.8421.8421,0,0,1,.2221-.79c.2818-.2661.5664-.1508.8986-.1523a8.7691,8.7691,0,0,1,.8364.8856c.2294.287.4715.8094.8161,1.0069.0562.0684.1131.1362.1683.2054.0384.0482.0748.1.111.1526a2.8669,2.8669,0,0,0-1.094.9594A15.76,15.76,0,0,0,35.2763,49.3105Zm7.1614,2.7383a2.8542,2.8542,0,0,1-.9661,3.9374,2.6348,2.6348,0,0,1-3.7705-1.5706,3.2177,3.2177,0,0,1,1.4176-3.5428.25.25,0,0,0,.1206-.2273A3.304,3.304,0,0,1,42.4377,52.0488Zm-3.475-2.314a.4917.4917,0,0,0-.0254.0559c-.0785.0238-.1574.046-.2345.0765a.39.39,0,0,0-.056.0349l-.0211-.0139a2.3464,2.3464,0,0,0-.79-1.1383,7.0852,7.0852,0,0,0-1.0921-.8882.3409.3409,0,0,0-.0679-.097,1.326,1.326,0,0,0-1.7351.1987,1.3648,1.3648,0,0,0-.13,1.7021.2753.2753,0,0,0,.21.1172,15.8742,15.8742,0,0,0,1.3541,2.0383,6.9947,6.9947,0,0,1-4.5039.7707c-1.94-.2165-3.152-1.7415-3.9308-3.42-1.5839-3.4142-.6857-7.7281,3.2008-8.9088.1835.5029.3743.9969.5743,1.4742a.335.335,0,0,0,.5783.1049,1.6181,1.6181,0,0,0,1.4928.096c.55-.2632,1.275-1.2268.8313-1.8291a.4233.4233,0,0,0-.2375-.1673c-.032-.1692-.0723-.3407-.1115-.5118a6.7838,6.7838,0,0,1,3.3816.599,5.1705,5.1705,0,0,1,2.162,3.1615A8.2605,8.2605,0,0,1,38.9627,49.7348ZM45.9039,42.21c-.9854.4992-1.9735.9831-2.9823,1.4339-.6147.2746-1.6006.4563-1.8845,1.108l-.0084.0046a8.82,8.82,0,0,0-.3783-2.013c.957-.25,1.8983-.6158,2.827-.9554a13.0063,13.0063,0,0,0,2.1693-.8648c.0153.0708.0311.1412.049.21a5.2561,5.2561,0,0,0,.3848,1.026A.4809.4809,0,0,0,45.9039,42.21ZM84.4106,10.03q.1512.5967.3226,1.1856a5.354,5.354,0,0,0-1.4672.1031c-.0428-.3181-.0994-.635-.1275-.9546a3.853,3.853,0,0,0-.0591-.6731,2.0191,2.0191,0,0,0,1.2651.0956C84.3655,9.8641,84.3889,9.9443,84.4106,10.03ZM82.5358,6.5151a1.59,1.59,0,0,1,2.4511.2745,1.4766,1.4766,0,0,1-.594,2.1167,2.8812,2.8812,0,0,1-1.2407.1429c-.11.0086-.3041.0159-.3572.1527a.327.327,0,0,0-.0741-.1341A1.787,1.787,0,0,1,82.5358,6.5151Zm-2.1637,9.9558c.0054-.0058.012-.0095.0171-.0156a.3809.3809,0,0,0,.033-.459,8.7063,8.7063,0,0,1,.6535-2.2531.4232.4232,0,0,0,.5776-.1542c1.3019-1.95,4.0928-1.63,5.8351-.4765,2.3039,1.5253,1.9839,4.4485.4771,6.4394-1.4859,1.9632-4.0966,2.66-6.0763.9316A4.6592,4.6592,0,0,1,80.3721,16.4709Zm-4.4482-3.3094c1.4058.2392,2.8294.4,4.2419.5682a6.7759,6.7759,0,0,0-.7453,2.1472l-.01,0a.2588.2588,0,0,0-.1254-.1323,6.97,6.97,0,0,0-2.2552-.44c-.3162-.0379-.6327-.0709-.95-.1014a.4971.4971,0,0,0-.632-.0549c-.4251-.0328-.8506-.0582-1.277-.0712a.2559.2559,0,0,0-.2375.1376,2.0846,2.0846,0,0,1-.11-1.4474,2.7246,2.7246,0,0,1,.5739-.9045q.5339.1183,1.0725.2174A.2864.2864,0,0,0,75.9239,13.1615ZM68.8394,9.4342a6.2049,6.2049,0,0,1,6.2648,2.8715c-.1739-.0114-.3478-.0192-.5218-.0276a.2786.2786,0,0,0-.27-.1723c-.7336.02-1.1782.873-1.3136,1.5116A2.1833,2.1833,0,0,0,73.57,15.612a.2468.2468,0,0,0,.3942-.0493.25.25,0,0,0,.131.08c.3534.0831.7087.1563,1.0648.2251A4.9647,4.9647,0,0,1,70.5329,19.56a5.2593,5.2593,0,0,1-5.2019-4.2929A5.0259,5.0259,0,0,1,68.8394,9.4342Zm-4.6056,6.9364a.3734.3734,0,0,0,.0808-.1764.7637.7637,0,0,0,.1828-.0454,6.4767,6.4767,0,0,0,.5223,1.2181q-2.9437,2.2573-5.9527,4.4114a7.3015,7.3015,0,0,0-1.4556-1.5577A14.519,14.519,0,0,0,64.2338,16.3706Zm-12.6184-2.075A2.0809,2.0809,0,0,1,52.586,11.42a2.2647,2.2647,0,0,1,2.9417.9328,1.8609,1.8609,0,0,1-1.1717,2.5916.2671.2671,0,0,0-.0654.0141.4335.4335,0,0,0-.2369.0776.38.38,0,0,0-.0933.0437A2.1864,2.1864,0,0,1,51.6154,14.2956Zm1.2275,1.691a2.3428,2.3428,0,0,0,1.0875-.19l.0107.0087c.08.9878.2143,1.9751.3386,2.9578-.0288-.0042-.057-.01-.0858-.014a5.96,5.96,0,0,0-1.3275-.0193C52.8289,17.8128,52.9016,16.8936,52.8429,15.9866Zm-4.3391,7.4615a5.1427,5.1427,0,0,1,5.8807-3.5839,6.1,6.1,0,0,1,4.6474,4.5317,4.551,4.551,0,0,1-1.0413,4.2427,4.6716,4.6716,0,0,1-2.7419,1.1366c.12-.7044.2082-1.4124.26-2.1157a.4491.4491,0,0,0-.5322-.4375,2.3547,2.3547,0,0,0-2.3174-.2681.3851.3851,0,0,0-.6241.2415q-.1407.954-.279,1.91C49.53,28.0742,47.8715,26.06,48.5038,23.4481Zm6.0589,4.5039c-.2524,1.7034-.5284,3.3861-.8677,5.0777a.4.4,0,0,0-.002.1368,5.0664,5.0664,0,0,0-1.762-.3648c.3935-1.7308.66-3.4884.9343-5.2415A1.9486,1.9486,0,0,1,54.5627,27.952Zm-.7668,15.3409c-2.5806,1.57-6.3165.7193-7.14-2.4244-.6836-2.6086.4982-4.7379,2.37-6.31a.38.38,0,0,0,.5159.0563c2.3854-1.759,5.4956-.39,6.5764,2.1848A5.3809,5.3809,0,0,1,53.7959,43.2929Zm3.4388,1.9194c-.781-.4968-1.5711-.9787-2.3486-1.481a6.6921,6.6921,0,0,0,1.4525-1.5526A23.2558,23.2558,0,0,0,58.27,43.8244a10.3413,10.3413,0,0,0,1.922,1.2906,4.1085,4.1085,0,0,0-1.2589,1.1577C58.4039,45.873,57.7807,45.56,57.2347,45.2123Zm6.064,15.18a2.02,2.02,0,0,1-2.54.6878,1.8437,1.8437,0,0,1-.7916-2.4039,2.2425,2.2425,0,0,1,2.7626-.89.2113.2113,0,0,0,.2566-.0715.438.438,0,0,0,.0473.0021A2.2518,2.2518,0,0,1,63.2987,60.3925Zm-1.99-6.73a5.3844,5.3844,0,0,0,1.7258.3029c-.1656,1.0582-.285,2.12-.3508,3.19a2.4984,2.4984,0,0,0-1.2587-.3341C61.4277,55.7719,61.4084,54.7093,61.3091,53.6627Zm2.6834-.775a4.0733,4.0733,0,0,1-4.6461-2.3425,4.721,4.721,0,0,1,1.4807-5.0537.312.312,0,0,0,.486.0134c1.7217-1.8533,5.36-.421,5.9671,1.8047A4.7934,4.7934,0,0,1,63.9925,52.8877Zm3.4726-7.4414c-1.0418-1.3434-5.5086-2.8684-6.5522-.85a12.0059,12.0059,0,0,0-2.0745-1.4383q-1.0992-.7387-2.1868-1.4952a6.0114,6.0114,0,0,0,.2621-5.5308,6.1235,6.1235,0,0,0-2.6729-2.7167.3594.3594,0,0,0,.1487-.1941,23.8989,23.8989,0,0,0,.6863-2.5523c2.8325.8338,5.2322-2.5587,5.2155-5.1059a6.6722,6.6722,0,0,0-.9256-3.32A34.0255,34.0255,0,0,0,65.5188,18.13,6.1835,6.1835,0,0,0,69.536,20.516a5.9535,5.9535,0,0,0,6.6278-4.469q.3746.0606.75.1145a9.4827,9.4827,0,0,0,1.9441.2012,2.3978,2.3978,0,0,0,.4805.21h0a5.5948,5.5948,0,0,0,2.3037,5.0052,4.7054,4.7054,0,0,0,4.5891.536,25.2311,25.2311,0,0,0,1.7139,7.2142,5.8008,5.8008,0,0,0-3.1823,2.5307c-1.1289,1.9457-1.46,4.8739-.23,6.762a12.653,12.653,0,0,0-1.3662,1.8375c-.4577.62-.9423,1.2179-1.425,1.8177a5.41,5.41,0,0,0-.7916-.7608,6.0715,6.0715,0,0,0-7.3423.3007A4.8151,4.8151,0,0,0,71.6613,46.09a15.6554,15.6554,0,0,1-3.4114.9715A4.4169,4.4169,0,0,0,67.4651,45.4463Zm.8036,4.0524a5.3313,5.3313,0,0,0,.09-1.8731,10.95,10.95,0,0,0,3.442-.6868,5.8836,5.8836,0,0,0,.6115,1.4923A25.4054,25.4054,0,0,0,68.2687,49.4987Zm5.6824-.4524a4.3445,4.3445,0,0,1,.7668-6.8245c3.79-2.3823,8.78,1.0555,7.0117,5.4453a.4008.4008,0,0,0-.0256.099c-.2-.1125-.4019-.2213-.6038-.3283a.3246.3246,0,0,0-.022-.0256c-.4645-.4054-1.2776-.1279-1.7365.1784a2.0792,2.0792,0,0,0-.949,1.5252.3064.3064,0,0,0,.0908.2357.2228.2228,0,0,0,.0764.2185c.2138.1848.4316.365.6489.5457A5.0881,5.0881,0,0,1,73.9511,49.0463Zm10.6534,1.7545a.2317.2317,0,0,0,.15-.2624.45.45,0,0,0,.1762.0654,2.2981,2.2981,0,0,1,1.4431.4437,1.7952,1.7952,0,0,1,.5925,1.36,1.9256,1.9256,0,0,1-1.7216,1.9635C83.0034,54.4675,82.8,51.6306,84.6045,50.8008Zm-1.4668-1.029c.2071.1467.5779.3157.8024.511a.4025.4025,0,0,0,.03.078,2.4141,2.4141,0,0,0-1.3148,1.1359c-.7474-.5073-1.5131-.9868-2.2858-1.4549a.2456.2456,0,0,0-.3514-.2149l-.0017.0006q-.463-.279-.9255-.5586a.5037.5037,0,0,0,.0248-.0553,1.6826,1.6826,0,0,1,.6938-.933,1.3947,1.3947,0,0,1,.5157-.2021,3.9114,3.9114,0,0,0,.5433-.0463c.4467.3669.9087.7151,1.3676,1.0666C82.5345,49.3271,82.8313,49.5547,83.1377,49.7718Zm1.42-7.6659c-.5507.8018-1.1245,1.589-1.6716,2.3934a5.4808,5.4808,0,0,0-.7815-1.7488A24.4766,24.4766,0,0,0,83.77,40.9239a9.8942,9.8942,0,0,0,1.2628-1.6821,3.8223,3.8223,0,0,0,1.1052.7683A11.9353,11.9353,0,0,0,84.5579,42.1059Zm7.9068-11.3194a4.8479,4.8479,0,0,1,1.3864,6.5382c-1.6849,2.6029-4.402,2.3752-7.0627,1.7554a.4863.4863,0,0,0-.3032.0213,4.7756,4.7756,0,0,1-.9661-.6557C82.76,34.421,87.6285,27.48,92.4647,30.7865ZM90.91,29.0938a5.9174,5.9174,0,0,0-2.3879.07c-.625-2.46-1.15-4.8941-1.5658-7.4a6.22,6.22,0,0,0,1.7775-1.5818A35.7924,35.7924,0,0,0,90.91,29.0938Zm.9065-11.5118c-.1437-.0088-.2884-.0153-.4333-.0268-.4531-.0357-.9083-.084-1.3631-.1059a5.7738,5.7738,0,0,0,.129-1.16,7.449,7.449,0,0,0,1.1965.1883,4.3552,4.3552,0,0,0,.7443.02A2.7586,2.7586,0,0,0,91.8165,17.582Zm3.2753.8505a1.528,1.528,0,0,1-1.9128.2633,1.0259,1.0259,0,0,1-.3263-.3929.3381.3381,0,0,0-.0721-.5216c-.0217-.01-.044-.0177-.0659-.0269a4.4986,4.4986,0,0,1,.1194-1.2239l.0048-.0021c.6346-.4183,1.4137-.8392,2.124-.2367A1.5768,1.5768,0,0,1,95.0918,18.4325Z" fill="#fff" opacity="0.1"/>
        <path d="M82.3652,42.7949a.057.057,0,0,0,0,.114A.057.057,0,0,0,82.3652,42.7949Z" fill="#fff"/>
      </g>
    </g>
  </g>
</svg>
