<?xml version="1.0" encoding="utf-8"?>
<!-- Generator: Adobe Illustrator 23.0.1, SVG Export Plug-In . SVG Version: 6.00 Build 0)  -->
<svg version="1.1" id="Calque_1" xmlns="http://www.w3.org/2000/svg" xmlns:xlink="http://www.w3.org/1999/xlink" x="0px" y="0px"
	 viewBox="0 0 48 65.8" enable-background="new 0 0 48 65.8" xml:space="preserve">
<title>form</title>
<g>
	<g id="game">
		<g opacity="0.1">
			<path fill="#FFFFFF" d="M25.1,2.9c0.1-0.1,0.2-0.2,0.1-0.3c-0.1-0.1-0.2-0.2-0.3-0.1c0,0,0,0,0,0c-1.2,0.6-2.4,1.2-3.6,1.8
				c-0.1-0.1-0.2-0.3-0.3-0.4c-0.2-0.4-0.5-0.7-0.7-1.1c0,0,0,0,0,0c0.4-0.2,0.8-0.5,1.2-0.7c1-0.5,2-1.1,2.9-1.8
				c0.1-0.1,0.1-0.2,0-0.2c0,0-0.1-0.1-0.2,0C23,0.4,21.9,1,20.9,1.6c-1.1,0.6-2.2,1.2-3.2,2C17.4,3.8,17.7,4.1,18,4
				c0.6-0.3,1.2-0.6,1.8-1c0.1,0.4,0.3,0.8,0.6,1.2c0.1,0.2,0.2,0.3,0.3,0.4c-0.5,0.3-1.1,0.7-1.5,1.1c-0.3,0.2,0.1,0.6,0.4,0.4
				C21.4,5.3,23.3,4.1,25.1,2.9z"/>
			<path fill="#FFFFFF" d="M21.4,7.8c0.2,0,0.3-0.1,0.4-0.1c0.4-0.2,0.5-0.8,0.3-1.2c0,0,0,0,0,0c-0.1-0.1-0.2-0.1-0.4,0
				c-0.1,0.1-0.1,0.2-0.1,0.3c0.1,0.2,0,0.4-0.2,0.5c-0.1,0-0.1,0-0.2,0C21.2,7.1,21.1,7,21,6.9c-0.1-0.1-0.4-0.1-0.5,0.1
				c-0.1,0.1-0.1,0.2,0,0.4c0.2,0.3,0.3,1-0.3,1.1c-0.4,0-0.5-0.3-0.4-0.6c0-0.4-0.5-0.4-0.7-0.1c-0.6,0.7,0.5,1.6,1.2,1.4
				C21,8.9,21.4,8.4,21.4,7.8z"/>
			<path fill="#FFFFFF" d="M23.7,12.5c-2.1-2.1,2.9-5.1,4.7-3.6c0.1,0.1,0.4,0,0.3-0.2c-0.6-2-3.5-0.8-4.8,0.1
				c-1.4,1-2.4,3.3-0.7,4.2c0.2,0.1,0.4,0,0.5-0.2C23.9,12.8,23.8,12.6,23.7,12.5z"/>
			<path fill="#FFFFFF" d="M8.3,13.6c0.1-0.1,0.1-0.2,0.1-0.3c-0.1-0.1-0.2-0.1-0.3-0.1c0,0,0,0,0,0c-1.4,0.6-2.7,1.3-4,2.1
				c-0.1-0.3-0.3-0.5-0.4-0.8c-0.2-0.4-0.4-0.7-0.6-1.1c1.1-0.7,2.3-1.5,3.3-2.3c0.3-0.2,0.1-0.6-0.2-0.4c-2.1,1.1-4.1,2.4-6,3.8
				c-0.3,0.2,0.1,0.6,0.3,0.4c0.7-0.4,1.4-0.8,2.2-1.2c0.2,0.4,0.3,0.7,0.5,1.1c0.1,0.3,0.2,0.6,0.4,0.8c-0.6,0.4-1.1,0.8-1.7,1.2
				c-0.3,0.2,0.1,0.6,0.4,0.5C4.3,16.2,6.4,15,8.3,13.6z"/>
			<path fill="#FFFFFF" d="M3.7,18.8c0.2,0,0.5,0,0.7-0.2c0.4-0.3,0.6-0.8,0.3-1.3c-0.1-0.1-0.2-0.2-0.3-0.3C4.1,17,3.8,17.3,4,17.5
				c0.2,0.1,0.3,0.5,0.1,0.7c-0.1,0.1-0.3,0.1-0.4,0c0,0,0,0,0,0c0-0.1-0.1-0.3-0.2-0.4c-0.1-0.2-0.4-0.2-0.5-0.1
				c-0.1,0.1-0.2,0.2-0.1,0.3c0,0.2,0.1,0.3,0.2,0.4c0.1,0.2,0,0.5-0.2,0.6c-0.4,0.4-0.6-0.1-0.8-0.3c-0.1-0.1-0.4-0.1-0.5,0.1
				C1.2,19.6,2.4,20,3,19.8C3.4,19.6,3.7,19.2,3.7,18.8z"/>
			<path fill="#FFFFFF" d="M6.5,22.4c-1.2-0.9-0.2-2.2,0.9-2.8c1.3-0.7,2.8-0.8,3.8,0.3c0.2,0.2,0.5-0.1,0.4-0.3
				c-0.9-1.9-3.5-1.5-5.1-0.4c-1.2,0.9-2.2,3-0.4,3.7C6.4,23.1,6.9,22.7,6.5,22.4z"/>
			<path fill="#FFFFFF" d="M19.2,26.5c-0.5-1.3-0.1-2.2,1.2-3c1.1-0.6,2.8-1.1,3.3,0.3c0.1,0.1,0.3,0.2,0.4,0
				c0.4-2.2-2.5-1.8-3.8-1.1c-1,0.4-1.7,1.2-2.2,2.1c-0.4,0.7-0.1,1.6,0.6,2.1c0.2,0.1,0.3,0,0.4-0.1C19.2,26.6,19.2,26.6,19.2,26.5
				z"/>
			<path fill="#FFFFFF" d="M20.2,28.4c1.7-1,3.4-2.1,5.1-3.1c0.1,0,0.1-0.2,0.1-0.2c0-0.1-0.2-0.1-0.2-0.1c0,0,0,0,0,0
				c-2,1-3.8,2.1-5.7,3.2c-0.3,0.2-0.2,0.8,0.2,0.6l0.3-0.1C20.1,28.6,20.2,28.5,20.2,28.4z"/>
			<path fill="#FFFFFF" d="M26.5,26.9c0.1-0.1,0-0.3-0.2-0.2c-1.4,0.6-2.7,1.3-4,2c-0.1-0.2-0.3-0.4-0.4-0.6
				c-0.1-0.2-0.3-0.3-0.5-0.4c-0.1,0-0.1,0-0.1,0.1c-0.1,0.2-0.1,0.5,0.1,0.6c0.1,0.2,0.2,0.4,0.3,0.7c-0.5,0.3-0.9,0.6-1.4,1
				c-0.3,0.2,0.1,0.6,0.4,0.4C22.7,29.6,24.7,28.4,26.5,26.9z"/>
			<path fill="#FFFFFF" d="M25.2,32.1c-0.1-0.4-0.4-0.7-0.6-1c-0.1-0.1-0.3-0.1-0.5,0.1c-0.1,0.1-0.1,0.2-0.1,0.2
				c0.1,0.4,0.3,0.7,0.5,1.1C24.8,32.8,25.4,32.5,25.2,32.1z"/>
			<path fill="#FFFFFF" d="M30.4,34.7c0.1-0.2,0-0.4-0.1-0.4c0,0-0.1,0-0.1,0c-0.4-1.3-2.8-0.4-3.8,0c-1,0.4-3,1.3-2.8,2.6
				c0.2,1.3,1.9,1.3,3,1C28.3,37.3,29.6,36.2,30.4,34.7z M25.8,37.2c-0.6,0.1-1-0.2-1.3-0.9l0.6-0.6c0.4-0.3,0.7-0.5,1.2-0.7
				c0.7-0.4,2.8-1.3,3.5-0.6C29,35.8,27.5,37.2,25.8,37.2L25.8,37.2z"/>
			<path fill="#FFFFFF" d="M29.3,40.8c1.2-0.7,2.2-1.5,3.2-2.4c0.1-0.1,0.1-0.1,0-0.2c0-0.1-0.1-0.1-0.2,0c-0.9,0.6-1.9,1.1-2.8,1.7
				c-0.2,0.1-0.4,0.2-0.6,0.3c-0.1-0.1-0.2-0.2-0.2-0.3c-0.2-0.3-0.4-0.6-0.6-1c1.2-0.7,2.3-1.5,3.4-2.2c0.1-0.1,0.2-0.2,0.1-0.4
				c-0.1-0.1-0.2-0.2-0.4-0.1c0,0,0,0,0,0c-2,1-4,2.2-5.8,3.6c-0.1,0.1-0.1,0.3,0,0.4c0.1,0.1,0.2,0.1,0.3,0.1c0.7-0.3,1.4-0.6,2-1
				c0.1,0.3,0.3,0.7,0.5,1c0,0.1,0.1,0.2,0.1,0.3c-0.6,0.3-1.2,0.6-1.7,0.9c-0.1,0.1-0.2,0.2-0.1,0.4c0.1,0.1,0.2,0.2,0.3,0.2
				c0.7-0.2,1.4-0.5,2-0.8l0,0C29,41.1,29.2,41,29.3,40.8C29.3,40.8,29.3,40.8,29.3,40.8z"/>
			<path fill="#FFFFFF" d="M25,20.1c0.3-1.1,0.7-2.2,1-3.3c0.1-0.5,0.3-1,0.4-1.5c0.1-0.2,0.3-1.7,0.5-1.8c0.1-0.1,0.2-0.2,0.1-0.2
				l0,0c-0.1-0.2-0.2-0.2-0.4-0.2c0,0-0.1,0-0.1,0.1c-0.3,0.3-0.4,0.6-0.5,1c-0.2,0.7-0.5,1.3-0.7,2c-0.4,1.3-0.8,2.5-1.2,3.8
				C23.8,20.5,24.8,20.7,25,20.1z"/>
			<path fill="#FFFFFF" d="M15.9,24.4c-1-0.5-2-0.8-3-1.1c-1.1-0.4-2.2-0.8-3.4-1.1c-0.3-0.1-0.6,0.4-0.3,0.6
				c1.1,0.5,2.2,0.9,3.3,1.3c1,0.4,2,0.8,3,1.1C16,25.2,16.2,24.6,15.9,24.4z"/>
			<path fill="#FFFFFF" d="M40.3,55.5c0.1-0.2,0.1-0.4-0.1-0.5c0,0-0.1,0-0.1-0.1c0-0.1-0.1-0.2-0.3-0.4c-0.1-0.2-0.3-0.5-0.4-0.7
				c-0.3-0.5-0.6-1-0.8-1.4c-0.3-0.6-0.7-1.2-1.3-1.6c0,0,0-0.1,0-0.1c0.7-4.3,1.6-8.7,2-13c0-0.3-0.5-0.4-0.6-0.1
				c-1,4.1-1.6,8.3-2.3,12.5c-3.9-0.9-7.9-1.4-11.9-1.5c-0.2,0-0.5,0.2-0.5,0.4c0,0.2,0.2,0.5,0.4,0.5c4.1,0.2,8.2,0.7,12.2,1.6
				c0.1,0,0.2,0,0.2,0c0.1,0.4,0.2,0.8,0.4,1.2c0.4,0.8,0.9,1.6,1.3,2.4C39,55.2,39.6,56.4,40.3,55.5z"/>
			<path fill="#FFFFFF" d="M44.8,57.7c0,0-0.1-0.1-0.1-0.1c-0.8-1-2.5-0.4-3.6,0.1c-1.2,0.5-2.6,1.9-1.8,3.2
				C40.5,63,46.1,59.6,44.8,57.7z M41.6,60.5c-0.6,0.2-0.8,0.2-1.3-0.2c-0.4-0.1-0.5-0.4-0.3-0.7c0.1-0.4,0.3-0.7,0.7-0.9
				c0.4-0.2,0.8-0.4,1.2-0.6c0.7-0.4,1.6-0.5,2.4-0.3c0,0,0,0.1,0,0.1c0.1,0.9-0.7,1.6-1.4,2C42.4,60.2,42,60.4,41.6,60.5L41.6,60.5
				z"/>
			<path fill="#FFFFFF" d="M48,62.1c0.2-0.2,0-0.4-0.3-0.3c-1.1,0.6-2.1,1.2-3.1,1.8c-0.1,0-0.1,0.1-0.2,0.1c-0.3-0.4-0.6-0.8-1-1.3
				c1-0.7,2-1.5,3.1-2.2c0.1-0.1,0.2-0.2,0.1-0.4s-0.2-0.2-0.4-0.1c0,0,0,0,0,0c-1.9,1-3.6,2.1-5.2,3.5c-0.1,0.1-0.1,0.3,0,0.5
				c0.1,0.1,0.3,0.1,0.4,0c0.5-0.3,1.1-0.7,1.6-1c0.3,0.4,0.5,0.9,0.8,1.3c-0.7,0.3-1.3,0.8-1.9,1.2c-0.1,0.1-0.1,0.3,0,0.4
				c0.1,0.1,0.2,0.1,0.3,0.1C44.3,64.9,46.2,63.6,48,62.1z"/>
		</g>
	</g>
</g>
</svg>
