<svg id="Calque_1" data-name="Calque 1" xmlns="http://www.w3.org/2000/svg" viewBox="0 0 82.137 113.333">
  <title>bgbgbgbg</title>
  <g id="game">
    <g opacity="0.1">
      <path d="M12.077,17.3894l9.6714-5.5838a.7479.7479,0,1,0-.7328-1.3039l-.015.0086-9.6715,5.5838a.7479.7479,0,0,0,.7479,1.2953Z" fill="#fff"/>
      <path d="M16.9729,19.6369l4.161-2.4024a.7469.7469,0,0,0-.7469-1.2936l-4.161,2.4023a.7469.7469,0,0,0,.7469,1.2937Z" fill="#fff"/>
      <path d="M23.2664,44.0426l15.7446-9.09a.7476.7476,0,0,0-.7476-1.2948h0l-15.7444,9.09a.7476.7476,0,0,0,.7476,1.2948Z" fill="#fff"/>
      <path d="M6.7456,15.4278,22.49,6.3377a.7476.7476,0,0,0-.7475-1.2948l-15.7444,9.09a.7476.7476,0,0,0,.7476,1.2948Z" fill="#fff"/>
      <path d="M24.2728,38.5133,33.9443,32.93a.7475.7475,0,0,0-.7475-1.2948l-9.6715,5.5838a.7475.7475,0,0,0,.7475,1.2948Z" fill="#fff"/>
      <path d="M24.7746,33.15l4.1609-2.4023a.7479.7479,0,1,0-.7479-1.2954l-4.1609,2.4023a.7479.7479,0,1,0,.7479,1.2954Z" fill="#fff"/>
      <path d="M.0561,15.345c-.1785-.3091.0992-.491.4083-.6694s.5929-.3208.7714-.0117a13.0907,13.0907,0,0,0,4.7216,4.2223,29.7389,29.7389,0,0,0,5.8674,2.5026,39.4379,39.4379,0,0,0,6.1579,1.7767c.48.4446.0607.8079-.5621,1.0088A41.94,41.94,0,0,1,11.0048,22.65a30.0488,30.0488,0,0,1-6.1006-2.7464A13.8475,13.8475,0,0,1,.0561,15.345Z" fill="#fff"/>
      <path d="M30.94,50.061l9.6715-5.5838a.7473.7473,0,0,0-.7322-1.3029l-.0151.0086-9.6714,5.5838a.7473.7473,0,0,0,.7322,1.303Z" fill="#fff"/>
      <path d="M35.8366,52.31l4.161-2.4024a.7476.7476,0,1,0-.7328-1.3033l-.0148.0085L35.089,51.015a.7476.7476,0,0,0,.7476,1.2948Z" fill="#fff"/>
      <path d="M42.13,76.7147l15.7446-9.09a.7482.7482,0,0,0-.7481-1.2958l-15.7444,9.09a.7482.7482,0,0,0,.7482,1.2958Z" fill="#fff"/>
      <path d="M25.6087,48.1l15.7446-9.09a.7472.7472,0,0,0-.7469-1.2944l0,0-15.7443,9.09A.7472.7472,0,0,0,25.609,48.1Z" fill="#fff"/>
      <path d="M43.1356,71.1846l9.6715-5.5838a.7473.7473,0,0,0-.7322-1.303l-.0151.0087L42.3884,69.89a.7473.7473,0,1,0,.7322,1.303Z" fill="#fff"/>
      <path d="M43.6378,65.8219l4.161-2.4023a.7473.7473,0,0,0-.7322-1.303l-.015.0087-4.161,2.4024a.7473.7473,0,0,0,.7472,1.2942Z" fill="#fff"/>
      <path d="M18.6934,47.8861c-.865-1.4982-1.0053-3.5662-1.1216-5.7825A28.327,28.327,0,0,1,17.55,36.18a40.8992,40.8992,0,0,1,1.3846-5.78,37.6809,37.6809,0,0,1,2.0857-5.5758,44.8626,44.8626,0,0,0,2.6326-5.5614,42.9069,42.9069,0,0,0,1.4113-5.9938A35.6522,35.6522,0,0,0,25.9715,7.16a12.4239,12.4239,0,0,0-1.3746-5.9844c-.1786-.3088-.2024-.9533.1068-1.1318s.7507.2248.9293.5342a12.4765,12.4765,0,0,1,1.23,5.9163,32.34,32.34,0,0,1-.38,6.1282,49.5938,49.5938,0,0,1-1.3479,6.6653,45.7031,45.7031,0,0,1-2.4425,6.3734,33.8,33.8,0,0,0-2.4086,5.05,39.6148,39.6148,0,0,0-1.1635,5.4848,28.5966,28.5966,0,0,0-.3714,5.5768,12.24,12.24,0,0,0,1.1222,5.4636c.0374.0648.3839-.135.4214-.07.0181.0314.01.0341.0284.0654a12.4127,12.4127,0,0,0,4.4416,4.4493,29.2659,29.2659,0,0,0,5.79,2.8069,38.99,38.99,0,0,0,6.1185,1.54c.48.4443.306.8412-.3162,1.0417a43.6388,43.6388,0,0,1-6.5764-1.4686,30.3676,30.3676,0,0,1-6.0944-2.8691A14.026,14.026,0,0,1,18.87,48.066c-.0295-.0511.0752-.05.0184-.0662C18.7762,47.9664,18.7261,47.9418,18.6934,47.8861Z" fill="#fff"/>
      <path d="M56.2692,113.1475c-.7717-1.3366-.8229-3.4633-.9629-5.8458a29.3909,29.3909,0,0,1,.347-5.8561,35.6782,35.6782,0,0,1,.9625-5.8355,37.31,37.31,0,0,1,2.1216-5.5524,43.979,43.979,0,0,0,2.3847-5.6354,42.8437,42.8437,0,0,0,1.4587-5.9394,35.4306,35.4306,0,0,0,.9-6.0656,12.0875,12.0875,0,0,0-1.4193-5.8556c-.0459-.0825.2351-.241.1871-.3221A13.4037,13.4037,0,0,0,57.37,62.1258a31.4612,31.4612,0,0,0-5.833-2.6925,36.6034,36.6034,0,0,0-6.2108-1.5541.7773.7773,0,0,1,.3966-1.3251,38.6707,38.6707,0,0,1,6.66,1.5832A32.9206,32.9206,0,0,1,58.34,61.3247a13.3511,13.3511,0,0,1,4.7945,4.4987c.0163.0281.0682-.0021.0844.0261a12.2621,12.2621,0,0,1,1.28,5.8572,34.2524,34.2524,0,0,1-.0618,6.1638,51.3309,51.3309,0,0,1-2.0339,6.4927,47.3545,47.3545,0,0,1-2.1343,6.46,34.91,34.91,0,0,0-1.9929,5.1916,39.414,39.414,0,0,0-1.46,5.3839,30.14,30.14,0,0,0-.7115,5.5783,11.7538,11.7538,0,0,0,1.5351,5.3788c.1787.31-.0155.6108-.3246.7893S56.4479,113.4571,56.2692,113.1475Z" fill="#fff"/>
      <path d="M49.717,82.5838,59.3884,77a.7482.7482,0,0,0-.7481-1.2958L48.9688,81.288a.7482.7482,0,0,0,.7482,1.2958Z" fill="#fff"/>
      <path d="M54.6126,84.8308l4.161-2.4024a.7469.7469,0,0,0-.7445-1.2951l-.0024.0015-4.161,2.4023a.7469.7469,0,0,0,.7469,1.2937Z" fill="#fff"/>
      <path d="M75.9027,98.8508l-15.7443,9.09a.7479.7479,0,0,0,.7479,1.2954l15.7443-9.09a.7479.7479,0,1,0-.7479-1.2954Z" fill="#fff"/>
      <path d="M44.3856,80.6222,60.13,71.532a.7475.7475,0,0,0-.7475-1.2947l-15.7443,9.09a.7475.7475,0,0,0,.7475,1.2947Z" fill="#fff"/>
      <path d="M70.8366,96.8288l-9.6715,5.5838a.7476.7476,0,0,0,.7328,1.3034l.0148-.0086,9.6714-5.5838a.7476.7476,0,0,0-.7327-1.3034Z" fill="#fff"/>
      <path d="M65.8275,94.6463l-4.1609,2.4024a.7479.7479,0,0,0,.7479,1.2954l4.161-2.4023a.748.748,0,0,0-.748-1.2955Z" fill="#fff"/>
      <path d="M64.6,89.3656A36.428,36.428,0,0,1,71.1062,90.81a32.9628,32.9628,0,0,1,6.0078,3.0393,13.415,13.415,0,0,1,4.8206,4.48c.1787.31.3357.7094.0267.8878s-.6868-.0939-.8656-.4035c-.91-1.5768-2.8066-2.8167-4.9447-4.0681A31.397,31.397,0,0,0,70.2573,92.21a37.3369,37.3369,0,0,0-6.2625-1.6521C63.421,90.2428,63.9722,89.5836,64.6,89.3656Z" fill="#fff"/>
      <path d="M37.9292,80.2874A12.4877,12.4877,0,0,1,36.57,74.73a28.1175,28.1175,0,0,1-.0311-5.8849,40.623,40.623,0,0,1,1.6931-5.6521c.6072-1.9563.8674-4.0164,1.6966-5.6741a43.7447,43.7447,0,0,0,2.35-5.6632,45.7355,45.7355,0,0,0,1.9159-5.8647,32.7721,32.7721,0,0,0,.4485-6.1565c-.0123-2.5728-.2335-4.7737-.9948-6.0923-.0253-.0438-.0369-.0345-.0614-.0788-.03-.0549-.3143.066-.3317.0439a12.66,12.66,0,0,0-4.6424-4.3608,31.6274,31.6274,0,0,0-5.8478-2.8,35.5367,35.5367,0,0,0-6.1518-1.4931c-.4715-.4679-.3318-.8115.2959-1.0291a38.3142,38.3142,0,0,1,6.4337,1.9435,33.1744,33.1744,0,0,1,6.1023,2.7359c2.2085,1.3315,4.0805,2.6876,5.028,4.3287.025.0433.1555-.032.1808.0118.03.052-.3.2435-.2693.2953a12.19,12.19,0,0,1,1.3832,5.8358,31.9283,31.9283,0,0,1-.51,6.1044,49.4766,49.4766,0,0,1-1.4659,6.6151A43.8967,43.8967,0,0,1,41.17,58.141a35.572,35.572,0,0,0-2.0184,5.2441,39.5046,39.5046,0,0,0-1.1035,5.4941,27.7841,27.7841,0,0,0-.2026,5.5573c.0826,2.1387.2268,4.0145,1.0245,5.3961.0187.0325.095-.0131.1139.0192.0053.0092-.3241.2023-.3188.2115.9089,1.54,2.8039,2.8036,4.9444,4.0851a29.47,29.47,0,0,0,5.8089,2.6441,38.6835,38.6835,0,0,0,6.08,1.6989c.48.4458.2781.9615-.3452,1.1638a45.075,45.075,0,0,1-6.4472-1.9287c-2.1667-.7361-4.4687-1.235-6.2836-2.3543a13.7439,13.7439,0,0,1-4.5608-4.8429C37.7947,80.3708,37.97,80.359,37.9292,80.2874Z" fill="#fff"/>
    </g>
  </g>
</svg>
