<svg id="Calque_1" data-name="Calque 1" xmlns="http://www.w3.org/2000/svg" viewBox="0 0 48.0288 65.7687">
  <title>bg_menu_form</title>
  <g id="game">
    <g opacity="0.1">
      <path d="M25.1376,2.8677a.2307.2307,0,0,0-.2084-.4117l-.022.0127C23.74,3.0421,22.4751,3.63,21.2913,4.3119c-.097-.1333-.213-.26-.3131-.4022-.2479-.3534-.4556-.7313-.6952-1.09a.2029.2029,0,0,0-.035-.0343c.396-.2475.79-.496,1.185-.7269A21.212,21.212,0,0,0,24.3511.2611a.15.15,0,0,0-.1466-.2539,15.8175,15.8175,0,0,0-3.3488,1.6153A18.6821,18.6821,0,0,0,17.6925,3.622c-.2617.2267.0513.5159.3185.4013a14.309,14.309,0,0,0,1.8176-.978,5.9314,5.9314,0,0,0,.5593,1.2054c.0874.15.1676.3074.2639.4481A13.4189,13.4189,0,0,0,19.11,5.8054c-.2947.25.0582.5774.3554.448A48.8223,48.8223,0,0,0,25.1376,2.8677Z" fill="#fff"/>
      <path d="M21.3777,7.7805a.8813.8813,0,0,0,.4385-.1423.8358.8358,0,0,0,.2719-1.15l-.0244-.0372a.25.25,0,0,0-.4288.2476.3461.3461,0,0,1-.3836.4819,1.0287,1.0287,0,0,0-.21-.2881.3467.3467,0,0,0-.5362.4048c.1608.2906.303,1.02-.2687,1.081-.4045.0431-.4642-.3158-.439-.6025.0331-.376-.4548-.399-.6574-.1446-.5926.7443.4675,1.5913,1.2131,1.4412A1.3229,1.3229,0,0,0,21.3777,7.7805Z" fill="#fff"/>
      <path d="M23.74,12.4888c-2.1056-2.1229,2.8842-5.1315,4.6756-3.5678.1194.1042.3673-.0107.3118-.18-.6463-1.9781-3.5341-.7982-4.8164.1156-1.4066,1.0023-2.3872,3.26-.6648,4.2433a.403.403,0,0,0,.4938-.6111Z" fill="#fff"/>
      <path d="M8.3122,13.6262a.2169.2169,0,1,0-.1952-.3873l-.0214.0123A35.9127,35.9127,0,0,0,4.05,15.3126c-.1189-.2744-.2871-.5336-.4234-.7934-.1921-.3658-.3881-.7292-.5846-1.0926,1.1443-.7382,2.26-1.54,3.3133-2.3253.2676-.2.0674-.5932-.2442-.423A42.2177,42.2177,0,0,0,.1062,14.4975c-.2817.2246.0542.5808.3441.4337.7233-.3656,1.4425-.7813,2.152-1.2245.1625.3739.3257.7472.4931,1.1192.1266.2811.2311.5778.3836.8445a18.7579,18.7579,0,0,0-1.6831,1.1971c-.298.2413.0582.591.3582.4514A47.2287,47.2287,0,0,0,8.3122,13.6262Z" fill="#fff"/>
      <path d="M3.74,18.8158a.973.973,0,0,0,.662-.1661A.9071.9071,0,0,0,4.3431,17.08c-.2284-.0956-.5151.2-.3044.3766.1734.1459.3438.4806.0816.6919a.2953.2953,0,0,1-.4175.01l-.0141-.0144a1.4889,1.4889,0,0,0-.1854-.401.3661.3661,0,0,0-.6528.2766.8179.8179,0,0,0,.1944.4388.5772.5772,0,0,1-.1529.6125c-.4012.3508-.58-.1051-.7671-.3315-.1185-.1439-.3777-.066-.4716.08-.4992.7753.7515,1.2031,1.3628.9486A1.1728,1.1728,0,0,0,3.74,18.8158Z" fill="#fff"/>
      <path d="M6.5427,22.4183c-1.2406-.9234-.2227-2.228.9264-2.85,1.3213-.7146,2.8489-.7592,3.7811.344.1716.203.47-.0779.3787-.2859-.8506-1.9376-3.5176-1.5231-5.1214-.3761-1.2239.8753-2.161,3.0474-.4272,3.74C6.4209,23.1272,6.8844,22.6724,6.5427,22.4183Z" fill="#fff"/>
      <path d="M19.1587,26.485c-.5286-1.2973-.0886-2.2221,1.2457-2.9779,1.1184-.6334,2.7971-1.1466,3.3394.2792.0568.1492.3463.2017.3867-.0135.4044-2.1545-2.5044-1.7519-3.7928-1.1093A4.0479,4.0479,0,0,0,18.1709,24.8a1.62,1.62,0,0,0,.5866,2.0716.299.299,0,0,0,.4012-.3861Z" fill="#fff"/>
      <path d="M20.1894,28.3981c1.71-1.0381,3.432-2.0595,5.1115-3.1445a.1777.1777,0,0,0-.1595-.3176l-.0179.01c-1.9524.9629-3.8439,2.0525-5.7231,3.1511-.3453.2019-.1539.7548.2432.6152l.3475-.122A.3039.3039,0,0,0,20.1894,28.3981Z" fill="#fff"/>
      <path d="M26.4584,26.8884c.1427-.114-.029-.2719-.1682-.2113A33.53,33.53,0,0,0,22.307,28.724c-.1292-.2-.2589-.4-.3978-.5931a.6935.6935,0,0,0-.5321-.3706.1761.1761,0,0,0-.1477.0853.692.692,0,0,0,.0549.6461c.1024.2267.2161.4484.3291.67-.4845.3186-.9467.65-1.3726.9908-.3023.2423.0613.5756.3555.448A27.9093,27.9093,0,0,0,26.4584,26.8884Z" fill="#fff"/>
      <path d="M25.2423,32.1484a2.7455,2.7455,0,0,0-.65-.9745.325.325,0,0,0-.5221.3014,2.7507,2.7507,0,0,0,.519,1.05C24.8054,32.7943,25.3673,32.47,25.2423,32.1484Z" fill="#fff"/>
      <path d="M30.4208,34.6513a.33.33,0,0,0-.1313-.4479.3343.3343,0,0,0-.08-.0311c-.443-1.3072-2.8235-.41-3.7832-.0046-1.0024.4238-2.9594,1.3368-2.7929,2.6425.1651,1.294,1.94,1.2577,2.9693.9777A6.1262,6.1262,0,0,0,30.4208,34.6513ZM25.78,37.2127q-.9339.2034-1.2663-.9458l.619-.5782a7.6467,7.6467,0,0,1,1.1518-.6728c.74-.37,2.7858-1.3,3.5042-.6092-.7473,1.3529-2.3376,2.8073-4.0085,2.8058Z" fill="#fff"/>
      <path d="M29.3445,40.7541a17.5649,17.5649,0,0,0,3.2242-2.4388.1468.1468,0,0,0-.1822-.23c-.9457.5621-1.8762,1.1492-2.8387,1.6832-.1884.1043-.3808.2031-.5746.3a3.2364,3.2364,0,0,1-.2271-.2661,10.3728,10.3728,0,0,1-.5788-.951c1.1527-.7247,2.2719-1.5449,3.3556-2.2479a.2654.2654,0,1,0-.24-.4736l-.0252.0146a37.0151,37.0151,0,0,0-5.8042,3.591.25.25,0,0,0,.2443.4232,14.6211,14.6211,0,0,0,2.0173-1.03,8.0832,8.0832,0,0,0,.4734.9952c.0459.0844.0892.1733.1341.2616a16.4785,16.4785,0,0,0-1.71.903.2914.2914,0,0,0,.2136.54,9.58,9.58,0,0,0,2.0428-.813l.0031.0018a.34.34,0,0,0,.4719-.2638Z" fill="#fff"/>
      <path d="M24.9535,20.0833q.4968-1.6361.9723-3.2759.2123-.7292.4139-1.46a7.3054,7.3054,0,0,1,.4765-1.8278c.0755-.0529.1535-.1579.1173-.2493l-.0184-.0464a.31.31,0,0,0-.5168-.1136,1.9948,1.9948,0,0,0-.4909.9788c-.2323.6593-.4534,1.3224-.67,1.9854q-.6217,1.8991-1.209,3.806C23.848,20.4624,24.7764,20.6669,24.9535,20.0833Z" fill="#fff"/>
      <path d="M15.8687,24.4235A19.7468,19.7468,0,0,0,12.85,23.2761c-1.115-.3858-2.2268-.7891-3.3588-1.1349-.3416-.1042-.5951.4385-.2688.5807,1.0748.4684,2.1815.8835,3.2764,1.3129a19.7284,19.7284,0,0,0,3.0466,1.0881C15.9742,25.2141,16.2428,24.6287,15.8687,24.4235Z" fill="#fff"/>
      <path d="M40.3148,55.4668a.3535.3535,0,0,0-.2029-.5476c.0083-.0524-.0806-.168-.274-.3516q-.2089-.359-.4168-.7186c-.278-.4791-.5561-.958-.8422-1.4323a3.5456,3.5456,0,0,0-1.2613-1.5882.608.608,0,0,0,.0213-.0816c.7374-4.3117,1.628-8.6555,2.0291-12.9855.0287-.3075-.483-.36-.56-.05-1.0263,4.1259-1.6192,8.3381-2.3144,12.5031a60.67,60.67,0,0,0-11.9487-1.473.4464.4464,0,0,0-.0409.8919A69.4243,69.4243,0,0,1,36.73,51.2005a.4621.4621,0,0,0,.2444-.01,2.664,2.664,0,0,0,.4405,1.1782c.4131.7995.8662,1.5783,1.3179,2.3568C39.0222,55.2234,39.6219,56.368,40.3148,55.4668Z" fill="#fff"/>
      <path d="M44.757,57.701a.2932.2932,0,0,0-.1143-.0939c-.8367-1.0045-2.45-.4328-3.6129.0506-1.23.5112-2.6278,1.8506-1.835,3.1514C40.5273,62.9954,46.1346,59.6482,44.757,57.701Zm-3.1487,2.8262a1.1,1.1,0,0,1-1.3236-.22q-.64-.1895-.3365-.6811a1.2169,1.2169,0,0,1,.71-.9005,5.319,5.319,0,0,1,1.165-.5545,3.1341,3.1341,0,0,1,2.3654-.3067.315.315,0,0,0-.0019.0788c.1279.8568-.6979,1.5932-1.3961,2.0392a4.686,4.686,0,0,1-1.1816.545Z" fill="#fff"/>
      <path d="M47.9546,62.0634c.1968-.1684-.0368-.4268-.25-.3154-1.0742.5606-2.094,1.2173-3.1387,1.8305-.06.0352-.1208.0691-.1813.1037-.3289-.4186-.6426-.8491-.9729-1.2665,1.0246-.7351,2.0305-1.5109,3.0736-2.1936a.2769.2769,0,1,0-.2491-.4946l-.0273.0158a26.182,26.182,0,0,0-5.2245,3.5.3258.3258,0,0,0,.4038.5089c.5423-.3162,1.07-.6671,1.5911-1.0317.2549.4395.5267.87.7857,1.3071a11.6153,11.6153,0,0,0-1.9309,1.23.2928.2928,0,0,0,.2866.4964A19.5674,19.5674,0,0,0,47.9546,62.0634Z" fill="#fff"/>
    </g>
  </g>
</svg>
