<?xml version="1.0" encoding="UTF-8"?>
<svg width="19px" height="20px" viewBox="0 0 19 20" version="1.1" xmlns="http://www.w3.org/2000/svg" xmlns:xlink="http://www.w3.org/1999/xlink">
    <!-- Generator: Sketch 52.4 (67378) - http://www.bohemiancoding.com/sketch -->
    <title>Group 4</title>
    <desc>Created with Sketch.</desc>
    <g id="Page-1" stroke="none" stroke-width="1" fill="none" fill-rule="evenodd">
        <g id="iPhone-8-Copy-17" transform="translate(-12.000000, -18.000000)">
            <g id="Group-3" transform="translate(8.000000, 17.000000)">
                <g id="Group-4" transform="translate(4.000000, 1.000000)">
                    <path d="M11.5880261,14.3517285 C10.0499498,16.4708191 9.10058551,16.4708191 7.56250922,14.3517285 C6.02443294,12.2326379 5.21826881,6.77399435 6.7563451,4.65490378 C8.29442139,2.53581321 10.7924694,2.53581321 12.3305457,4.65490378 C13.868622,6.77399435 13.1261024,12.2326379 11.5880261,14.3517285 Z" id="Path" fill="#08C455"></path>
                    <path d="M7.76399442,6.1311717 C7.32631651,6.1311717 7.15124535,5.85949025 7.29938249,5.55131427 C7.58892326,4.92685241 8.01986766,4.44836866 8.69321829,4.29833561 C8.84135543,4.26589604 9.07029464,4.35915982 9.17129724,4.47675329 C9.24536581,4.56596212 9.2386323,4.82142379 9.17129724,4.94712715 C8.82115491,5.58375384 8.31614194,5.99735845 7.76399442,6.1311717 Z" id="Path" fill="#F5FAFD" opacity="0.5"></path>
                    <path d="M7.06612556,6.94454847 C7.3239338,7.13097009 7.3041024,7.4934566 7.02646275,7.65916471 C6.78848591,7.79380256 6.59017187,7.89737013 6.37202643,7.96986743 C6.29270081,7.99058094 5.87624134,7.51417011 5.93573555,7.45202957 C6.13404958,7.17239712 6.43152064,6.93419171 6.7488231,6.74777008 C6.7686545,6.72705656 6.86781152,6.79955386 7.06612556,6.94454847 Z" id="Path" fill="#F5FAFD" opacity="0.5"></path>
                    <g id="Group" fill="#FFFFFF">
                        <rect id="Rectangle" x="0" y="0" width="3.06814745" height="1"></rect>
                        <rect id="Rectangle" x="1.34401149" y="1.18432252" width="1.72413596" height="1"></rect>
                        <rect id="Rectangle" x="0" y="2.35484176" width="3.06929386" height="1"></rect>
                        <rect id="Rectangle" x="1.34401149" y="3.53916428" width="1.72413596" height="1"></rect>
                        <rect id="Rectangle" x="0" y="4.7234868" width="3.06814745" height="1"></rect>
                        <rect id="Rectangle" x="1.34401149" y="5.90780933" width="1.72413596" height="1"></rect>
                        <rect id="Rectangle" x="0" y="7.0755679" width="3.06814745" height="1"></rect>
                        <rect id="Rectangle" x="1.34401149" y="8.25989042" width="1.72413596" height="1"></rect>
                        <rect id="Rectangle" x="0" y="9.41108505" width="3.06814745" height="1"></rect>
                        <rect id="Rectangle" x="1.34401149" y="10.5926469" width="1.72413596" height="1"></rect>
                        <rect id="Rectangle" x="0" y="11.7631661" width="3.06814745" height="1"></rect>
                        <rect id="Rectangle" x="1.34401149" y="12.9474887" width="1.72413596" height="1"></rect>
                        <rect id="Rectangle" x="0" y="14.1318112" width="3.06814745" height="1"></rect>
                        <rect id="Rectangle" x="1.34401149" y="15.3161337" width="1.72413596" height="1"></rect>
                        <rect id="Rectangle" x="0" y="16.4866529" width="3.06814745" height="1"></rect>
                        <rect id="Rectangle" x="0" y="18.8276914" width="3.06814745" height="1"></rect>
                        <rect id="Rectangle" x="1.34401149" y="17.6709755" width="1.72413596" height="1"></rect>
                    </g>
                    <path d="M18.0986298,15.8379769 C18.0082688,15.7682534 17.8697152,15.7682534 17.7823663,15.8379769 L16.8636959,16.4747845 L16.8636959,2.85082067 L17.7853783,3.48995238 C17.8275468,3.52248999 17.8817634,3.54108291 17.9450161,3.54108291 C18.0082688,3.54108291 18.0624854,3.52248999 18.1046539,3.48995238 L18.2281473,3.39466365 C18.2703157,3.36212604 18.294412,3.31796785 18.294412,3.26916143 C18.294412,3.22267912 18.2703157,3.17619681 18.2281473,3.1436592 L16.8124914,2.05132502 C16.7673109,2.01646329 16.7100822,1.99787037 16.6468295,2.00019448 C16.5835768,2.00019448 16.5233361,2.01646329 16.4811676,2.05132502 L15.0655117,3.1436592 C14.9781628,3.21105854 14.9781628,3.32726431 15.0655117,3.39466365 L15.1890051,3.48995238 C15.2793661,3.55967584 15.4299678,3.55967584 15.5203288,3.48995238 L16.4480353,2.87173771 L16.4480353,16.4608398 L15.5173168,15.8379769 C15.4269558,15.7682534 15.2793661,15.7682534 15.1890051,15.8379769 L15.0655117,15.9332656 C14.9781628,16.0006649 14.9781628,16.1168707 15.0655117,16.1842701 L16.4781556,17.2766042 C16.5233361,17.311466 16.5805648,17.3300589 16.6408054,17.3277348 C16.7040581,17.3277348 16.7642988,17.311466 16.8064673,17.2766042 L18.2191112,16.1865942 C18.3064601,16.1191948 18.3064601,16.0029891 18.2191112,15.9355897 L18.0986298,15.8379769 Z" id="Path" fill="#AFAFB1"></path>
                </g>
            </g>
        </g>
    </g>
</svg>