<?xml version="1.0" encoding="UTF-8"?>
<svg width="409px" height="443px" viewBox="0 0 409 443" version="1.1" xmlns="http://www.w3.org/2000/svg" xmlns:xlink="http://www.w3.org/1999/xlink">
    <!-- Generator: Sketch 52.4 (67378) - http://www.bohemiancoding.com/sketch -->
    <title>Fill 6</title>
    <desc>Created with Sketch.</desc>
    <g id="Page-1" stroke="none" stroke-width="1" fill="none" fill-rule="evenodd" opacity="0.0306966146">
        <g id="Website+NavHover" transform="translate(-516.000000, -4566.000000)" fill="#3E3D3F">
            <g id="Testez" transform="translate(476.000000, 4566.000000)">
                <path d="M444.970748,342.395262 C438.296315,338.942933 431.63425,335.495757 424.906223,332.020756 C424.88561,332.008389 424.876335,331.981595 424.887672,331.959954 C427.980626,325.656104 430.520126,319.548058 432.772078,313.316347 C440.027793,293.229976 444.840887,272.651004 446.675429,251.277481 C448.727436,227.35851 446.850638,203.788893 441.718044,180.477944 C438.51275,165.927666 433.679042,151.819492 427.608565,138.132811 C419.425273,119.645847 408.995182,102.528479 396.400746,86.8013173 C380.312435,66.7056713 361.173425,49.9180778 339.395974,36.1200981 C312.826041,19.2912828 283.999003,8.39738158 253.060182,3.13129179 C236.85747,0.370459193 220.48161,-0.619895462 204.083076,0.380764653 C193.633403,1.00836713 183.120862,1.678222 172.927819,4.41947422 C169.320575,5.38818741 167.011938,9.48976028 167.886953,13.0554493 C168.752691,16.560336 172.340354,18.7852847 176.080551,18.1164604 C200.269703,13.8190838 224.489774,13.4068654 248.81394,17.0653035 C267.807628,19.9096104 285.854158,25.7620808 303.479155,33.1624312 C305.295145,33.9209131 307.37601,34.4454609 308.736456,36.3014742 C308.747793,36.3159018 308.749855,36.3365128 308.74161,36.351971 C302.547455,48.3279454 296.394527,60.2122013 290.128227,72.3005052 C290.117921,72.3190551 290.094216,72.32833 290.072573,72.3231772 C289.160455,72.0840906 288.724494,72.0315327 288.338003,71.869737 C264.519883,61.2128614 239.526831,55.9787185 213.461912,56.2672714 C193.21084,56.4939915 173.514254,60.3265919 154.540148,67.3456403 C138.822868,73.1579195 124.259906,81.1539255 110.68636,91.1193048 C92.3100249,104.610182 77.3873693,121.171055 65.472125,140.410317 C54.3216166,158.414986 47.013339,177.995359 43.0257877,198.831967 C39.3659804,217.876456 39.1608828,236.962167 41.6849234,256.130322 C42.2218875,260.202009 45.4570706,263.045285 49.16841,262.860817 C52.9395266,262.675319 55.8150158,259.56307 55.8974672,255.40894 C55.9283864,253.646706 55.7851273,251.863862 55.5686926,250.112964 C52.6818662,226.863848 55.0945976,204.139279 62.3606189,181.910403 C64.2611214,176.09194 66.2667494,170.294089 69.1607903,164.711621 C69.173158,164.688949 69.2009853,164.679675 69.22469,164.691011 C81.7191547,171.159747 93.8147612,177.422375 106.115465,183.788057 C106.136078,183.798363 106.145354,183.824127 106.137109,183.845768 C105.049782,186.696258 103.973793,189.260256 103.080227,191.887118 C97.185989,209.303345 94.8258203,227.080262 96.8767966,245.505393 C98.4639842,259.810401 102.451535,273.320859 108.893044,286.048101 C118.838732,305.689277 133.195566,321.487546 151.839867,333.338824 C172.968014,346.788479 196.147138,352.321481 221.006206,351.446547 C225.933702,351.28166 229.034902,348.076662 228.900919,343.738063 C228.767966,339.450992 225.33593,336.874627 220.213643,337.060126 C195.601928,337.946395 173.091691,331.690981 153.323991,316.778981 C124.848402,295.302404 110.263797,266.39456 110.603908,230.924199 C110.954326,195.008642 126.765395,166.504771 156.003658,145.553772 C157.446556,144.523226 159.085276,143.759592 160.436447,142.637327 C164.578594,139.184998 163.92929,133.433521 159.219259,130.857157 C156.056221,129.12687 153.314715,130.074972 150.541259,131.887702 C138.545625,139.720882 128.382471,149.468816 119.592131,160.742989 C117.104163,163.950048 115.498424,167.821809 112.607475,170.470312 C112.593046,170.483709 112.570372,170.486801 112.553882,170.477526 C100.226381,164.098447 88.2173482,157.883224 76.3113797,151.720559 C76.2948895,151.711284 76.2845831,151.692734 76.2856137,151.673154 C76.3773408,149.952142 77.3183163,148.967971 78.0150298,147.872501 C81.735645,142.019 85.7757589,136.392219 90.0838396,130.918989 C108.399366,107.669873 131.805231,91.3563304 159.240903,80.9488468 C179.450748,73.2918904 200.53767,70.0343347 222.263589,70.859802 C242.928978,71.6419864 262.675035,76.2588322 281.443013,84.6691177 C311.671723,98.1991554 335.448618,119.304736 352.85615,147.51181 C354.948352,150.902306 356.669523,154.518491 358.782337,157.899713 C361.380584,162.063118 365.399055,163.298743 368.965074,161.299484 C372.62385,159.249728 373.427751,154.879183 370.985131,150.448866 C366.625518,142.564158 362.028858,134.867011 356.721055,127.539829 C345.950853,112.658746 332.934884,100.147918 318.207019,89.3477963 C313.372281,85.7996266 308.282974,82.5802011 303.21325,79.1371471 C303.193667,79.12375 303.188514,79.0979863 303.19779,79.0773754 C309.473365,66.9602161 315.667519,54.9852722 321.829724,43.0938025 C321.837969,43.0773138 321.858582,43.0659778 321.877133,43.0680389 C324.053848,43.2628121 325.437999,44.4098097 326.914908,45.3218429 C346.249739,57.2565955 363.708803,71.3431281 378.828311,88.4718322 C395.134087,106.938185 407.830558,127.591356 417.240313,150.170618 C422.620261,163.082328 426.670681,176.5629 429.186476,190.423743 C433.48322,214.135575 434.328346,237.889659 431.071519,261.830272 C428.48461,280.842814 423.228339,299.052561 415.910786,316.73776 C407.016351,338.224643 394.628042,357.56799 379.632211,375.241853 C373.221622,382.784419 365.965907,389.503578 358.587546,396.110408 C343.37425,409.733195 326.224378,420.328238 307.961414,429.232155 C303.643027,431.344774 301.685839,434.888822 303.231801,438.712147 C304.685005,442.339669 309.075537,444.072017 313.229022,442.298447 C330.749924,434.8476 346.641383,424.603973 361.410473,412.722809 C381.229705,396.779233 397.823031,377.880051 411.479028,356.382862 C413.750561,352.816143 415.458334,348.860907 418.391539,345.425067 C418.405968,345.408578 418.429673,345.403426 418.449255,345.413731 C425.063911,348.837205 431.636311,352.236976 438.19222,355.626441 C441.819047,357.503066 446.279663,356.086065 448.163675,352.462665 C450.059024,348.814533 448.62231,344.284253 444.970748,342.395262" id="Fill-6"></path>
            </g>
        </g>
    </g>
</svg>