<?xml version="1.0" encoding="UTF-8"?>
<svg width="581px" height="352px" viewBox="0 0 581 352" version="1.1" xmlns="http://www.w3.org/2000/svg" xmlns:xlink="http://www.w3.org/1999/xlink">
    <!-- Generator: Sketch 52.4 (67378) - http://www.bohemiancoding.com/sketch -->
    <title>Group</title>
    <desc>Created with Sketch.</desc>
    <defs>
        <polygon id="path-1" points="0 0.872972973 87.9496558 0.872972973 87.9496558 113.794595 0 113.794595"></polygon>
        <polygon id="path-3" points="0.00891139241 0.763259649 78.5415696 0.763259649 78.5415696 116 0.00891139241 116"></polygon>
    </defs>
    <g id="Page-1" stroke="none" stroke-width="1" fill="none" fill-rule="evenodd">
        <g id="Banner" transform="translate(-430.000000, -128.000000)">
            <g id="Group" transform="translate(430.000000, 128.000000)">
                <g id="maze" fill="#1E1E24">
                    <path d="M194.80709,229.455498 C206.332603,217.598864 214.985943,203.982729 220.47052,188.426478 C226.54493,171.197369 228.40883,153.500392 225.945724,135.376204 C225.518581,132.235095 223.659368,130.25699 221.090481,130.359628 C218.314047,130.470263 216.483623,132.67697 216.656355,135.957372 C216.790926,138.529309 217.222756,141.083917 217.390132,143.655187 C218.279233,157.352632 216.527141,170.720837 212.119796,183.725146 C210.967579,187.126181 209.736361,190.514552 207.990964,193.835609 C199.947542,189.690786 192.082209,185.637936 184.221561,181.587753 C184.346089,181.001253 184.393624,180.620027 184.511457,180.261463 C184.690884,179.717617 184.910481,179.186434 185.126731,178.655918 C188.596101,170.154332 190.214962,161.26019 190.52829,152.141445 C190.793413,144.459625 189.732249,136.911101 187.671516,129.486542 C184.923871,119.590018 180.467652,110.487935 174.05849,102.52153 C165.35092,91.6979357 154.677016,83.2949877 141.4831,78.3010719 C131.019421,74.3408628 120.243753,72.5160474 109.068391,73.1098789 C106.133954,73.2658346 104.169629,75.3845665 104.251978,78.0991293 C104.331649,80.7303824 106.592565,82.6478381 109.644834,82.4019079 C116.523988,81.8473986 123.246478,82.8184563 129.875238,84.453992 C133.256903,85.2884218 136.74368,86.0248794 139.826077,88.1129534 C135.917512,95.6294864 132.097322,102.977401 128.245665,110.384631 C123.871126,108.853733 119.169199,108.012638 114.269098,108.012638 C100.518154,108.012638 88.3084086,114.57011 80.6144678,124.712564 C70.0891944,137.78552 68.6115989,156.438225 77.6170981,171.350659 C81.6247494,177.986775 86.9473068,183.075331 93.5050991,186.480364 C99.8760998,190.078676 107.27345,192.08344 115.158869,191.92082 C137.343556,191.46295 155.573482,173.626679 156.388938,151.552945 C156.964042,135.998027 149.022385,122.253929 136.847453,114.54745 C140.697771,107.142218 144.489173,99.8496218 148.283922,92.5523599 C150.522074,93.0668805 151.98561,94.4931423 153.583716,95.6681421 C162.385017,102.139638 169.299655,110.27133 174.11205,120.007233 C178.119032,128.114265 180.521212,136.737817 181.004594,145.860561 C181.99546,164.587912 176.518248,181.095226 164.064802,195.193224 C159.877724,199.933878 155.199899,204.178673 149.683855,207.429084 C146.700545,209.186585 146.069203,212.45899 148.133953,214.682358 C149.914164,216.600481 152.182444,216.863739 154.643541,215.349502 C161.81326,210.937422 167.838127,205.238373 173.271822,198.872846 C175.625129,196.116295 177.492376,192.999847 179.666925,190.05335 C187.737797,194.212169 195.620538,198.273683 203.647891,202.409842 C201.838222,205.361004 200.120274,208.09023 198.240976,210.737478 C185.849126,228.195189 169.417487,240.500363 149.46158,248.031559 C136.616475,252.878849 123.209656,254.976254 109.398456,254.576367 C95.8697875,254.184479 82.9242568,251.260642 70.6254671,245.846845 C50.7666375,237.105993 35.137065,223.38922 23.7347412,204.961118 C22.3274437,202.68643 21.147108,200.271116 19.7217338,198.007758 C18.1711624,195.545124 15.5065362,194.812665 13.2663756,196.056312 C11.0536647,197.283964 10.3446598,200.035849 11.6602353,202.579127 C16.2530332,211.453942 21.8648163,219.662945 28.643545,227.000195 C40.5741075,239.914529 54.6651596,249.762401 71.1664264,256.152587 C85.57951,261.733003 100.508112,264.396247 115.916078,263.952373 C131.624652,263.500501 146.687155,259.91152 160.964999,253.319391 C173.704991,247.437061 185.012915,239.531971 194.80709,229.455498" id="Fill-1"></path>
                    <path d="M262.38936,221.822664 C258.06485,219.586054 253.748352,217.352782 249.389118,215.101483 C249.375762,215.093471 249.369752,215.076113 249.377098,215.062092 C251.38109,210.978108 253.026488,207.020977 254.485576,202.983728 C259.186712,189.970662 262.30522,176.638461 263.49386,162.791506 C264.8234,147.295468 263.607382,132.025762 260.281862,116.923634 C258.205082,107.497156 255.073218,98.3570973 251.140024,89.4901055 C245.837891,77.5132238 239.080008,66.4236421 230.919798,56.2347134 C220.495832,43.2156381 208.095251,32.3397028 193.985167,23.4006053 C176.769929,12.4979642 158.092264,5.4402901 138.046328,2.0286247 C127.548238,0.240004037 116.937962,-0.401602703 106.312995,0.246680486 C99.5424252,0.653276225 92.7311209,1.0872454 86.1268267,2.86318082 C83.7896145,3.49076701 82.2937986,6.14799368 82.8607395,8.45804501 C83.4216705,10.7287053 85.746195,12.1701506 88.1695503,11.7368491 C103.842228,8.95276987 119.534939,8.68571191 135.295095,11.0558513 C147.60152,12.8985512 159.294259,16.6901065 170.713878,21.4844645 C171.890497,21.9758511 173.238735,22.3156824 174.120198,23.5181108 C174.127543,23.5274579 174.128879,23.5408108 174.123537,23.5508254 C170.110209,31.3095267 166.123593,39.0088076 162.063521,46.8402822 C162.056844,46.8522998 162.041485,46.8583086 162.027462,46.8549704 C161.436481,46.7000767 161.154012,46.6660269 160.903596,46.5612066 C145.471318,39.6570908 129.277775,36.2661224 112.389747,36.453063 C99.2686375,36.5999448 86.5067907,39.0829162 74.2130541,43.6302455 C64.0294863,47.3957627 54.5938264,52.5760194 45.7992305,59.0321455 C33.8928034,67.7722848 24.2240901,78.5013382 16.5039441,90.9656007 C9.27928703,102.630025 4.54409495,115.315278 1.96047372,128.81439 C-0.410795078,141.152467 -0.543682291,153.517251 1.09169853,165.935446 C1.43960927,168.573311 3.5357548,170.415343 5.94041234,170.295834 C8.38380084,170.175658 10.2468929,168.159371 10.3003149,165.468094 C10.3203482,164.326421 10.2275274,163.171396 10.0872947,162.037067 C8.2168571,146.974998 9.78011823,132.252761 14.4879315,117.85166 C15.7193085,114.082137 17.0187985,110.325967 18.8939106,106.709335 C18.9019239,106.694647 18.9199538,106.688638 18.9353126,106.695982 C27.0307482,110.886789 34.8677548,114.944067 42.8376487,119.068109 C42.8510042,119.074786 42.8570142,119.091477 42.851672,119.105498 C42.1471694,120.952203 41.4500124,122.613304 40.8710515,124.315131 C37.0520466,135.598329 35.522842,147.115204 36.8517142,159.052027 C37.8800876,168.319605 40.4637088,177.07243 44.6373021,185.317844 C51.0813303,198.042488 60.3834352,208.277485 72.4634838,215.955401 C86.15287,224.668834 101.171128,228.25342 117.27786,227.686589 C120.470492,227.579766 122.479827,225.50339 122.393016,222.692605 C122.306873,219.915203 120.083182,218.24609 116.764341,218.366267 C100.817875,218.940441 86.2330029,214.887837 73.4250797,205.227015 C54.9751259,191.313296 45.5254428,172.585189 45.7458085,149.605519 C45.972852,126.337427 56.2171873,107.871037 75.1612945,94.2978164 C76.0961794,93.6301715 77.1579416,93.1354466 78.0333945,92.4083813 C80.717182,90.1717709 80.2964838,86.4456448 77.2447523,84.7765326 C75.195351,83.6555568 73.4190697,84.2697901 71.6220873,85.4441774 C63.8498548,90.5189463 57.2649262,96.8341993 51.5694738,104.138234 C49.9574651,106.215945 48.9170717,108.724287 47.043963,110.440135 C47.0346142,110.448814 47.0199231,110.450817 47.0092387,110.444808 C39.0219827,106.312086 31.2410691,102.28552 23.5269331,98.2930034 C23.5162487,98.2869946 23.5095709,98.274977 23.5102387,98.2622917 C23.5696707,97.1473247 24.1793492,96.5097239 24.630765,95.8000174 C27.0414326,92.0077944 29.6591103,88.3624533 32.4504096,84.8165912 C44.317438,69.7545225 59.4826068,59.1857039 77.2587756,52.4431581 C90.3531743,47.4825566 104.01585,45.3721311 118.092545,45.9069146 C131.4821,46.4136571 144.276,49.4047062 156.436182,54.8533562 C176.022021,63.6188659 191.427589,77.2922333 202.706307,95.5663416 C204.061891,97.7628933 205.177075,100.105659 206.546013,102.296202 C208.229474,104.993488 210.833128,105.793994 213.14363,104.498763 C215.514231,103.170817 216.035095,100.339335 214.452469,97.4691296 C211.627781,92.3609785 208.649504,87.3743388 205.210463,82.6273836 C198.232215,72.9865914 189.798886,64.8813824 180.256382,57.884464 C177.12385,55.5857626 173.826377,53.50004 170.541592,51.2694384 C170.528904,51.260759 170.525565,51.2440679 170.531575,51.230715 C174.597657,43.3805463 178.610984,35.6225127 182.603611,27.9185583 C182.608953,27.907876 182.622308,27.9005319 182.634328,27.9018672 C184.044669,28.0280521 184.941491,28.7711408 185.898412,29.3620066 C198.42587,37.094002 209.737977,46.2200401 219.534236,57.3169658 C230.099103,69.2804946 238.325423,82.6607659 244.422208,97.2888655 C247.907993,105.653788 250.532348,114.387251 252.162387,123.367075 C254.946341,138.728916 255.493916,154.118131 253.383747,169.628189 C251.707632,181.94557 248.30198,193.742855 243.560778,205.200309 C237.79788,219.120705 229.771226,231.6524 220.0551,243.10251 C215.90154,247.989003 211.200405,252.342047 206.419804,256.622319 C196.562778,265.447917 185.451003,272.311974 173.618031,278.080426 C170.820054,279.449098 169.55195,281.745128 170.553612,284.222091 C171.495175,286.572201 174.339896,287.694512 177.031029,286.545495 C188.383203,281.718423 198.679625,275.082032 208.248839,267.384754 C221.090151,257.05562 231.841328,244.811681 240.689346,230.884608 C242.161122,228.573889 243.267625,226.011468 245.168112,223.78554 C245.177461,223.774858 245.19282,223.77152 245.205508,223.778196 C249.491287,225.996112 253.749688,228.198673 257.997404,230.394557 C260.347304,231.610338 263.237434,230.692327 264.458127,228.344887 C265.686165,225.981424 264.755287,223.046457 262.38936,221.822664" id="Fill-6"></path>
                </g>
                <g id="title" transform="translate(69.000000, 101.000000)">
                    <path d="M97.0487805,103.638411 C94.3475172,100.361731 93,97.415894 93,94.8039735 C93,92.192053 95.2309819,88.7350993 99.69606,84.4331126 C102.289356,81.9748344 105.041488,80.7456954 107.949343,80.7456954 C110.854084,80.7456954 114.902864,83.307426 120.094647,88.4278146 C121.548055,90.1711435 123.623315,91.8345784 126.32354,93.4211921 C129.022727,95.0108786 131.514284,95.802649 133.798211,95.802649 C143.452996,95.802649 148.281426,91.9113996 148.281426,84.1258278 C148.281426,81.7710022 146.956748,79.8002826 144.309468,78.210596 C141.663227,76.6239823 138.366066,75.4716645 134.422139,74.7536424 C130.475097,74.0386932 126.219725,72.8863753 121.65187,71.2966887 C117.082977,69.7100751 112.827605,67.8397351 108.882639,65.6887417 C104.936635,63.5377483 101.642589,60.1330331 98.9953096,55.4715232 C96.3469919,50.8120618 95.0243902,45.2041148 95.0243902,38.6476821 C95.0243902,29.6350199 98.4232896,21.7736512 105.224203,15.0635762 C112.022001,8.35657395 121.28748,5 133.0196,5 C139.248493,5 144.933396,5.79484327 150.071194,7.38145695 C155.210031,8.97114349 158.765691,10.5833642 160.739212,12.2211921 L164.63227,15.1403974 C167.848455,18.1118411 169.459662,20.6213333 169.459662,22.6688742 C169.459662,24.7194879 168.213884,27.5352406 165.721288,31.1192053 C162.191582,36.2426667 158.559099,38.8013245 154.820725,38.8013245 C152.641651,38.8013245 149.940388,37.7790905 146.724203,35.7284768 C146.412758,35.5246446 145.813746,35.0125033 144.933396,34.192053 C144.048893,33.3736512 143.244328,32.7078675 142.5197,32.194702 C140.338549,30.8651832 137.560463,30.197351 134.187517,30.197351 C130.812495,30.197351 128.010532,30.9921943 125.77955,32.5788079 C123.545453,34.1684945 122.430482,36.3696777 122.430482,39.1854305 C122.430482,42.0042561 123.755159,44.2822605 126.401401,46.0225166 C129.04868,47.7658455 132.343765,48.9417219 136.290807,49.5562914 C140.234734,50.1708609 144.54409,51.1193466 149.21576,52.3986755 C153.88743,53.6810773 158.193671,55.2410596 162.139675,57.0847682 C166.08464,58.9284768 169.381801,62.1314084 172.029081,66.6874172 C174.675322,71.2464989 176,76.8544459 176,83.5112583 C176,90.1711435 174.649368,96.0331126 171.950181,101.103311 C169.249956,106.17351 165.721288,110.091391 161.361063,112.856954 C152.953096,118.2877 143.97207,121 134.422139,121 C129.540763,121 124.923077,120.408989 120.561814,119.233113 C116.201588,118.057236 112.671882,116.596609 109.972695,114.854305 C104.469468,111.577625 100.629356,108.401325 98.4502814,105.328477 L97.0487805,103.638411 Z" id="Fill-1" fill="#04E762"></path>
                    <path d="M186,13.4983243 C186,11.1473662 186.075368,9.3833806 186.226103,8.20636762 C186.376838,7.03242245 186.802917,5.67543181 187.507353,4.14153132 C188.913211,1.38051044 192.832328,0 199.264706,0 C205.393603,0 209.213235,1.38051044 210.720588,4.14153132 C211.523505,5.67543181 212.001838,7.05594225 212.152574,8.28306265 C212.303309,9.51018304 212.378676,11.3007562 212.378676,13.6517144 L212.378676,84.671307 C212.378676,88.3526682 212.680147,90.6801066 213.283088,91.6505543 C213.886029,92.6240698 215.21652,93.1077597 217.277574,93.1077597 C219.336618,93.1077597 220.718358,93.1844548 221.422794,93.3378448 C222.124216,93.4912349 222.979387,93.9278852 223.985294,94.6416602 C225.994093,95.9720632 227,99.603317 227,105.532354 C227,111.974736 225.994093,115.91277 223.985294,117.343387 C221.370539,119.184068 215.141152,119.490848 205.294118,118.263728 C197.554363,117.243173 192.530858,114.635542 190.220588,110.440835 C187.405858,105.432139 186,97.4558563 186,86.5119876 L186,13.4983243 Z" id="Fill-3" fill="#04E762"></path>
                    <path d="M235,51.4178525 C235,49.0583786 235.074286,47.2880034 235.222857,46.106727 C235.371429,44.9285295 235.79139,43.5666235 236.485714,42.0271669 C237.87139,39.3598016 241.734248,38.0245796 248.074286,38.0245796 C252.828571,38.0245796 256.19421,38.8979646 258.177143,40.6416559 C259.860952,42.0795084 260.75139,44.286063 260.851429,47.2613195 C260.948495,48.2886503 261,49.7767917 261,51.7257439 L261,105.606727 C261,107.96928 260.925714,109.739655 260.777143,110.917853 C260.628571,112.099129 260.157105,113.457956 259.365714,114.997413 C258.077105,117.667857 254.262781,119 247.925714,119 C241.685714,119 237.87139,117.614489 236.485714,114.843467 C235.79139,113.30401 235.371429,111.971867 235.222857,110.84088 C235.074286,109.712971 235,107.915912 235,105.452781 L235,51.4178525 Z M259.44,22.8609314 C258.697143,24.3500992 257.383771,25.4010349 255.502857,26.0168176 C253.619962,26.6326003 251.12,26.9404916 248,26.9404916 C244.88,26.9404916 242.377067,26.6326003 240.497143,26.0168176 C238.614248,25.4010349 237.302857,24.3234153 236.56,22.7839586 C235.817143,21.2445019 235.371429,19.8856749 235.222857,18.7043984 C235.074286,17.5262009 235,15.7558258 235,13.393273 C235,11.0337991 235.074286,9.26342389 235.222857,8.08214748 C235.371429,6.90394998 235.79139,5.59541182 236.485714,4.15653299 C237.87139,1.385511 241.734248,0 248.074286,0 C254.314286,0 258.077105,1.385511 259.365714,4.15653299 C260.157105,5.69598965 260.628571,7.05789564 260.777143,8.23609314 C260.925714,9.41736956 261,11.1877447 261,13.5472186 C261,15.9087451 260.925714,17.6801466 260.777143,18.8583441 C260.628571,20.0396205 260.182857,21.3748426 259.44,22.8609314 Z" id="Fill-5" fill="#04E762"></path>
                    <path d="M300.547112,49.7575758 C305.382184,42.5868687 311.197854,39 317.987946,39 C328.483316,39 336.302367,43.3939394 341.448185,52.1818182 C342.580038,50.6666667 343.942378,49.0757576 345.539321,47.4090909 C347.132148,45.7424242 349.678818,43.9242424 353.178304,41.9545455 C356.675731,39.9848485 360.278113,39 363.982361,39 C372.212994,39 379.10907,42.1060606 384.664413,48.3181818 C390.220785,54.530303 393,64.810101 393,79.1515152 L393,105.666667 C393,107.991919 392.921799,109.734343 392.767456,110.893939 C392.614141,112.056566 392.123328,113.393939 391.301191,114.909091 C389.962517,117.636364 386.001029,119 379.416728,119 C372.935323,119 368.971777,117.586869 367.533294,114.757576 C366.810966,113.242424 366.375717,111.905051 366.220344,110.742424 C366.066,109.582828 365.989857,107.840404 365.989857,105.515152 L365.989857,79 C365.989857,70.2121212 362.79803,65.8181818 356.419521,65.8181818 C352.817139,65.8181818 350.374394,66.9808081 349.088196,69.3030303 C347.80097,71.6282828 347.1589,74.9090909 347.1589,79.1515152 L347.1589,105.666667 C347.1589,108.090909 347.082758,109.859596 346.927385,110.969697 C346.773041,112.082828 346.283257,113.393939 345.46112,114.909091 C344.01955,117.636364 340.006615,119 333.422314,119 C326.939879,119 322.978392,117.586869 321.537851,114.757576 C320.816552,113.242424 320.380273,111.905051 320.22593,110.742424 C320.072615,109.582828 319.994414,107.840404 319.994414,105.515152 L319.994414,79 C319.994414,70.2121212 316.804645,65.8181818 310.426136,65.8181818 C304.252389,65.8181818 301.165515,70.2121212 301.165515,79 L301.165515,105.818182 C301.165515,108.143434 301.087314,109.885859 300.932971,111.045455 C300.779656,112.208081 300.288843,113.545455 299.466706,115.060606 C297.923269,117.688889 293.910334,119 287.427899,119 C280.945465,119 276.983978,117.636364 275.543437,114.909091 C274.822137,113.393939 274.385859,112.082828 274.231516,110.969697 C274.077172,109.859596 274,108.090909 274,105.666667 L274,52.3333333 C274,50.0111111 274.077172,48.2686869 274.231516,47.1060606 C274.385859,45.9464646 274.873585,44.6585859 275.698809,43.2424242 C277.242246,40.5151515 280.891959,39.1515152 286.656181,39.1515152 C292.418345,39.1515152 296.173012,40.0606061 297.923269,41.8787879 C299.671468,43.6969697 300.547112,46.3252525 300.547112,49.7575758" id="Fill-7" fill="#04E762"></path>
                    <path d="M476.954704,38.6136951 C482.983879,41.2806891 486,44.5093712 486,48.2997416 C486,50.1447028 485.590151,51.8892162 484.773519,53.5271318 C483.954843,55.1681223 483.547038,56.040379 483.547038,56.1408269 L443.379791,146.236434 C442.561115,148.181843 441.87122,149.669087 441.310105,150.69509 C440.746945,151.719044 439.853659,152.693798 438.627178,153.616279 C437.400697,154.53876 435.867596,155 434.027875,155 C432.188153,155 429.478653,154.231266 425.902439,152.693798 C419.870197,150.026804 416.857143,146.851421 416.857143,143.161499 C416.857143,140.70155 421.763066,128.963497 431.574913,107.953488 L401.066202,56.4483204 C399.020023,53.0658915 398,50.5557192 398,48.9147287 C398,45.6358226 400.759582,42.3569165 406.278746,39.0749354 C409.751731,37.0260034 412.461231,36 414.404181,36 C416.344065,36 417.930314,36.4110164 419.156794,37.2299742 C420.383275,38.0520069 421.276562,38.8976141 421.839721,39.7667959 C422.399814,40.6390525 425.212544,45.4052024 430.271777,54.0652455 C435.33101,62.7283635 440.160279,70.8000689 444.759582,78.2803618 C445.269593,76.6424462 448.029175,70.3121792 453.038328,59.2926357 C458.044413,48.2761671 460.72734,42.4071404 461.087108,41.6886305 C461.44381,40.9731955 462.030476,40.1009388 462.850174,39.0749354 C464.176818,37.333497 466.043113,36.4612403 468.445993,36.4612403 C470.845807,36.4612403 473.683066,37.1797502 476.954704,38.6136951" id="Fill-9" fill="#04E762"></path>
                    <g id="Group-13" transform="translate(0.000000, 101.000000)">
                        <mask id="mask-2" fill="white">
                            <use xlink:href="#path-1"></use>
                        </mask>
                        <g id="Clip-12"></g>
                        <path d="M27.1682605,86.527027 L74.4416558,86.527027 C76.7941209,86.527027 78.5612837,86.6040541 79.7380279,86.7581081 C80.9127256,86.9121622 82.270586,87.401027 83.8054698,88.2216216 C86.5672372,89.6615135 87.9496558,93.6669189 87.9496558,100.237838 C87.9496558,107.428054 86.0556093,111.637838 82.270586,112.87027 C80.5290047,113.486486 77.8695628,113.794595 74.2881674,113.794595 L13.5077953,113.794595 C6.34295814,113.794595 2.14863256,111.845297 0.921748837,107.940541 C0.307795349,106.299351 -0.000204651163,103.680432 -0.000204651163,100.083784 L-0.000204651163,14.4297297 C-0.000204651163,9.19189189 0.970865116,5.62502703 2.91607442,3.72297297 C4.85821395,1.824 8.5439814,0.872972973 13.9682605,0.872972973 L74.4416558,0.872972973 C76.7941209,0.872972973 78.5612837,0.95 79.7380279,1.10405405 C80.9127256,1.25810811 82.270586,1.74697297 83.8054698,2.56756757 C86.5672372,4.00745946 87.9496558,8.01286486 87.9496558,14.5837838 C87.9496558,21.774 86.0556093,25.9837838 82.270586,27.2162162 C80.5290047,27.8324324 77.8695628,28.1405405 74.2881674,28.1405405 L27.1682605,28.1405405 L27.1682605,43.7 L57.5579349,43.7 C59.9104,43.7 61.6775628,43.777027 62.854307,43.9310811 C64.0290047,44.0851351 65.3868651,44.574 66.9217488,45.3945946 C69.6835163,46.8344865 71.0659349,50.8398919 71.0659349,57.4108108 C71.0659349,64.601027 69.1197023,68.8108108 65.2323535,70.0432432 C63.4917953,70.6594595 60.8313302,70.9675676 57.2519814,70.9675676 L27.1682605,70.9675676 L27.1682605,86.527027 Z" id="Fill-11" fill="#65FF00" mask="url(#mask-2)"></path>
                    </g>
                    <path d="M98.8997722,206.487179 C96.9665907,205.271062 96,203.34757 96,200.710623 C96,198.076716 97.932164,194.074676 101.799544,188.701465 C102.917737,186.979646 104.722718,186.117216 107.218557,186.117216 C109.710326,186.117216 113.092377,187.359683 117.366743,189.841575 C121.640091,192.326508 125.504419,193.565934 128.966849,193.565934 C135.170326,193.565934 138.274609,192.349817 138.274609,189.917582 C138.274609,187.99409 134.865087,186.57326 128.050114,185.661172 C121.640091,184.749084 115.280942,182.369548 108.972665,178.516484 C106.019985,176.692308 103.578071,173.830379 101.645907,169.927656 C99.7127259,166.027973 98.7471526,161.391526 98.7471526,156.018315 C98.7471526,140.007118 109.785619,132 131.865604,132 C139.089598,132 146.518102,133.72486 154.149081,137.168498 C157.70817,138.791001 159.490767,140.81685 159.490767,143.249084 C159.490767,145.681319 158.369522,148.671954 156.132118,152.217949 C153.89268,155.766984 151.603386,157.538462 149.264237,157.538462 C148.044298,157.538462 145.778405,156.778388 142.471648,155.258242 C139.16489,153.738095 135.57833,152.978022 131.712984,152.978022 C125.707912,152.978022 122.708428,154.094823 122.708428,156.322344 C122.708428,159.362637 126.166788,161.338828 133.08656,162.250916 C139.800805,162.961331 146.311557,164.887863 152.622885,168.027473 C155.571496,169.448303 158.039863,171.903846 160.022901,175.400183 C162.007973,178.89652 163,183.281636 163,188.549451 C163,193.820305 162.007973,198.304737 160.022901,202.002747 C158.039863,205.703797 155.265239,208.46337 151.70615,210.287546 C145.194381,213.430195 137.029233,215 127.209689,215 C117.391162,215 107.953166,212.16442 98.8997722,206.487179" id="Fill-14" fill="#65FF00"></path>
                    <path d="M198.752002,173.577138 C198.752002,177.950322 200.188939,181.344374 203.067952,183.759294 C205.94491,186.177299 209.004825,187.384758 212.242559,187.384758 C215.480292,187.384758 218.5104,186.435452 221.339048,184.530669 C224.165641,182.628971 226.449528,181.67658 228.19996,181.67658 C231.283516,181.67658 235.034148,184.403135 239.454939,189.85316 C241.816942,192.837869 243,195.510942 243,197.875465 C243,201.785824 240.173407,205.434944 234.520222,208.828996 C228.662493,212.944027 221.46753,215 212.935331,215 C203.377336,215 194.177033,211.555551 185.337507,204.663569 C181.122286,201.373395 177.678982,196.976555 175.008623,191.473048 C172.33518,185.972627 171,179.902416 171,173.268587 C171,166.634758 172.33518,160.61803 175.008623,155.218401 C177.678982,149.818773 181.122286,145.475415 185.337507,142.182156 C193.86765,135.394052 202.966195,132 212.628003,132 C216.532813,132 220.336893,132.539963 224.03716,133.619888 C227.736399,134.699814 230.459179,135.756084 232.207555,136.782528 L234.674399,138.325279 C236.525561,139.55948 237.962498,140.538612 238.992405,141.256506 C241.662765,143.315564 243,145.653346 243,148.276022 C243,150.898699 241.921783,153.856667 239.763294,157.14684 C236.061999,162.804622 232.516938,165.63197 229.123999,165.63197 C227.170052,165.63197 224.39588,164.501648 220.798398,162.237918 C218.949293,160.490496 216.301546,159.615242 212.85927,159.615242 C209.41391,159.615242 206.201873,160.849442 203.223158,163.317844 C200.239304,165.786245 198.752002,169.207038 198.752002,173.577138" id="Fill-16" fill="#65FF00"></path>
                    <path d="M278.354049,175.228571 C278.354049,178.580952 279.707684,181.60419 282.418079,184.295238 C285.127433,186.988317 288.409918,188.333333 292.265537,188.333333 C296.120113,188.333333 299.323402,186.961905 301.879573,184.219048 C304.431576,181.47619 305.708098,178.454984 305.708098,175.152381 C305.708098,171.852825 304.482637,168.778794 302.03484,165.933333 C299.586001,163.090921 296.303515,161.666667 292.187382,161.666667 C288.070207,161.666667 284.73666,163.090921 282.184658,165.933333 C279.630571,168.778794 278.354049,171.87619 278.354049,175.228571 M306.803302,143.533333 C307.427495,137.84546 311.543628,135 319.150659,135 C323.215731,135 326.235618,135.304762 328.216573,135.914286 C330.194401,136.52381 331.578255,137.590476 332.359799,139.114286 C333.141343,140.638095 333.609228,141.985143 333.766579,143.152381 C333.922888,144.321651 334,146.074032 334,148.409524 L334,201.742857 C334,204.080381 333.922888,205.832762 333.766579,207 C333.609228,208.16927 333.166353,209.514286 332.436911,211.038095 C330.975945,213.681397 327.407935,215 321.729755,215 C316.049492,215 312.247018,214.314286 310.320251,212.942857 C308.390358,211.571429 307.271186,209.567111 306.959611,206.92381 C303.10295,212.308952 296.667194,215 287.655468,215 C278.640615,215 270.278092,210.988317 262.566855,202.961905 C254.854576,194.937524 251,185.616889 251,175 C251,164.386159 254.88167,155.090921 262.646051,147.114286 C270.406265,139.140698 278.926139,135.152381 288.202549,135.152381 C291.744507,135.152381 294.973848,135.761905 297.892655,136.980952 C300.809379,138.2 302.840352,139.342857 303.988701,140.409524 C305.133923,141.47619 306.072819,142.519492 306.803302,143.533333" id="Fill-18" fill="#65FF00"></path>
                    <g id="Group-22" transform="translate(345.000000, 135.000000)">
                        <mask id="mask-4" fill="white">
                            <use xlink:href="#path-3"></use>
                        </mask>
                        <g id="Clip-21"></g>
                        <path d="M30.0858734,31.1369439 C27.7537215,33.8843123 26.5911899,36.8870842 26.5911899,40.142207 C26.5911899,43.4003825 27.7800506,46.3766982 30.1608101,49.0711544 C32.5385316,51.7686632 35.5765063,53.1158912 39.2747342,53.1158912 C42.9699241,53.1158912 46.1101772,51.7951193 48.6934684,49.1474702 C51.2747342,46.5028737 52.5658734,43.5001018 52.5658734,40.142207 C52.5658734,36.7843123 51.3516962,33.7581368 48.9213165,31.0606281 C46.4899241,28.3651544 43.3233418,27.0158912 39.4276456,27.0158912 C35.5268861,27.0158912 32.4139747,28.3895754 30.0858734,31.1369439 M0.00891139241,103.026418 L0.00891139241,13.8895754 C0.00891139241,11.5502421 0.0858734177,9.82143509 0.235746835,8.70010175 C0.388658228,7.58182105 0.818025316,6.31090877 1.52789873,4.88431228 C2.94562025,2.13694386 6.336,0.763259649 11.7061266,0.763259649 C17.0711899,0.763259649 20.691443,1.45010175 22.5658734,2.82378596 C24.4392911,4.19747018 25.5289114,6.20813684 25.8316962,8.85273333 C29.6787848,3.56252281 35.7284051,0.915891228 43.9846076,0.915891228 C52.2357468,0.915891228 60.0585316,4.83445263 67.4509367,12.6685228 C74.8423291,20.5056456 78.5415696,29.6106281 78.5415696,39.9895754 C78.5415696,50.3685228 74.8686582,59.4765579 67.5289114,67.3106281 C60.1851139,75.1467333 52.3623291,79.0632596 44.0595443,79.0632596 C35.7547342,79.0632596 29.7294177,76.7239263 25.9835949,72.042207 L25.9835949,102.873786 C25.9835949,105.213119 25.9086582,106.941926 25.7567595,108.06326 C25.6038481,109.18154 25.1491646,110.478909 24.3896709,111.955365 C23.6301772,113.428768 22.339038,114.473786 20.5152405,115.084312 C18.6934684,115.694839 16.2094177,116.000102 13.0722025,116.000102 C9.93194937,116.000102 7.42562025,115.694839 5.55220253,115.084312 C3.67777215,114.473786 2.36435443,113.455225 1.60486076,112.031681 C0.845367089,110.605084 0.388658228,109.334172 0.235746835,108.215891 C0.0858734177,107.094558 0.00891139241,105.365751 0.00891139241,103.026418" id="Fill-20" fill="#65FF00" mask="url(#mask-4)"></path>
                    </g>
                    <path d="M479.724254,169.177858 C483.600403,169.177858 485.537967,167.534422 485.537967,164.241379 C485.537967,161.877011 484.643628,159.975439 482.861069,158.533575 C481.074431,157.094797 478.525004,156.373866 475.212788,156.373866 C471.896493,156.373866 468.608752,157.738596 465.345486,160.461887 C462.081199,163.188264 460.452625,166.092559 460.452625,169.177858 L479.724254,169.177858 Z M512,164.627042 C512,170.951906 510.44485,175.633333 507.335568,178.665154 C504.222208,181.70006 500.780482,183.215971 497.010389,183.215971 L460.756517,183.215971 C460.756517,186.096612 462.440159,188.514459 465.806422,190.466425 C469.169626,192.421476 472.53589,193.397459 475.900113,193.397459 C481.813764,193.397459 486.456781,192.780399 489.819985,191.546279 L491.503627,190.92922 C493.951076,189.798972 495.988579,189.232305 497.622251,189.232305 C500.884498,189.232305 503.688868,191.546279 506.035361,196.174229 C507.360043,198.950998 508.022894,201.318451 508.022894,203.270417 C508.022894,212.425529 497.164374,217 475.442236,217 C467.892873,217 461.1889,215.688748 455.327257,213.066243 C449.461536,210.443739 444.899081,206.972777 441.635814,202.653358 C435.213298,194.323049 432,185.016757 432,174.731397 C432,161.77314 436.152507,151.413733 444.466698,143.647005 C452.775791,135.883364 463.152978,132 475.595202,132 C489.768996,132 500.169639,137.040351 506.800189,147.117967 C510.26537,152.466848 512,158.302178 512,164.627042 Z" id="Fill-23" fill="#65FF00"></path>
                    <path d="M43.9406361,39.5839397 L36.0385279,55.8106728 L51.9625045,55.8106728 L43.9406361,39.5839397 Z M53.6381149,11.1585599 L85.9640766,77.2481808 C87.3206706,79.9332312 88,81.946253 88,83.2882676 C88,86.1306013 85.684292,88.6971786 81.0549409,90.9869782 C78.3407206,92.3279714 76.2067177,93 74.6498352,93 C73.0929526,93 71.8158546,92.6445806 70.8185412,91.9337419 C69.819163,91.2239244 69.1016343,90.4742755 68.6628577,89.6837738 C68.2240811,88.8953147 67.6046318,87.7116047 66.807607,86.1306013 L60.5821416,73.3395889 L27.4178584,73.3395889 L21.192393,86.1306013 C20.3933034,87.7116047 19.7748865,88.8544619 19.3361099,89.5653007 C18.8963009,90.2761394 18.1787721,91.0074046 17.1814588,91.7560322 C16.1820806,92.5056811 14.9070474,92.8815269 13.3501648,92.8815269 C11.7932823,92.8815269 9.65721459,92.2094983 6.94505907,90.868505 C2.31467555,88.6583684 0,86.1306013 0,83.2882676 C0,81.946253 0.678296984,79.9332312 2.03592337,77.2481808 L34.3629175,11.0400868 C35.2394383,9.22417975 36.5764163,7.76471339 38.3728193,6.65760245 C40.1692223,5.55253415 42.0647371,5 44.0593639,5 C48.3696986,5 51.5619273,7.05387463 53.6381149,11.1585599 Z" id="Fill-25" fill="#FFFFFF"></path>
                </g>
            </g>
        </g>
    </g>
</svg>