<?xml version="1.0" encoding="utf-8"?>
<!-- Generator: Adobe Illustrator 23.0.1, SVG Export Plug-In . SVG Version: 6.00 Build 0)  -->
<svg version="1.1" xmlns="http://www.w3.org/2000/svg" xmlns:xlink="http://www.w3.org/1999/xlink" x="0px" y="0px"
	 viewBox="0 0 499.5 244.1" enable-background="new 0 0 499.5 244.1" xml:space="preserve">
<g id="Calque_1">
	<g>
		<path fill="#04E762" d="M95.3,100.8c-2.6-3.2-3.9-6.1-3.9-8.6c0-2.6,2.1-5.9,6.5-10.1c2.5-2.4,5.1-3.6,8-3.6
			c2.8,0,6.7,2.5,11.7,7.5c1.4,1.7,3.4,3.3,6,4.9c2.6,1.6,5,2.3,7.2,2.3c9.3,0,14-3.8,14-11.4c0-2.3-1.3-4.2-3.8-5.8
			c-2.5-1.5-5.7-2.7-9.5-3.4c-3.8-0.7-7.9-1.8-12.3-3.4c-4.4-1.5-8.5-3.4-12.3-5.5c-3.8-2.1-7-5.4-9.5-10c-2.6-4.5-3.8-10-3.8-16.4
			c0-8.8,3.3-16.5,9.8-23c6.5-6.5,15.5-9.8,26.8-9.8c6,0,11.5,0.8,16.4,2.3c5,1.6,8.4,3.1,10.3,4.7l3.8,2.8c3.1,2.9,4.7,5.4,4.7,7.3
			c0,2-1.2,4.8-3.6,8.2c-3.4,5-6.9,7.5-10.5,7.5c-2.1,0-4.7-1-7.8-3c-0.3-0.2-0.9-0.7-1.7-1.5c-0.9-0.8-1.6-1.4-2.3-1.9
			c-2.1-1.3-4.8-2-8-2c-3.3,0-6,0.8-8.1,2.3c-2.2,1.6-3.2,3.7-3.2,6.4c0,2.8,1.3,5,3.8,6.7c2.5,1.7,5.7,2.8,9.5,3.4
			c3.8,0.6,8,1.5,12.5,2.8c4.5,1.3,8.6,2.8,12.4,4.6c3.8,1.8,7,4.9,9.5,9.4c2.5,4.5,3.8,9.9,3.8,16.4c0,6.5-1.3,12.2-3.9,17.2
			c-2.6,5-6,8.8-10.2,11.5c-8.1,5.3-16.8,7.9-25.9,7.9c-4.7,0-9.2-0.6-13.4-1.7s-7.6-2.6-10.2-4.3c-5.3-3.2-9-6.3-11.1-9.3
			L95.3,100.8z"/>
		<path fill="#04E762" d="M181.1,13.2c0-2.3,0.1-4,0.2-5.2c0.2-1.1,0.6-2.5,1.3-4c1.4-2.7,5.3-4,11.7-4c6.1,0,9.9,1.3,11.4,4
			c0.8,1.5,1.3,2.9,1.4,4c0.1,1.2,0.2,3,0.2,5.2v69.5c0,3.6,0.3,5.9,0.9,6.8c0.6,1,1.9,1.4,4,1.4c2,0,3.4,0.1,4.1,0.2
			c0.7,0.2,1.5,0.6,2.5,1.3c2,1.3,3,4.9,3,10.6c0,6.3-1,10.2-3,11.6c-2.6,1.8-8.8,2.1-18.6,0.9c-7.7-1-12.7-3.5-15-7.7
			c-2.8-4.9-4.2-12.7-4.2-23.4V13.2z"/>
		<path fill="#04E762" d="M254.8,22.6c-0.8,1.5-2.1,2.5-4,3.1c-1.9,0.6-4.4,0.9-7.6,0.9s-5.7-0.3-7.6-0.9c-1.9-0.6-3.2-1.7-4-3.2
			s-1.2-2.8-1.4-4c-0.1-1.1-0.2-2.9-0.2-5.2c0-2.3,0.1-4,0.2-5.2c0.2-1.1,0.6-2.4,1.3-3.8c1.4-2.7,5.3-4,11.7-4
			c6.3,0,10.1,1.4,11.4,4c0.8,1.5,1.3,2.8,1.4,4c0.1,1.2,0.2,2.9,0.2,5.2c0,2.3-0.1,4-0.2,5.2C256,19.8,255.6,21.1,254.8,22.6z
			 M230.1,50.4c0-2.3,0.1-4,0.2-5.2c0.2-1.1,0.6-2.5,1.3-4c1.4-2.6,5.3-3.9,11.7-3.9c4.8,0,8.2,0.9,10.2,2.6
			c1.7,1.4,2.6,3.6,2.7,6.4c0.1,1,0.2,2.5,0.2,4.3v52.5c0,2.3-0.1,4-0.2,5.2c-0.2,1.2-0.6,2.5-1.4,4c-1.3,2.6-5.2,3.9-11.5,3.9
			c-6.3,0-10.2-1.3-11.5-4.1c-0.7-1.5-1.1-2.8-1.3-3.9c-0.1-1.1-0.2-2.9-0.2-5.2V50.4z"/>
		<path fill="#04E762" d="M294.2,47.7c4.7-7.1,10.4-10.6,17-10.6c10.2,0,17.8,4.3,22.8,13c1.1-1.5,2.4-3.1,4-4.7
			c1.5-1.7,4-3.4,7.4-5.4c3.4-1.9,6.9-2.9,10.5-2.9c8,0,14.7,3.1,20.1,9.2c5.4,6.2,8.1,16.3,8.1,30.5v26.2c0,2.3-0.1,4-0.2,5.2
			c-0.1,1.2-0.6,2.5-1.4,4c-1.3,2.7-5.2,4.1-11.5,4.1c-6.3,0-10.2-1.4-11.5-4.2c-0.7-1.5-1.1-2.8-1.3-4c-0.2-1.1-0.2-2.9-0.2-5.2
			V76.7c0-8.7-3.1-13.1-9.3-13.1c-3.5,0-5.9,1.2-7.1,3.5c-1.3,2.3-1.9,5.5-1.9,9.8v26.2c0,2.4-0.1,4.2-0.2,5.2
			c-0.2,1.1-0.6,2.4-1.4,3.9c-1.4,2.7-5.3,4.1-11.7,4.1c-6.3,0-10.2-1.4-11.5-4.2c-0.7-1.5-1.1-2.8-1.3-4c-0.1-1.1-0.2-2.9-0.2-5.2
			V76.7c0-8.7-3.1-13.1-9.3-13.1c-6,0-9,4.3-9,13.1v26.5c0,2.3-0.1,4-0.2,5.2c-0.1,1.2-0.6,2.5-1.4,4c-1.5,2.6-5.4,3.9-11.7,3.9
			s-10.2-1.3-11.5-4.1c-0.7-1.5-1.1-2.8-1.3-3.9c-0.1-1.1-0.2-2.9-0.2-5.2V50.2c0-2.3,0.1-4,0.2-5.2c0.2-1.1,0.6-2.4,1.4-3.8
			c1.5-2.7,5-4.1,10.6-4.1c5.6,0,9.2,0.9,11,2.7C293.3,41.7,294.2,44.3,294.2,47.7z"/>
		<path fill="#04E762" d="M472.2,67.3c0,6.2-1.5,10.7-4.6,13.7c-3.1,3-6.4,4.4-10.1,4.4H422c0,2.8,1.6,5.2,5,7.1
			c3.3,1.9,6.6,2.8,9.9,2.8c5.8,0,10.4-0.6,13.7-1.8l1.6-0.6c2.4-1.1,4.4-1.7,6-1.7c3.2,0,5.9,2.2,8.2,6.8c1.3,2.7,2,5,2,6.9
			c0,8.9-10.6,13.3-32,13.3c-7.4,0-14-1.3-19.7-3.8c-5.8-2.6-10.2-5.9-13.4-10.1c-6.3-8.1-9.5-17.1-9.5-27.2
			c0-12.6,4.1-22.7,12.2-30.2c8.1-7.5,18.3-11.3,30.5-11.3c13.9,0,24.1,4.9,30.6,14.7C470.5,55.5,472.2,61.1,472.2,67.3z
			 M440.6,71.7c3.8,0,5.7-1.6,5.7-4.8c0-2.3-0.9-4.1-2.6-5.6c-1.8-1.4-4.3-2.1-7.5-2.1c-3.3,0-6.5,1.3-9.7,4
			c-3.2,2.7-4.8,5.5-4.8,8.5H440.6z"/>
	</g>
	<g>
		<path fill="#65FF00" d="M26.5,183.3h46.2c2.3,0,4,0.1,5.2,0.2c1.1,0.1,2.5,0.6,4,1.4c2.7,1.4,4,5.3,4,11.7c0,7-1.9,11.1-5.5,12.3
			c-1.7,0.6-4.3,0.9-7.8,0.9H13.2c-7,0-11.1-1.9-12.3-5.7C0.3,202.6,0,200,0,196.5v-83.4c0-5.1,0.9-8.6,2.8-10.4
			c1.9-1.8,5.5-2.8,10.8-2.8h59.1c2.3,0,4,0.1,5.2,0.2c1.1,0.1,2.5,0.6,4,1.4c2.7,1.4,4,5.3,4,11.7c0,7-1.9,11.1-5.5,12.3
			c-1.7,0.6-4.3,0.9-7.8,0.9h-46v15.2h29.7c2.3,0,4,0.1,5.2,0.2c1.1,0.2,2.5,0.6,4,1.4c2.7,1.4,4,5.3,4,11.7c0,7-1.9,11.1-5.7,12.3
			c-1.7,0.6-4.3,0.9-7.8,0.9H26.5V183.3z"/>
		<path fill="#65FF00" d="M96.3,202.8c-1.9-1.2-2.8-3.1-2.8-5.7c0-2.6,1.9-6.5,5.7-11.8c1.1-1.7,2.9-2.6,5.3-2.6
			c2.4,0,5.8,1.2,10,3.7c4.2,2.5,8,3.7,11.4,3.7c6.1,0,9.1-1.2,9.1-3.6c0-1.9-3.4-3.3-10-4.2c-6.3-0.9-12.6-3.2-18.8-7.1
			c-2.9-1.8-5.3-4.6-7.2-8.5c-1.9-3.8-2.8-8.4-2.8-13.7c0-15.8,10.8-23.7,32.5-23.7c7.1,0,14.4,1.7,21.9,5.1c3.5,1.6,5.2,3.6,5.2,6
			c0,2.4-1.1,5.4-3.3,8.8c-2.2,3.5-4.5,5.2-6.8,5.2c-1.2,0-3.4-0.8-6.7-2.2c-3.3-1.5-6.8-2.2-10.6-2.2c-5.9,0-8.8,1.1-8.8,3.3
			c0,3,3.4,5,10.2,5.9c6.6,0.7,13,2.6,19.2,5.7c2.9,1.4,5.3,3.8,7.3,7.3c2,3.4,2.9,7.8,2.9,13c0,5.2-1,9.6-2.9,13.3
			c-2,3.7-4.7,6.4-8.2,8.2c-6.4,3.1-14.4,4.7-24.1,4.7C114.5,211.2,105.2,208.4,96.3,202.8z"/>
		<path fill="#65FF00" d="M193.8,170.4c0,4.3,1.4,7.6,4.2,9.9c2.8,2.4,5.8,3.5,8.9,3.5s6.1-0.9,8.8-2.8c2.8-1.8,5-2.8,6.7-2.8
			c3,0,6.6,2.7,10.9,8c2.3,2.9,3.5,5.5,3.5,7.8c0,3.8-2.8,7.3-8.2,10.7c-5.7,4-12.7,6-21,6c-9.3,0-18.3-3.3-26.8-10.1
			c-4.1-3.2-7.5-7.5-10-12.8c-2.6-5.3-3.9-11.2-3.9-17.7c0-6.5,1.3-12.3,3.9-17.6c2.6-5.2,5.9-9.5,10-12.7
			c8.3-6.6,17.1-9.9,26.5-9.9c3.8,0,7.5,0.5,11.1,1.6c3.6,1.1,6.2,2.1,8,3.1l2.4,1.5c1.8,1.2,3.2,2.2,4.2,2.9c2.6,2,3.9,4.3,3.9,6.8
			s-1,5.4-3.1,8.6c-3.6,5.5-7.1,8.2-10.4,8.2c-1.9,0-4.6-1.1-8.1-3.3c-1.8-1.7-4.4-2.5-7.7-2.5c-3.4,0-6.5,1.2-9.4,3.6
			C195.2,162.8,193.8,166.1,193.8,170.4z"/>
		<path fill="#65FF00" d="M297.9,139.2c0.6-5.6,4.5-8.4,11.9-8.4c3.9,0,6.8,0.3,8.7,0.9c1.9,0.6,3.2,1.7,4,3.2s1.2,2.8,1.3,4
			c0.2,1.2,0.2,2.9,0.2,5.2v52.5c0,2.3-0.1,4-0.2,5.2c-0.1,1.2-0.6,2.5-1.3,4c-1.4,2.6-4.8,3.9-10.3,3.9c-5.5,0-9.1-0.7-11-2
			c-1.9-1.4-2.9-3.3-3.2-5.9c-3.7,5.3-9.9,7.9-18.5,7.9c-8.7,0-16.7-3.9-24.1-11.8c-7.4-7.9-11.1-17.1-11.1-27.5
			c0-10.4,3.7-19.6,11.2-27.4c7.4-7.8,15.6-11.8,24.5-11.8c3.4,0,6.5,0.6,9.3,1.8c2.8,1.2,4.7,2.3,5.8,3.4
			C296.3,137.2,297.2,138.2,297.9,139.2z M270.6,170.4c0,3.3,1.3,6.3,3.9,8.9c2.6,2.7,5.7,4,9.4,4c3.7,0,6.8-1.3,9.2-4
			c2.4-2.7,3.7-5.7,3.7-8.9c0-3.2-1.2-6.3-3.5-9.1c-2.4-2.8-5.5-4.2-9.4-4.2c-4,0-7.2,1.4-9.6,4.2
			C271.8,164.1,270.6,167.1,270.6,170.4z"/>
		<path fill="#65FF00" d="M336,231.3v-87.6c0-2.3,0.1-4,0.2-5.1c0.2-1.1,0.6-2.3,1.3-3.8c1.4-2.7,4.7-4.1,10-4.1
			c5.3,0,8.9,0.7,10.7,2c1.8,1.3,2.9,3.3,3.2,5.9c3.8-5.2,9.8-7.8,17.9-7.8c8.1,0,15.9,3.9,23.2,11.6c7.3,7.7,11,16.7,11,26.8
			s-3.6,19.2-10.9,26.8c-7.3,7.7-15,11.6-23.2,11.6c-8.2,0-14.2-2.3-17.8-6.9v30.3c0,2.3-0.1,4-0.2,5.1c-0.1,1.1-0.6,2.4-1.3,3.8
			c-0.8,1.4-2,2.5-3.8,3.1c-1.8,0.6-4.3,0.9-7.3,0.9c-3.1,0-5.6-0.3-7.4-0.9c-1.9-0.6-3.1-1.6-3.9-3c-0.8-1.4-1.2-2.7-1.4-3.8
			C336.1,235.3,336,233.6,336,231.3z M365.7,160.7c-2.3,2.7-3.5,5.7-3.5,8.8c0,3.2,1.2,6.1,3.5,8.8c2.3,2.7,5.3,4,9,4
			c3.6,0,6.8-1.3,9.3-3.9c2.5-2.6,3.8-5.6,3.8-8.8c0-3.3-1.2-6.3-3.6-8.9c-2.4-2.6-5.5-4-9.4-4C371.1,156.6,368,158,365.7,160.7z"/>
		<path fill="#65FF00" d="M499.5,160.9c0,6.2-1.5,10.7-4.6,13.7c-3.1,3-6.4,4.4-10.1,4.4h-35.5c0,2.8,1.6,5.2,5,7.1
			c3.3,1.9,6.6,2.8,9.9,2.8c5.8,0,10.4-0.6,13.7-1.8l1.6-0.6c2.4-1.1,4.4-1.7,6-1.7c3.2,0,5.9,2.2,8.2,6.8c1.3,2.7,2,5,2,6.9
			c0,8.9-10.6,13.3-32,13.3c-7.4,0-14-1.3-19.7-3.8c-5.8-2.6-10.2-5.9-13.4-10.1c-6.3-8.1-9.5-17.1-9.5-27.2
			c0-12.6,4.1-22.7,12.2-30.2c8.1-7.5,18.3-11.3,30.5-11.3c13.9,0,24.1,4.9,30.6,14.7C497.8,149.1,499.5,154.8,499.5,160.9z
			 M467.8,165.3c3.8,0,5.7-1.6,5.7-4.8c0-2.3-0.9-4.1-2.6-5.6c-1.8-1.4-4.3-2.1-7.5-2.1c-3.3,0-6.5,1.3-9.7,4
			c-3.2,2.7-4.8,5.5-4.8,8.5H467.8z"/>
	</g>
	<g>
		<path fill="#3E3D3F" d="M52,10.7l31.3,64.7c1.3,2.6,2,4.6,2,5.9c0,2.8-2.2,5.3-6.7,7.5c-2.6,1.3-4.7,2-6.2,2s-2.7-0.3-3.7-1
			c-1-0.7-1.7-1.4-2.1-2.2c-0.4-0.8-1-1.9-1.8-3.5l-6-12.5H26.6l-6,12.5c-0.8,1.5-1.4,2.7-1.8,3.4c-0.4,0.7-1.1,1.4-2.1,2.1
			c-1,0.7-2.2,1.1-3.7,1.1s-3.6-0.7-6.2-2c-4.5-2.2-6.7-4.6-6.7-7.4c0-1.3,0.7-3.3,2-5.9l31.3-64.8c0.8-1.8,2.1-3.2,3.9-4.3
			c1.7-1.1,3.6-1.6,5.5-1.6C46.9,4.7,50,6.7,52,10.7z M42.6,38.5L35,54.4h15.4L42.6,38.5z"/>
	</g>
</g>
</svg>
