<?xml version="1.0" encoding="UTF-8"?>
<svg width="465px" height="464px" viewBox="0 0 465 464" version="1.1" xmlns="http://www.w3.org/2000/svg" xmlns:xlink="http://www.w3.org/1999/xlink">
    <!-- Generator: Sketch 52.4 (67378) - http://www.bohemiancoding.com/sketch -->
    <title>slimeAnim</title>
    <desc>Created with Sketch.</desc>
    <defs>
        <polygon id="path-1" points="0 0.170036166 279.606629 0.170036166 279.606629 442.969838 0 442.969838"></polygon>
    </defs>
    <g id="Page-1" stroke="none" stroke-width="1" fill="none" fill-rule="evenodd">
        <g id="Website+NavHover" transform="translate(-735.000000, -422.000000)">
            <g id="slimeAnim" transform="translate(735.000000, 422.000000)">
                <g id="maze">
                    <path d="M358.369264,354.645927 C376.137762,336.333324 389.478328,315.303168 397.933718,291.276498 C407.298434,264.666093 410.171946,237.333067 406.374658,209.34021 C405.716145,204.48876 402.849859,201.433571 398.889491,201.592095 C394.609157,201.762972 391.787253,205.171236 392.053548,210.237826 C392.26101,214.210189 392.926749,218.155788 393.184787,222.127121 C394.555485,243.282861 391.854343,263.930089 385.059685,284.015278 C383.283351,289.268185 381.385224,294.501533 378.694403,299.630915 C366.294128,293.229224 354.168405,286.969588 342.049907,280.714068 C342.241887,279.808217 342.31517,279.219414 342.496829,278.66561 C342.773446,277.825639 343.111992,277.005226 343.445377,276.185842 C348.793989,263.05512 351.289733,249.318094 351.77278,235.234169 C352.181512,223.369578 350.545551,211.710864 347.368587,200.243613 C343.132635,184.958405 336.26263,170.900214 326.381838,158.59608 C312.957668,141.879011 296.502067,128.900635 276.161445,121.187519 C260.02994,115.070966 243.417452,112.252534 226.188769,113.169708 C221.664846,113.410582 218.636512,116.682969 218.763467,120.875618 C218.886293,124.939596 222.37187,127.901111 227.077452,127.521271 C237.682815,126.66483 248.046654,128.164631 258.265992,130.690721 C263.479392,131.9795 268.854841,133.11696 273.606869,136.341996 C267.581165,147.951301 261.691705,159.300174 255.753734,170.740661 C249.009652,168.376184 241.760848,167.077111 234.206527,167.077111 C213.007154,167.077111 194.183797,177.205144 182.322305,192.870191 C166.095841,213.061405 163.817882,241.870557 177.70136,264.90285 C183.879822,275.152349 192.085431,283.011636 202.195361,288.270719 C212.017321,293.828321 223.421569,296.924685 235.578257,296.673517 C269.779649,295.966336 297.884118,268.41817 299.14128,234.325229 C300.027898,210.300618 287.78451,189.072822 269.014824,177.170145 C274.950731,165.732746 280.795808,154.469311 286.646046,143.198671 C290.096531,143.993349 292.352815,146.196215 294.816562,148.011005 C308.385234,158.006248 319.045301,170.565667 326.46441,185.602795 C332.641841,198.124127 336.345202,211.443226 337.090416,225.533327 C338.618001,254.457769 330.173965,279.953359 310.974904,301.727754 C304.519824,309.049707 297.308178,315.605805 288.804276,320.626072 C284.205007,323.340537 283.231687,328.394775 286.414844,331.828774 C289.159337,334.791318 292.656268,335.197922 296.450459,332.859179 C307.503776,326.044709 316.792113,317.242513 325.169059,307.41094 C328.797074,303.15344 331.675746,298.340077 335.028176,293.789205 C347.47077,300.212513 359.623329,306.485531 371.998832,312.87384 C369.208925,317.431918 366.560423,321.647213 363.663172,325.735896 C344.559069,352.699376 319.22696,371.704749 288.461602,383.3367 C268.658732,390.823354 247.989886,394.062801 226.69762,393.445175 C205.840922,392.839902 185.883229,388.324028 166.922595,379.962405 C136.306899,366.462136 112.211309,345.276544 94.632726,316.814292 C92.4631423,313.301031 90.6434581,309.570572 88.4460063,306.07481 C86.055542,302.271265 81.9475767,301.139981 78.4939957,303.060797 C75.082733,304.956908 73.9896839,309.207202 76.0178628,313.135302 C83.0984263,326.842475 91.7499252,339.521302 102.200465,350.853705 C120.593416,370.799928 142.317121,386.00999 167.756574,395.87965 C189.976745,404.498617 212.991672,408.612004 236.745621,407.926439 C260.963006,407.228522 284.184364,401.685331 306.196039,391.503771 C325.836862,382.418497 343.269911,370.209066 358.369264,354.645927" id="Fill-1" fill="#3E3D3F"></path>
                    <g id="Group-5" transform="translate(0.000000, 21.000000)">
                        <mask id="mask-2" fill="white">
                            <use xlink:href="#path-1"></use>
                        </mask>
                        <g id="Clip-4"></g>
                        <path d="M270.632456,425.1061 C257.383926,427.382759 244.053044,428.474731 230.597603,428.443826 C210.555985,428.40262 190.935397,425.61088 171.695691,419.996495 C141.801574,411.271019 114.933926,396.81784 91.1534853,376.77088 C68.64025,357.80559 50.8118676,334.987492 37.5633382,308.728652 C27.2692206,288.310833 20.34025,266.677423 16.9339265,244.044755 C13.9795147,224.399557 13.6809853,204.69255 16.0383382,184.90313 C18.7549559,162.105636 25.11775,140.410416 34.6295147,119.611437 C40.7751029,106.157516 48.4545147,93.5895341 57.1118676,81.5469355 C67.4358382,67.1658682 79.6549559,54.6287916 93.1299559,43.3382116 C104.103485,34.1491629 115.953044,26.1138961 128.748632,19.510555 C132.669662,17.4914367 136.479515,15.2559842 140.482897,13.370787 C144.200103,11.6195109 145.558926,8.04484733 144.220691,4.54229513 C142.995691,1.3281884 139.032456,-0.536405568 135.398632,0.421645476 C134.554515,0.648281206 133.741279,1.03974292 132.938338,1.41060139 C114.49025,9.92901439 97.6284853,20.8394645 82.0637794,33.9637336 C64.1839265,49.0453114 49.2162794,66.5271675 36.6059853,86.1311582 C34.1631912,89.9314274 31.7821618,93.7821745 29.2889265,97.7565411 C29.2755441,97.7761142 29.2498088,97.7843555 29.2281912,97.7730237 C23.0568676,94.5743694 16.9359853,91.4045596 10.8120147,88.2326896 C7.21525,86.3711861 2.76407353,87.7454227 0.899808824,91.3417197 C0.877161765,91.3860167 0.854514706,91.4292835 0.831867647,91.4735805 C-1.03136765,95.0739981 0.417014706,99.5109077 4.01583824,101.375502 C10.1418676,104.549432 16.2514265,107.714091 22.3784853,110.889052 C22.3959853,110.899353 22.40525,110.923047 22.4001029,110.94365 C22.1921618,111.737905 22.1386324,112.314796 21.8956912,112.812365 C15.0706912,127.131622 10.1284853,142.130787 6.38245588,157.490509 C-0.494014706,185.747864 -1.75092647,214.345172 2.30598529,243.117608 C3.80892647,253.769488 6.13539706,264.246239 9.11039706,274.640578 C12.86775,287.733942 17.6328971,300.363734 23.5324559,312.560857 C28.0196618,321.852922 33.4765735,330.619604 38.9931912,339.375984 C47.0133382,352.088188 56.5858382,363.471483 67.0446618,374.051251 C82.8883382,390.058945 100.748632,403.555103 120.595691,414.340903 C145.620691,427.939047 172.158926,436.849952 200.375103,440.774871 C214.600544,442.752782 228.878485,443.391483 243.178044,442.701274 C253.194221,442.217098 263.179515,441.032411 273.019662,438.951483 C277.405985,438.024337 280.266721,434.130323 279.475103,430.339325 C278.630985,426.342295 275.243191,424.323177 270.632456,425.1061" id="Fill-3" fill="#3E3D3F" mask="url(#mask-2)"></path>
                    </g>
                    <path d="M460.970748,342.395262 C454.296315,338.942933 447.63425,335.495757 440.906223,332.020756 C440.88561,332.008389 440.876335,331.981595 440.887672,331.959954 C443.980626,325.656104 446.520126,319.548058 448.772078,313.316347 C456.027793,293.229976 460.840887,272.651004 462.675429,251.277481 C464.727436,227.35851 462.850638,203.788893 457.718044,180.477944 C454.51275,165.927666 449.679042,151.819492 443.608565,138.132811 C435.425273,119.645847 424.995182,102.528479 412.400746,86.8013173 C396.312435,66.7056713 377.173425,49.9180778 355.395974,36.1200981 C328.826041,19.2912828 299.999003,8.39738158 269.060182,3.13129179 C252.85747,0.370459193 236.48161,-0.619895462 220.083076,0.380764653 C209.633403,1.00836713 199.120862,1.678222 188.927819,4.41947422 C185.320575,5.38818741 183.011938,9.48976028 183.886953,13.0554493 C184.752691,16.560336 188.340354,18.7852847 192.080551,18.1164604 C216.269703,13.8190838 240.489774,13.4068654 264.81394,17.0653035 C283.807628,19.9096104 301.854158,25.7620808 319.479155,33.1624312 C321.295145,33.9209131 323.37601,34.4454609 324.736456,36.3014742 C324.747793,36.3159018 324.749855,36.3365128 324.74161,36.351971 C318.547455,48.3279454 312.394527,60.2122013 306.128227,72.3005052 C306.117921,72.3190551 306.094216,72.32833 306.072573,72.3231772 C305.160455,72.0840906 304.724494,72.0315327 304.338003,71.869737 C280.519883,61.2128614 255.526831,55.9787185 229.461912,56.2672714 C209.21084,56.4939915 189.514254,60.3265919 170.540148,67.3456403 C154.822868,73.1579195 140.259906,81.1539255 126.68636,91.1193048 C108.310025,104.610182 93.3873693,121.171055 81.472125,140.410317 C70.3216166,158.414986 63.013339,177.995359 59.0257877,198.831967 C55.3659804,217.876456 55.1608828,236.962167 57.6849234,256.130322 C58.2218875,260.202009 61.4570706,263.045285 65.16841,262.860817 C68.9395266,262.675319 71.8150158,259.56307 71.8974672,255.40894 C71.9283864,253.646706 71.7851273,251.863862 71.5686926,250.112964 C68.6818662,226.863848 71.0945976,204.139279 78.3606189,181.910403 C80.2611214,176.09194 82.2667494,170.294089 85.1607903,164.711621 C85.173158,164.688949 85.2009853,164.679675 85.22469,164.691011 C97.7191547,171.159747 109.814761,177.422375 122.115465,183.788057 C122.136078,183.798363 122.145354,183.824127 122.137109,183.845768 C121.049782,186.696258 119.973793,189.260256 119.080227,191.887118 C113.185989,209.303345 110.82582,227.080262 112.876797,245.505393 C114.463984,259.810401 118.451535,273.320859 124.893044,286.048101 C134.838732,305.689277 149.195566,321.487546 167.839867,333.338824 C188.968014,346.788479 212.147138,352.321481 237.006206,351.446547 C241.933702,351.28166 245.034902,348.076662 244.900919,343.738063 C244.767966,339.450992 241.33593,336.874627 236.213643,337.060126 C211.601928,337.946395 189.091691,331.690981 169.323991,316.778981 C140.848402,295.302404 126.263797,266.39456 126.603908,230.924199 C126.954326,195.008642 142.765395,166.504771 172.003658,145.553772 C173.446556,144.523226 175.085276,143.759592 176.436447,142.637327 C180.578594,139.184998 179.92929,133.433521 175.219259,130.857157 C172.056221,129.12687 169.314715,130.074972 166.541259,131.887702 C154.545625,139.720882 144.382471,149.468816 135.592131,160.742989 C133.104163,163.950048 131.498424,167.821809 128.607475,170.470312 C128.593046,170.483709 128.570372,170.486801 128.553882,170.477526 C116.226381,164.098447 104.217348,157.883224 92.3113797,151.720559 C92.2948895,151.711284 92.2845831,151.692734 92.2856137,151.673154 C92.3773408,149.952142 93.3183163,148.967971 94.0150298,147.872501 C97.735645,142.019 101.775759,136.392219 106.08384,130.918989 C124.399366,107.669873 147.805231,91.3563304 175.240903,80.9488468 C195.450748,73.2918904 216.53767,70.0343347 238.263589,70.859802 C258.928978,71.6419864 278.675035,76.2588322 297.443013,84.6691177 C327.671723,98.1991554 351.448618,119.304736 368.85615,147.51181 C370.948352,150.902306 372.669523,154.518491 374.782337,157.899713 C377.380584,162.063118 381.399055,163.298743 384.965074,161.299484 C388.62385,159.249728 389.427751,154.879183 386.985131,150.448866 C382.625518,142.564158 378.028858,134.867011 372.721055,127.539829 C361.950853,112.658746 348.934884,100.147918 334.207019,89.3477963 C329.372281,85.7996266 324.282974,82.5802011 319.21325,79.1371471 C319.193667,79.12375 319.188514,79.0979863 319.19779,79.0773754 C325.473365,66.9602161 331.667519,54.9852722 337.829724,43.0938025 C337.837969,43.0773138 337.858582,43.0659778 337.877133,43.0680389 C340.053848,43.2628121 341.437999,44.4098097 342.914908,45.3218429 C362.249739,57.2565955 379.708803,71.3431281 394.828311,88.4718322 C411.134087,106.938185 423.830558,127.591356 433.240313,150.170618 C438.620261,163.082328 442.670681,176.5629 445.186476,190.423743 C449.48322,214.135575 450.328346,237.889659 447.071519,261.830272 C444.48461,280.842814 439.228339,299.052561 431.910786,316.73776 C423.016351,338.224643 410.628042,357.56799 395.632211,375.241853 C389.221622,382.784419 381.965907,389.503578 374.587546,396.110408 C359.37425,409.733195 342.224378,420.328238 323.961414,429.232155 C319.643027,431.344774 317.685839,434.888822 319.231801,438.712147 C320.685005,442.339669 325.075537,444.072017 329.229022,442.298447 C346.749924,434.8476 362.641383,424.603973 377.410473,412.722809 C397.229705,396.779233 413.823031,377.880051 427.479028,356.382862 C429.750561,352.816143 431.458334,348.860907 434.391539,345.425067 C434.405968,345.408578 434.429673,345.403426 434.449255,345.413731 C441.063911,348.837205 447.636311,352.236976 454.19222,355.626441 C457.819047,357.503066 462.279663,356.086065 464.163675,352.462665 C466.059024,348.814533 464.62231,344.284253 460.970748,342.395262" id="Fill-6" fill="#3E3D3F"></path>
                </g>
                <circle id="animation-Loop" fill="#04E762" cx="233" cy="233" r="52"></circle>
            </g>
        </g>
    </g>
</svg>