<svg xmlns="http://www.w3.org/2000/svg" xmlns:xlink="http://www.w3.org/1999/xlink" viewBox="0 0 247.9232 318.3671">
  <defs>
    <filter id="luminosity-noclip" x="64.3672" y="-9030.4919" width="119.451" height="32766" filterUnits="userSpaceOnUse" color-interpolation-filters="sRGB">
      <feFlood flood-color="#fff" result="bg"/>
      <feBlend in="SourceGraphic" in2="bg"/>
    </filter>
    <mask id="mask" x="64.3672" y="-9030.4919" width="119.451" height="32766" maskUnits="userSpaceOnUse">
      <g filter="url(#luminosity-noclip)"/>
    </mask>
    <linearGradient id="linear-gradient" x1="23.6236" y1="210.4399" x2="220.7967" y2="210.4399" gradientUnits="userSpaceOnUse">
      <stop offset="0.0044"/>
      <stop offset="0.0906" stop-color="#0f0f0f"/>
      <stop offset="0.2569" stop-color="#373737"/>
      <stop offset="0.4865" stop-color="#777"/>
      <stop offset="0.7676" stop-color="#cecece"/>
      <stop offset="0.9145" stop-color="#fff"/>
    </linearGradient>
    <filter id="luminosity-noclip-2" x="64.3672" y="192.9195" width="119.451" height="35.0408" filterUnits="userSpaceOnUse" color-interpolation-filters="sRGB">
      <feFlood flood-color="#fff" result="bg"/>
      <feBlend in="SourceGraphic" in2="bg"/>
    </filter>
    <mask id="mask-2" x="64.3672" y="192.9195" width="119.451" height="35.0408" maskUnits="userSpaceOnUse">
      <g mask="url(#mask)" filter="url(#luminosity-noclip-2)">
        <path d="M82.2383,223.04a120.2472,120.2472,0,0,0,42.6759,4.6583c14.1046-.8672,28.95-2.68,42.3469-7.4094a47.8286,47.8286,0,0,0,15.8577-8.9931,2.0248,2.0248,0,0,0,.16-2.9062,34.9288,34.9288,0,0,0-13.78-9.4883c-12.6372-4.7437-27.9879-5.6091-41.3942-5.9064-21.6139-.4794-47.5686.8946-63.1985,17.5322a1.9837,1.9837,0,0,0-.2307,2.42C68.1719,218.322,76.893,221.4063,82.2383,223.04Z" fill="url(#linear-gradient)" style="mix-blend-mode: multiply"/>
      </g>
    </mask>
    <linearGradient id="linear-gradient-2" x1="23.6236" y1="210.4399" x2="220.7967" y2="210.4399" gradientUnits="userSpaceOnUse">
      <stop offset="0.0044"/>
      <stop offset="0.9145"/>
    </linearGradient>
  </defs>
  <title>Fichier 1</title>
  <g style="isolation: isolate">
    <g id="Calque_2" data-name="Calque 2">
      <g id="Calque_3" data-name="Calque 3">
        <g>
          <path d="M241.4259,262.3535,170.3624,154.4343a80.7242,80.7242,0,0,1-13.3043-44.3956V13.879H89.6615v95.2a80.7249,80.7249,0,0,1-12.8483,43.6953L63.1094,174.0614q-22.108,34.3431-44.2163,68.6861c-3.681,5.718-7.3788,11.4261-11.1863,17.0611C4.3555,264.7687,0,269.6123,0,275.9433c0,23.43,55.5,42.4238,123.9616,42.4238s123.9616-18.9938,123.9616-42.4238C247.9232,271.19,245.6387,266.62,241.4259,262.3535Z" fill="#d2d8d2" opacity="0.8"/>
          <g opacity="0.5">
            <path d="M157.1113,55.52H138.302a1.388,1.388,0,0,1-1.4312-1.3405v-.027a1.388,1.388,0,0,1,1.4312-1.34h18.8093Z" fill="#161616"/>
            <path d="M157.1113,108.6248H138.302a1.388,1.388,0,0,1-1.4312-1.34v-.027a1.388,1.388,0,0,1,1.4312-1.34h18.8093Z" fill="#161616"/>
            <path d="M157.1113,94.7774H146.6a.7876.7876,0,0,1-.8-.7749v-.0156a.7877.7877,0,0,1,.8-.775h10.5111Z" fill="#161616"/>
            <path d="M157.1113,81.5012H146.6a.7876.7876,0,0,1-.8-.7749v-.0157a.7877.7877,0,0,1,.8-.7749h10.5111Z" fill="#161616"/>
            <path d="M157.1113,68.225H146.6a.7877.7877,0,0,1-.8-.7749v-.0157a.7876.7876,0,0,1,.8-.7749h10.5111Z" fill="#161616"/>
          </g>
          <g id="color" opacity="0.5">
            <path d="M202.7216,284.7666q2.45-1.2,4.866-2.4809c6.3695-3.3792,14.0019-7.8559,14.4108-15.93.3233-6.4-6.43-13.5144-9.8527-18.5219-7.0783-10.357-14.226-20.7187-21.7953-30.7171-6.0064-7.9339-11.0731-14.5452-20.8514-18.2157-12.6373-4.7438-27.9879-5.6091-41.3942-5.9064-22.9521-.509-50.8058,1.0621-65.9856,20.7921-9.2325,12-17.7236,24.6155-27.131,36.4713-5.4289,6.8418-17.2411,19.257-9.8762,28.44,4.5093,5.6222,12.2493,8.7516,18.9649,11.2031C94.5764,308.3366,153.72,308.7584,202.7216,284.7666Z" fill="#65ff00"/>
          </g>
          <g mask="url(#mask-2)">
            <path id="_Trace_" data-name="&lt;Trace&gt;" d="M82.2383,223.04a120.2472,120.2472,0,0,0,42.6759,4.6583c14.1046-.8672,28.95-2.68,42.3469-7.4094a47.8286,47.8286,0,0,0,15.8577-8.9931,2.0248,2.0248,0,0,0,.16-2.9062,34.9288,34.9288,0,0,0-13.78-9.4883c-12.6372-4.7437-27.9879-5.6091-41.3942-5.9064-21.6139-.4794-47.5686.8946-63.1985,17.5322a1.9837,1.9837,0,0,0-.2307,2.42C68.1719,218.322,76.893,221.4063,82.2383,223.04Z" opacity="0.09" fill="url(#linear-gradient-2)" style="mix-blend-mode: multiply"/>
          </g>
          <path d="M78.7305,4.617h89.0646a0,0,0,0,1,0,0V16.6552a10.4681,10.4681,0,0,1-10.4681,10.4681H89.1986A10.4681,10.4681,0,0,1,78.7305,16.6552V4.617A0,0,0,0,1,78.7305,4.617Z" fill="#d2d8d2"/>
          <path d="M167.7915,4.62c0,2.5517-19.4682,4.62-44.2269,4.62s-44.83-2.0685-44.83-4.62S98.8058,0,123.5646,0,167.7915,2.0685,167.7915,4.62Z" fill="#ccc"/>
        </g>
      </g>
    </g>
  </g>
</svg>
