<?xml version="1.0" encoding="utf-8"?>
<!-- Generator: Adobe Illustrator 23.0.1, SVG Export Plug-In . SVG Version: 6.00 Build 0)  -->
<svg version="1.1" id="Calque_1" xmlns="http://www.w3.org/2000/svg" xmlns:xlink="http://www.w3.org/1999/xlink" x="0px" y="0px"
	 viewBox="0 0 171.2 364.5" enable-background="new 0 0 171.2 364.5" xml:space="preserve">
<title>score_jump</title>
<g>
	<g id="game">
		<g>
			<path fill="#04E762" d="M46.7,254.8c7.5,4,25.6,72.1,34.2,106c0.7,2.6,3.4,4.2,6,3.6c1.7-0.4,3.1-1.8,3.6-3.5
				c11.6-44.4,40.5-152.3,46.7-154.5c5.7-2,10.6,2.9,14.3,8.9c1.4,2.3,4.5,3,6.8,1.6c1.3-0.8,2.2-2.2,2.3-3.8l10.3-121.2l0,0
				c0.2-2.1,0.2-4.2,0.2-6.3c0-47.3-38.2-85.6-85.5-85.7S0,38.1,0,85.4c0,0.1,0,0.1,0,0.2c0,5.1,1.3,15,1.3,15l22.3,156.1
				c0.4,2.7,2.9,4.6,5.6,4.2c1-0.1,1.9-0.6,2.6-1.2C36.1,255.7,41.9,252.1,46.7,254.8z"/>
			<path fill="#08C455" d="M124.2,172.7c-29,29-46.9,29-75.9,0S4.1,68.9,33.1,39.8c29-29,76.1-29,105.1,0
				C167.3,68.9,153.2,143.7,124.2,172.7z"/>
			<path opacity="0.5" fill="#F5FAFD" enable-background="new    " d="M46.7,60.2c-6.5,0-9.1-3.9-6.9-8.2
				c4.3-8.8,10.7-15.6,20.7-17.7c2.2-0.5,5.6,0.9,7.1,2.5c1.1,1.3,1,4.9,0,6.6C62.5,52.4,55,58.2,46.7,60.2z"/>
			<path opacity="0.5" fill="#F5FAFD" enable-background="new    " d="M36.2,68.1c1,0.8,1.2,2.3,0.4,3.4c-0.2,0.2-0.4,0.4-0.6,0.6
				c-1,0.7-2.2,1.3-3.3,1.7c-0.4,0.1-2.5-2.5-2.2-2.9c1.1-1.5,2.5-2.9,4.1-3.9C34.7,66.8,35.2,67.3,36.2,68.1z"/>
		</g>
	</g>
</g>
</svg>
