<?xml version="1.0" encoding="UTF-8"?>
<svg width="29px" height="42px" viewBox="0 0 29 42" version="1.1" xmlns="http://www.w3.org/2000/svg" xmlns:xlink="http://www.w3.org/1999/xlink">
    <!-- Generator: Sketch 52.4 (67378) - http://www.bohemiancoding.com/sketch -->
    <title>Max Height</title>
    <desc>Created with Sketch.</desc>
    <defs>
        <polygon id="path-1" points="0 42 29 42 29 0 0 0"></polygon>
    </defs>
    <g id="Page-1" stroke="none" stroke-width="1" fill="none" fill-rule="evenodd">
        <g id="BurgerMenuAlternative-Copy-10" transform="translate(-28.000000, -464.000000)">
            <g id="Principal-Copy-4" transform="translate(17.000000, 211.000000)">
                <g id="Slot-Copy-3" transform="translate(0.000000, 243.000000)">
                    <g id="Left-skillBox">
                        <g id="Max-Height" transform="translate(11.000000, 10.000000)">
                            <path d="M16.8039308,32.2844069 C14.6806632,35.9051977 13.3744619,35.9051977 11.2511943,32.2844069 C9.1276756,28.6638612 8.01883575,19.3359549 10.1421034,15.7154092 C12.265371,12.0948636 15.7081479,12.0948636 17.8314155,15.7154092 C19.9546831,19.3359549 18.9271984,28.6638612 16.8039308,32.2844069" id="Fill-1" fill="#08C455"></path>
                            <path d="M11.523977,18 C11.0824348,17.9977299 10.9047381,17.5552926 11.0493367,17.0513362 C11.3411161,16.0347972 11.7843015,15.2547999 12.4622249,15.010767 C12.6105793,14.9574202 12.842031,15.1097422 12.9457852,15.3036065 C13.0232488,15.4484372 13.0129203,15.8654497 12.945081,16.0702104 C12.602833,17.106499 12.0854704,17.7782138 11.523977,18" id="Fill-3" fill="#F5FAFD"></path>
                            <path d="M10.8635735,19.1656723 C11.0588861,19.3176957 11.0415476,19.6159622 10.8304265,19.7454423 C10.6534722,19.854113 10.4999759,19.9411074 10.3362805,19.9992001 C10.2781457,20.0200093 9.96758339,19.62839 10.0027703,19.5752107 C10.1526969,19.3486206 10.375547,19.1578688 10.6055365,19.0029552 C10.6315442,18.9853251 10.712117,19.0474639 10.8635735,19.1656723" id="Fill-5" fill="#F5FAFD"></path>
                            <mask id="mask-2" fill="white">
                                <use xlink:href="#path-1"></use>
                            </mask>
                            <g id="Clip-8"></g>
                            <polygon id="Fill-7" fill="#1E1E24" mask="url(#mask-2)" points="0 3 6 3 6 2 0 2"></polygon>
                            <polygon id="Fill-9" fill="#1E1E24" mask="url(#mask-2)" points="3 6 6 6 6 5 3 5"></polygon>
                            <polygon id="Fill-10" fill="#FF0000" mask="url(#mask-2)" points="0 9 29 9 29 8 0 8"></polygon>
                            <polygon id="Fill-11" fill="#1E1E24" mask="url(#mask-2)" points="3 12 6 12 6 11 3 11"></polygon>
                            <polygon id="Fill-12" fill="#1E1E24" mask="url(#mask-2)" points="0 15 6 15 6 14 0 14"></polygon>
                            <polygon id="Fill-13" fill="#1E1E24" mask="url(#mask-2)" points="3 18 6 18 6 17 3 17"></polygon>
                            <polygon id="Fill-14" fill="#1E1E24" mask="url(#mask-2)" points="0 21 6 21 6 20 0 20"></polygon>
                            <polygon id="Fill-15" fill="#1E1E24" mask="url(#mask-2)" points="3 24 6 24 6 23 3 23"></polygon>
                            <polygon id="Fill-16" fill="#1E1E24" mask="url(#mask-2)" points="0 27 6 27 6 26 0 26"></polygon>
                            <polygon id="Fill-17" fill="#1E1E24" mask="url(#mask-2)" points="3 30 6 30 6 29 3 29"></polygon>
                            <polygon id="Fill-18" fill="#1E1E24" mask="url(#mask-2)" points="0 33 6 33 6 32 0 32"></polygon>
                            <polygon id="Fill-19" fill="#1E1E24" mask="url(#mask-2)" points="3 36 6 36 6 35 3 35"></polygon>
                            <polygon id="Fill-20" fill="#1E1E24" mask="url(#mask-2)" points="0 39 6 39 6 38 0 38"></polygon>
                            <polygon id="Fill-21" fill="#1E1E24" mask="url(#mask-2)" points="3 42 6 42 6 41 3 41"></polygon>
                            <path d="M25.52768,36.1166211 C25.3104781,35.9366043 24.9747568,35.9366043 24.7575549,36.1166211 L22.5280339,37.777996 L22.5280339,2.21589004 L24.7665945,3.88482659 C24.8713034,3.9719079 25.002629,4.01971725 25.1517826,4.01971725 C25.3006852,4.01971725 25.4362795,3.9719079 25.5414906,3.88482659 L25.8382913,3.63675461 C25.9432513,3.5496733 26,3.43356488 26,3.30989478 C26,3.18598075 25.9414936,3.06987233 25.8365336,2.98303495 L22.4014793,0.134475892 C22.2940083,0.0454431762 22.1503788,-0.00212224732 22.0027317,7.30799139e-05 C21.8490582,-0.00212224732 21.7049266,0.0451992509 21.5979578,0.134475892 L18.164159,2.98181532 C17.954239,3.15573402 17.954239,3.46161628 18.164159,3.63553499 L18.4632196,3.88360696 C18.6806726,4.0636238 19.0485348,4.0636238 19.2657367,3.88336304 L21.5196144,2.26906574 L21.5196144,37.7377483 L19.256446,36.1151576 C19.038993,35.9351407 18.6784127,35.9351407 18.4609597,36.1151576 L18.1583836,36.3634735 C17.9482126,36.5376361 17.946706,36.8432744 18.156877,37.0169492 L21.5901737,39.8655083 C21.6981469,39.954297 21.841023,40.0023503 21.9886701,39.9999111 C22.1425947,40.0023503 22.2862242,39.954541 22.3936952,39.8655083 L25.8267407,37.0181688 C26.0371629,36.8442501 26.0371629,36.5386118 25.8267407,36.3646931 L25.52768,36.1166211 Z" id="Fill-22" fill="#1E1E24" mask="url(#mask-2)"></path>
                        </g>
                    </g>
                </g>
            </g>
        </g>
    </g>
</svg>