<?xml version="1.0" encoding="UTF-8"?>
<svg width="28px" height="31px" viewBox="0 0 28 31" version="1.1" xmlns="http://www.w3.org/2000/svg" xmlns:xlink="http://www.w3.org/1999/xlink">
    <!-- Generator: Sketch 52.4 (67378) - http://www.bohemiancoding.com/sketch -->
    <title>Chronos</title>
    <desc>Created with Sketch.</desc>
    <g id="Page-1" stroke="none" stroke-width="1" fill="none" fill-rule="evenodd">
        <g id="BurgerMenuAlternative-Copy-10" transform="translate(-28.000000, -308.000000)">
            <g id="Principal-Copy-4" transform="translate(17.000000, 211.000000)">
                <g id="Slot-Copy" transform="translate(0.000000, 81.000000)">
                    <g id="Left-skillBox">
                        <g id="Chronos" transform="translate(12.000000, 15.498800)">
                            <polygon id="Fill-1" fill="#138742" points="11.17 16.781 14.04 16.781 14.04 1.533 11.17 1.533"></polygon>
                            <path d="M16.1933,3.2813 L9.0173,3.2813 C8.2503,3.2813 7.6273,2.6593 7.6273,1.8913 C7.6273,1.1243 8.2503,0.5013 9.0173,0.5013 L16.1933,0.5013 C16.9613,0.5013 17.5833,1.1243 17.5833,1.8913 C17.5833,2.6593 16.9613,3.2813 16.1933,3.2813" id="Fill-2" fill="#08C455"></path>
                            <path d="M12.6019,30.0004 C5.6489,30.0004 -0.0001,24.3514 -0.0001,17.3994 C-0.0001,15.0514 0.6439,12.8564 1.7679,10.9734 C2.7129,9.3674 4.0069,7.9934 5.5519,6.9494 C7.5679,5.5834 9.9859,4.7894 12.6019,4.7894 C15.3859,4.7894 17.9559,5.6904 20.0439,7.2254 C21.6239,8.3854 22.9269,9.9034 23.8279,11.6614 C24.7119,13.3834 25.2109,15.3294 25.2109,17.3994 C25.2109,24.3514 19.5619,30.0004 12.6019,30.0004 Z" id="Fill-4" fill="#87878A"></path>
                            <path d="M25.2109,17.3994 C25.2109,24.3514 19.5619,30.0004 12.6019,30.0004 C5.6489,30.0004 -0.0001,24.3514 -0.0001,17.3994 C-0.0001,15.0514 0.6439,12.8564 1.7679,10.9734 C2.7129,9.3674 4.0069,7.9934 5.5519,6.9494 C7.5679,5.5834 9.9859,4.7894 12.6019,4.7894 C15.3859,4.7894 17.9559,5.6904 20.0439,7.2254 C21.6239,8.3854 22.9269,9.9034 23.8279,11.6614 C24.7119,13.3834 25.2109,15.3294 25.2109,17.3994 Z" id="Stroke-6" stroke="#E2E2E2" stroke-width="2"></path>
                            <path d="M5.2803,6.1963 C3.5503,7.3663 2.0993,8.9063 1.0403,10.7063 C0.3893,9.3663 0.3993,7.8063 1.2103,6.7463 C1.7593,6.0263 2.5693,5.6663 3.4393,5.6663 C4.0403,5.6663 4.6793,5.8363 5.2803,6.1963" id="Fill-8" fill="#08C455"></path>
                            <path d="M24.5293,11.4766 C23.5193,9.5066 22.0593,7.8066 20.2893,6.5066 C21.0193,5.9466 21.8393,5.6656 22.6093,5.6656 C23.4793,5.6656 24.2893,6.0266 24.8393,6.7466 C25.8003,8.0166 25.6393,9.9966 24.5293,11.4766" id="Fill-10" fill="#08C455"></path>
                            <path d="M12.4912,10.7588 L12.3932,10.7588 C12.1742,10.7588 11.9962,10.9378 11.9962,11.1568 L11.9962,17.6728 C11.9962,17.8938 12.1742,18.0708 12.3932,18.0708 L12.4912,18.0708 C12.7112,18.0708 12.8892,17.8938 12.8892,17.6728 L12.8892,11.1568 C12.8892,10.9378 12.7112,10.7588 12.4912,10.7588" id="Fill-12" fill="#FFFFFF"></path>
                            <path d="M12.0849,17.3838 L12.0369,17.4688 C11.9289,17.6598 11.9969,17.9038 12.1889,18.0108 L17.8669,21.2058 C18.0589,21.3148 18.3019,21.2458 18.4089,21.0548 L18.4569,20.9698 C18.5649,20.7788 18.4969,20.5348 18.3059,20.4278 L12.6269,17.2328 C12.4359,17.1238 12.1919,17.1928 12.0849,17.3838" id="Fill-14" fill="#FFFFFF"></path>
                        </g>
                    </g>
                </g>
            </g>
        </g>
    </g>
</svg>