<?xml version="1.0" encoding="UTF-8"?>
<svg width="36px" height="29px" viewBox="0 0 36 29" version="1.1" xmlns="http://www.w3.org/2000/svg" xmlns:xlink="http://www.w3.org/1999/xlink">
    <!-- Generator: Sketch 52.4 (67378) - http://www.bohemiancoding.com/sketch -->
    <title>Mask</title>
    <desc>Created with Sketch.</desc>
    <g id="Page-1" stroke="none" stroke-width="1" fill="none" fill-rule="evenodd">
        <g id="BurgerMenuAlternative-Copy-7" transform="translate(-18.000000, -402.000000)" fill="#FFFFFF">
            <g id="Compétence-principale-Copy-2" transform="translate(10.000000, 296.000000)">
                <g id="Principal-Copy" transform="translate(1.000000, 97.000000)">
                    <g id="Slot">
                        <g id="Left-skillBox">
                            <g id="Mask" transform="translate(7.000000, 9.000000)">
                                <path d="M33.3904344,8.83144654 C31.1726196,8.73459119 31.6749452,13.0402516 28.1586661,11.4465409 C27.5331286,11.1647799 27.2014041,10.7861635 27.0687143,10.3283019 C27.0592365,10.3018868 27.0497587,10.2666667 27.0402808,10.2402516 C27.030803,10.2138365 27.030803,10.1786164 27.0213251,10.1522013 C26.8981132,9.38616352 27.5805178,8.38238994 28.3482229,8.57610063 C29.1822729,8.79622642 29.9689337,8.77861635 30.1395349,8.25031447 C30.310136,7.72201258 29.6751207,7.58113208 28.9737604,7.90691824 C28.2724002,8.2327044 27.4762615,7.74842767 28.3671786,5.69685535 C29.2580957,3.65408805 28.9642826,1.71698113 26.6611672,0.845283019 C24.3580518,-0.0264150943 23.7704256,1.91949686 23.1259324,1.92830189 C22.4814392,1.94591195 23.8841597,0.369811321 22.8889864,0.176100629 C21.8938131,-0.0176100629 21.9127688,1.12704403 22.017025,1.77861635 C22.1212813,2.43018868 21.3346204,3.06415094 20.9365511,2.52704403 C20.5384818,1.98113208 20.3394471,0.114465409 19.5338306,0.704402516 C18.7282141,1.30314465 20.2067573,3.01132075 20.2920579,3.86540881 C20.3584028,4.53459119 19.6380869,4.8163522 19.3158403,4.91320755 C19.211584,4.93962264 19.0978499,4.96603774 18.9935937,4.9836478 C17.5908732,5.20377358 19.0030715,1.97232704 16.6810004,2.36855346 C14.2451953,2.78238994 16.3777095,6.48050314 13.8660816,6.01383648 C11.3449759,5.54716981 11.8567793,-0.158490566 10.0370338,0.0264150943 C8.22676613,0.211320755 8.12250987,2.08679245 10.0370338,3.5836478 C11.9515577,5.08050314 10.8426503,7.04402516 10.8426503,7.04402516 C10.6246599,7.59874214 10.0559895,7.27295597 9.23141729,6.67421384 C8.43527863,6.08427673 6.41649846,6.8591195 8.62483545,8.35597484 C10.8426503,9.85283019 9.82852128,11.2528302 6.9093462,10.0377358 C3.99017113,8.82264151 -0.341202282,6.8591195 0.0663448881,10.4075472 C0.464414217,13.9647799 8.21728828,10.8742138 8.92812637,12.7496855 C9.62948662,14.6163522 8.12250987,14.3433962 6.40702062,14.2465409 C4.69153137,14.1496855 3.79113646,16.4918239 5.70566038,17.5220126 C7.62018429,18.5522013 9.82852128,15.7433962 9.62948662,18.3672956 C9.43045195,20.9823899 6.51127688,18.8339623 4.49249671,22.7610063 C2.48319438,26.6880503 8.61535761,29.0301887 9.22193945,24.4427673 C9.82852128,19.8641509 14.9560333,19.0188679 15.6668714,20.5157233 C16.3682317,22.0125786 12.7476964,22.3823899 12.946731,24.072956 C13.1457657,25.754717 16.2734533,24.7245283 17.2781044,24.072956 C18.2827556,23.4213836 19.9982448,24.072956 20.1972795,25.9396226 C20.3963142,27.8062893 20.8986398,29.408805 22.4150943,28.836478 C25.059412,27.8415094 21.4104432,25.472956 21.4104432,23.1308176 C21.4104432,20.7886792 25.3342694,20.3220126 26.3389206,22.1974843 C27.3435717,24.0641509 30.1679684,24.8125786 30.8693287,22.1974843 C31.5706889,19.5823899 23.5240018,19.4855346 24.225362,16.4918239 C24.9267222,13.4981132 31.1726196,13.7798742 33.3904344,13.2163522 C35.5987714,12.6704403 35.5987714,8.92830189 33.3904344,8.83144654 Z" id="Path"></path>
                            </g>
                        </g>
                    </g>
                </g>
            </g>
        </g>
    </g>
</svg>