<?xml version="1.0" encoding="UTF-8"?>
<svg width="33px" height="32px" viewBox="0 0 33 32" version="1.1" xmlns="http://www.w3.org/2000/svg" xmlns:xlink="http://www.w3.org/1999/xlink">
    <!-- Generator: Sketch 52.4 (67378) - http://www.bohemiancoding.com/sketch -->
    <title>Path</title>
    <desc>Created with Sketch.</desc>
    <g id="Page-1" stroke="none" stroke-width="1" fill="none" fill-rule="evenodd">
        <g id="iPhone-8-Copy-17" transform="translate(-220.000000, -22.000000)" fill="#08C455">
            <g id="Left-skillBox" transform="translate(138.000000, 10.000000)">
                <g id="Rectangle">
                    <g id="Mask" transform="translate(13.752381, 12.739130)">
                        <path d="M100.040614,19.8623769 C99.126611,17.9339908 97.4357062,16.5665898 95.2786599,16.0143701 C92.4452517,15.295608 89.1000021,15.90042 86.3762742,17.4869559 C85.1789308,16.7331322 83.7713667,16.3211588 82.3272425,16.3211588 C81.0476388,16.3211588 79.7954552,16.6367129 78.698652,17.2327595 C78.6163918,14.0596878 79.3567339,9.23872254 79.6949149,7.2402133 L83.8262069,8.08169088 L87.6558779,6.54774738 C88.2499796,6.31108181 88.6795609,5.83775068 88.8349413,5.24170406 C88.9903218,4.64565745 88.8440813,4.03208005 88.4419202,3.55874891 L85.4074314,0 L75.8652439,0 L73.6899176,5.4082465 C70.4360682,11.6053782 69.0833443,21.1158279 69.001084,25.665066 C68.973664,26.9272824 69.4672254,28.1106102 70.3903681,29.0134456 C71.3135107,29.9162809 72.5382743,30.4071428 73.8544381,30.4071428 L81.5503403,30.4071428 C82.7019836,30.4071428 83.8353469,30.1529464 84.8498898,29.6620845 C85.1697907,29.7059115 85.4896917,29.7585038 85.8370127,29.8110962 C87.6284578,30.0915887 89.776364,30.433439 91.85115,30.433439 C92.3812716,30.433439 92.9022531,30.4071428 93.4140945,30.3633158 C96.5034235,30.0565271 98.6696097,28.7504838 99.8395331,26.4802474 C100.954616,24.3502573 101.027737,21.9397747 100.040614,19.8623769 Z" id="Path"></path>
                    </g>
                </g>
            </g>
        </g>
    </g>
</svg>