<svg xmlns="http://www.w3.org/2000/svg" viewBox="0 0 243.8 176.2">
  <defs>
    <style>
      .cls-1 {
        fill: #39b54a;
      }

      .cls-2 {
        fill: #f5fafd;
      }

      .cls-2, .cls-4 {
        opacity: 0.5;
      }

      .cls-3, .cls-4 {
        fill: #fff;
      }

      .cls-3 {
        opacity: 0.4;
      }
    </style>
  </defs>
  <title>shield</title>
  <g id="Calque_2" data-name="Calque 2">
    <g id="game">
      <g id="ici">
        <g id="shield">
          <g>
            <path class="cls-1" d="M208.2,101.7c0,39.7-40.4,50.5-86.2,52.6-47.4,2.1-86.2-12.9-86.2-52.6S74.4,29.9,122,29.9,208.2,62.1,208.2,101.7Z"/>
            <path class="cls-2" d="M79.3,77.4c-8.2-.1-11.5-4.9-8.8-10.5,5.4-11.1,13.6-19.7,26.2-22.4,2.8-.6,7.1,1.1,9,3.2s1.3,6.2,0,8.4C99.3,67.5,89.7,74.9,79.3,77.4Z"/>
            <path class="cls-2" d="M61.4,87.4a3,3,0,0,1-.2,5,29.3,29.3,0,0,1-4.3,2.2c-.5.2-3.1-3.2-2.8-3.7A19.8,19.8,0,0,1,59.2,86C59.4,85.8,60.1,86.4,61.4,87.4Z"/>
            <path class="cls-3" d="M243.8,101.6c0,56.1-57,71.4-121.9,74.3C54.8,178.9,0,157.7,0,101.6S54.6,0,121.9,0,243.8,45.5,243.8,101.6Z"/>
            <path class="cls-4" d="M108.9,29.2C101.7,17.6,62,22.5,37.8,45.1,16.2,65.2,15.1,91.8,15,97c-.3,12.2-.6,22.6,5,25.8C39.4,133.8,121.7,49.7,108.9,29.2Z"/>
            <ellipse class="cls-4" cx="40.7" cy="132.3" rx="6" ry="3.8" transform="translate(-96.7 115.3) rotate(-65.9)"/>
          </g>
        </g>
      </g>
    </g>
  </g>
</svg>
