<svg xmlns="http://www.w3.org/2000/svg" viewBox="0 0 350.9 185.1">
  <defs>
    <style>
      .cls-1 {
        fill: #08c455;
      }

      .cls-2, .cls-5 {
        opacity: 0.5;
      }

      .cls-3 {
        fill: #138742;
      }

      .cls-4 {
        fill: #39b54a;
      }

      .cls-5 {
        fill: #f5fafd;
      }
    </style>
  </defs>
  <title>strong_2</title>
  <g id="Calque_2" data-name="Calque 2">
    <g id="game">
      <g id="ici">
        <g id="strong">
          <path class="cls-1" d="M110.6,164.3H61a15.8,15.8,0,0,1-7.7-2L8.1,137.2A15.9,15.9,0,0,1,0,123.4V91.7a14.7,14.7,0,0,1,1.3-6.2L33.8,9.6A15.8,15.8,0,0,1,48.3,0H81.8A15.8,15.8,0,0,1,97.3,18.9h0A15.8,15.8,0,0,1,81.8,31.6H63.2l-6.3,69.5h0A31.5,31.5,0,0,1,88.5,69.5h0a27.6,27.6,0,0,1,18.9,7.4l14,13.2a15.7,15.7,0,0,1,5,11.5v46.9A15.8,15.8,0,0,1,110.6,164.3Z"/>
          <path class="cls-1" d="M240.4,164.3H290a15.4,15.4,0,0,0,7.6-2l45.2-25.1a15.9,15.9,0,0,0,8.1-13.8V91.7a16.3,16.3,0,0,0-1.2-6.2L317.1,9.6A15.8,15.8,0,0,0,302.6,0H269.1a15.8,15.8,0,0,0-15.5,18.9h0a15.8,15.8,0,0,0,15.5,12.7h18.7l6.3,69.5h0a31.6,31.6,0,0,0-31.6-31.6h0a28,28,0,0,0-19,7.4l-14,13.2a16,16,0,0,0-4.9,11.5v46.9A15.8,15.8,0,0,0,240.4,164.3Z"/>
          <g class="cls-2">
            <path class="cls-3" d="M94.8,132.7H71a28.8,28.8,0,0,1-21.9-10,5.6,5.6,0,0,1,.3-8.1,3.8,3.8,0,0,1,1.2-.9l1-.5a6,6,0,0,1,7.1,1.6,16.4,16.4,0,0,0,12.2,5.3H94.8Z"/>
            <path class="cls-3" d="M282.8,132.7H259.1V120h23.7a16,16,0,0,0,12.2-5.3,5.8,5.8,0,0,1,7.1-1.5l1.2.5a5.8,5.8,0,0,1,2.6,7.7,4.2,4.2,0,0,1-.9,1.4A29,29,0,0,1,282.8,132.7Z"/>
          </g>
          <path class="cls-4" d="M263.2,132.4c0,39.6-40.3,50.5-86.2,52.5S90.8,172,90.8,132.4,129.4,60.5,177,60.5,263.2,92.7,263.2,132.4Z"/>
          <path class="cls-5" d="M124.5,108c-8.2,0-11.5-4.9-8.8-10.4,5.4-11.2,13.6-19.8,26.2-22.5,2.7-.6,7,1.1,9,3.2s1.2,6.2,0,8.5C144.5,98.2,134.9,105.6,124.5,108Z"/>
          <path class="cls-5" d="M111.1,118a3,3,0,0,1-.3,5,18.9,18.9,0,0,1-4.2,2.2c-.5.2-3.2-3.2-2.9-3.6a19.1,19.1,0,0,1,5.2-5C109.1,116.5,109.8,117,111.1,118Z"/>
        </g>
      </g>
    </g>
  </g>
</svg>
