<?xml version="1.0" encoding="UTF-8"?>
<svg width="33px" height="32px" viewBox="0 0 33 32" version="1.1" xmlns="http://www.w3.org/2000/svg" xmlns:xlink="http://www.w3.org/1999/xlink">
    <!-- Generator: Sketch 52.4 (67378) - http://www.bohemiancoding.com/sketch -->
    <title>Path</title>
    <desc>Created with Sketch.</desc>
    <g id="Page-1" stroke="none" stroke-width="1" fill="none" fill-rule="evenodd">
        <g id="iPhone-8-Copy-17" transform="translate(-151.000000, -22.000000)" fill="#BDC3C7">
            <g id="Left-skillBox" transform="translate(138.000000, 10.000000)">
                <g id="Rectangle">
                    <g id="Mask" transform="translate(13.752381, 12.739130)">
                        <path d="M31.0850337,19.9043509 C30.1710311,17.9759648 28.4801262,16.6085638 26.32308,16.0563441 C23.4896718,15.337582 20.1444221,15.942394 17.4206943,17.5289299 C16.2233508,16.7751062 14.8157868,16.3631328 13.3716626,16.3631328 C12.0920589,16.3631328 10.8398753,16.6786869 9.7430721,17.2747335 C9.66081186,14.1016618 10.401154,9.28069655 10.739335,7.28218731 L14.8706269,8.12366489 L18.700298,6.58972139 C19.2943997,6.35305582 19.7239809,5.87972469 19.8793614,5.28367807 C20.0347418,4.68763145 19.8885014,4.07405406 19.4863402,3.60072292 L16.4518515,0.041974008 L6.90966392,0.041974008 L4.73433764,5.45022051 C1.48048824,11.6473522 0.127764334,21.1578019 0.0455040962,25.7070401 C0.018084017,26.9692564 0.511645442,28.1525843 1.43478811,29.0554196 C2.35793077,29.9582549 3.58269431,30.4491168 4.89885811,30.4491168 L12.5947603,30.4491168 C13.7464037,30.4491168 14.8797669,30.1949205 15.8943099,29.7040585 C16.2142108,29.7478855 16.5341117,29.8004778 16.8814327,29.8530702 C18.6728779,30.1335627 20.8207841,30.475413 22.8955701,30.475413 C23.4256916,30.475413 23.9466731,30.4491168 24.4585146,30.4052898 C27.5478435,30.0985011 29.7140298,28.7924578 30.8839532,26.5222215 C31.9990364,24.3922313 32.0721566,21.9817487 31.0850337,19.9043509 Z" id="Path"></path>
                    </g>
                </g>
            </g>
        </g>
    </g>
</svg>