<?xml version="1.0" encoding="UTF-8"?>
<svg width="368px" height="288px" viewBox="0 0 368 288" version="1.1" xmlns="http://www.w3.org/2000/svg" xmlns:xlink="http://www.w3.org/1999/xlink">
    <!-- Generator: Sketch 52.4 (67378) - http://www.bohemiancoding.com/sketch -->
    <title>Compétence principale Copy 2</title>
    <desc>Created with Sketch.</desc>
    <defs>
        <rect id="path-1" x="0" y="1" width="352" height="46" rx="6"></rect>
        <filter x="-3.6%" y="-25.0%" width="107.1%" height="154.3%" filterUnits="objectBoundingBox" id="filter-2">
            <feOffset dx="0" dy="1" in="SourceAlpha" result="shadowOffsetOuter1"></feOffset>
            <feGaussianBlur stdDeviation="4" in="shadowOffsetOuter1" result="shadowBlurOuter1"></feGaussianBlur>
            <feColorMatrix values="0 0 0 0 0   0 0 0 0 0   0 0 0 0 0  0 0 0 0.14 0" type="matrix" in="shadowBlurOuter1"></feColorMatrix>
        </filter>
        <rect id="path-3" x="0" y="1" width="352" height="46" rx="6"></rect>
        <filter x="-3.7%" y="-23.9%" width="107.4%" height="156.5%" filterUnits="objectBoundingBox" id="filter-4">
            <feOffset dx="0" dy="2" in="SourceAlpha" result="shadowOffsetOuter1"></feOffset>
            <feGaussianBlur stdDeviation="4" in="shadowOffsetOuter1" result="shadowBlurOuter1"></feGaussianBlur>
            <feColorMatrix values="0 0 0 0 0   0 0 0 0 0   0 0 0 0 0  0 0 0 0.14 0" type="matrix" in="shadowBlurOuter1"></feColorMatrix>
        </filter>
    </defs>
    <g id="Page-1" stroke="none" stroke-width="1" fill="none" fill-rule="evenodd">
        <g id="Website+NavHover" transform="translate(-256.000000, -3899.000000)">
            <g id="Group-6" transform="translate(140.000000, 3188.000000)">
                <g id="Compétence-principale-Copy-2" transform="translate(124.000000, 707.000000)">
                    <g id="Principal" transform="translate(0.000000, 49.000000)">
                        <g id="Slot">
                            <rect id="Global-BG" fill="#FFFFFF" x="8" y="1" width="336" height="114" rx="6"></rect>
                            <rect id="Global-BG-Copy" fill="#FFFFFF" x="8" y="129" width="336" height="114" rx="6"></rect>
                            <text id="Permet-à-Green-d’eff" opacity="0.804338728" font-family="Dosis-Regular, Dosis" font-size="18" font-weight="normal" fill="#1E1E24">
                                <tspan x="21" y="75">Permet à Green d’effectuer un saut géant </tspan>
                                <tspan x="21" y="97">toutes les 10 secondes.</tspan>
                            </text>
                            <text id="Green-se-colle-contr" opacity="0.8" font-family="Dosis-Regular, Dosis" font-size="18" font-weight="normal" fill="#1E1E24">
                                <tspan x="21" y="204">Green se colle contre la paroie et peut </tspan>
                                <tspan x="21" y="226">s’accrocher à partir de rien.</tspan>
                            </text>
                            <g id="Global-BG">
                                <use fill="black" fill-opacity="1" filter="url(#filter-2)" xlink:href="#path-1"></use>
                                <use fill="#E2E2E2" fill-rule="evenodd" xlink:href="#path-1"></use>
                            </g>
                            <text id="Name" font-family="FredokaOne-Regular, Fredoka One" font-size="21" font-weight="normal" fill="#38383E">
                                <tspan x="65" y="20">Extensible</tspan>
                            </text>
                            <g id="Left-skillBox" transform="translate(0.000000, 1.000000)">
                                <g id="Rectangle">
                                    <path d="M5,4.54747351e-13 L50,4.54747351e-13 L50,46 L5,46 C2.23857625,46 3.38176876e-16,43.7614237 0,41 L0,5 C-3.38176876e-16,2.23857625 2.23857625,4.55254616e-13 5,4.54747351e-13 Z" fill="#08C455"></path>
                                    <g id="Mask" transform="translate(8.250345, 7.501787)" fill="#FFFFFF">
                                        <path d="M31.919006,19.5666336 C30.9802117,17.6703078 29.2434422,16.3256405 27.0278877,15.7826018 C24.1176254,15.0757895 20.6816383,15.6705462 17.8840313,17.2307051 C16.6542108,16.4894141 15.2084676,16.08429 13.7251726,16.08429 C12.4108606,16.08429 11.1247124,16.3945978 9.99815923,16.9807349 C9.91366774,13.8604171 10.6740911,9.11960278 11.021445,7.15431976 L15.2647952,7.98180735 L19.1983433,6.47336643 C19.8085596,6.24063555 20.2497929,5.77517378 20.4093879,5.18903674 C20.568983,4.6028997 20.4187759,3.99952334 20.0057064,3.53406157 L16.8889093,0.0344786495 L7.08789692,0.0344786495 L4.8535665,5.35281033 C1.51145881,11.4469116 0.122043258,20.7992453 0.0375517717,25.27285 C0.00938794294,26.5140814 0.516336861,27.6777358 1.4645191,28.5655611 C2.41270133,29.4533863 3.67068569,29.9360874 5.02254947,29.9360874 L12.9271974,29.9360874 C14.1100782,29.9360874 15.2741832,29.6861172 16.3162448,29.2034161 C16.6448228,29.2465144 16.9734008,29.2982324 17.3301427,29.3499503 C19.1701795,29.6257795 21.3763461,29.9619464 23.5074091,29.9619464 C24.0519098,29.9619464 24.5870225,29.9360874 25.1127474,29.8929891 C28.2858721,29.5913009 30.5108145,28.3069712 31.7124712,26.0744786 C32.8578003,23.9799007 32.9329038,21.6094935 31.919006,19.5666336 Z" id="Path"></path>
                                    </g>
                                </g>
                            </g>
                            <g id="right-Part" transform="translate(236.000000, 1.000000)">
                                <path d="M0,0 L107,0 C111.970563,-9.13077564e-16 116,4.02943725 116,9 L116,37 C116,41.9705627 111.970563,46 107,46 L0,46 L0,0 Z" id="Rectangle" fill="#ECECEC"></path>
                                <rect id="Rectangle" fill="#1E1E24" x="12" y="11" width="97" height="27" rx="13.5"></rect>
                                <text id="Équiper" font-family="FredokaOne-Regular, Fredoka One" font-size="18" font-weight="normal" fill="#FFFFFF">
                                    <tspan x="27.263" y="31">Équiper</tspan>
                                </text>
                            </g>
                        </g>
                    </g>
                    <g id="Principal-Copy-4" transform="translate(0.000000, 177.000000)">
                        <g id="Slot">
                            <g id="Global-BG">
                                <use fill="black" fill-opacity="1" filter="url(#filter-4)" xlink:href="#path-3"></use>
                                <use fill="#E2E2E2" fill-rule="evenodd" xlink:href="#path-3"></use>
                            </g>
                            <text id="Name" font-family="FredokaOne-Regular, Fredoka One" font-size="21" font-weight="normal" fill="#38383E">
                                <tspan x="65" y="20">Gluant</tspan>
                            </text>
                            <g id="Left-skillBox" transform="translate(0.000000, 1.000000)">
                                <g id="Rectangle" fill="#08C455">
                                    <path d="M5,4.54747351e-13 L50,4.54747351e-13 L50,46 L5,46 C2.23857625,46 3.38176876e-16,43.7614237 0,41 L0,5 C-3.38176876e-16,2.23857625 2.23857625,4.55254616e-13 5,4.54747351e-13 Z"></path>
                                </g>
                                <g id="Mask" transform="translate(7.000000, 9.000000)" fill="#FFFFFF">
                                    <path d="M33.3904344,8.83144654 C31.1726196,8.73459119 31.6749452,13.0402516 28.1586661,11.4465409 C27.5331286,11.1647799 27.2014041,10.7861635 27.0687143,10.3283019 C27.0592365,10.3018868 27.0497587,10.2666667 27.0402808,10.2402516 C27.030803,10.2138365 27.030803,10.1786164 27.0213251,10.1522013 C26.8981132,9.38616352 27.5805178,8.38238994 28.3482229,8.57610063 C29.1822729,8.79622642 29.9689337,8.77861635 30.1395349,8.25031447 C30.310136,7.72201258 29.6751207,7.58113208 28.9737604,7.90691824 C28.2724002,8.2327044 27.4762615,7.74842767 28.3671786,5.69685535 C29.2580957,3.65408805 28.9642826,1.71698113 26.6611672,0.845283019 C24.3580518,-0.0264150943 23.7704256,1.91949686 23.1259324,1.92830189 C22.4814392,1.94591195 23.8841597,0.369811321 22.8889864,0.176100629 C21.8938131,-0.0176100629 21.9127688,1.12704403 22.017025,1.77861635 C22.1212813,2.43018868 21.3346204,3.06415094 20.9365511,2.52704403 C20.5384818,1.98113208 20.3394471,0.114465409 19.5338306,0.704402516 C18.7282141,1.30314465 20.2067573,3.01132075 20.2920579,3.86540881 C20.3584028,4.53459119 19.6380869,4.8163522 19.3158403,4.91320755 C19.211584,4.93962264 19.0978499,4.96603774 18.9935937,4.9836478 C17.5908732,5.20377358 19.0030715,1.97232704 16.6810004,2.36855346 C14.2451953,2.78238994 16.3777095,6.48050314 13.8660816,6.01383648 C11.3449759,5.54716981 11.8567793,-0.158490566 10.0370338,0.0264150943 C8.22676613,0.211320755 8.12250987,2.08679245 10.0370338,3.5836478 C11.9515577,5.08050314 10.8426503,7.04402516 10.8426503,7.04402516 C10.6246599,7.59874214 10.0559895,7.27295597 9.23141729,6.67421384 C8.43527863,6.08427673 6.41649846,6.8591195 8.62483545,8.35597484 C10.8426503,9.85283019 9.82852128,11.2528302 6.9093462,10.0377358 C3.99017113,8.82264151 -0.341202282,6.8591195 0.0663448881,10.4075472 C0.464414217,13.9647799 8.21728828,10.8742138 8.92812637,12.7496855 C9.62948662,14.6163522 8.12250987,14.3433962 6.40702062,14.2465409 C4.69153137,14.1496855 3.79113646,16.4918239 5.70566038,17.5220126 C7.62018429,18.5522013 9.82852128,15.7433962 9.62948662,18.3672956 C9.43045195,20.9823899 6.51127688,18.8339623 4.49249671,22.7610063 C2.48319438,26.6880503 8.61535761,29.0301887 9.22193945,24.4427673 C9.82852128,19.8641509 14.9560333,19.0188679 15.6668714,20.5157233 C16.3682317,22.0125786 12.7476964,22.3823899 12.946731,24.072956 C13.1457657,25.754717 16.2734533,24.7245283 17.2781044,24.072956 C18.2827556,23.4213836 19.9982448,24.072956 20.1972795,25.9396226 C20.3963142,27.8062893 20.8986398,29.408805 22.4150943,28.836478 C25.059412,27.8415094 21.4104432,25.472956 21.4104432,23.1308176 C21.4104432,20.7886792 25.3342694,20.3220126 26.3389206,22.1974843 C27.3435717,24.0641509 30.1679684,24.8125786 30.8693287,22.1974843 C31.5706889,19.5823899 23.5240018,19.4855346 24.225362,16.4918239 C24.9267222,13.4981132 31.1726196,13.7798742 33.3904344,13.2163522 C35.5987714,12.6704403 35.5987714,8.92830189 33.3904344,8.83144654 Z" id="Path"></path>
                                </g>
                            </g>
                        </g>
                        <g id="right-Part" transform="translate(236.000000, 1.000000)">
                            <path d="M0,0 L107,0 C111.970563,-9.13077564e-16 116,4.02943725 116,9 L116,37 C116,41.9705627 111.970563,46 107,46 L0,46 L0,0 Z" id="Rectangle" fill="#FFFFFF" opacity="0.605515253"></path>
                            <rect id="Rectangle" fill="#FF3C3C" x="12" y="10" width="48" height="27" rx="13.5"></rect>
                            <text id="50" font-family="FredokaOne-Regular, Fredoka One" font-size="18" font-weight="normal" fill="#FFFFFF">
                                <tspan x="25.758" y="28">50</tspan>
                            </text>
                            <g id="count-copy" transform="translate(84.500000, 22.500000) scale(-1, 1) translate(-84.500000, -22.500000) translate(65.000000, 10.000000)">
                                <path d="M20.9992555,9.3880189 C21.0693907,14.7784702 16.1739555,16.4379759 10.5911956,16.9205272 C4.82608425,17.4266176 0.0709194042,15.5552601 0.000784229539,10.1648088 C-0.0693509451,4.77435753 4.57359762,0.219543893 10.3737766,0.00769209538 C16.1739555,-0.204159702 20.9291204,3.98579807 20.9992555,9.3880189 Z" id="Path" fill="#138742"></path>
                                <path d="M39,10.7668704 C39,13.9489138 36.1937639,14.8260753 33,14.9847109 C29.6993318,15.152678 27,13.9489138 27,10.7668704 C27,7.58482703 29.6859688,5 33,5 C36.3140312,5 39,7.58482703 39,10.7668704 Z" id="Path" fill="#138742"></path>
                                <path d="M34,14.9554493 C34,23.2092631 28.1774828,22.9995093 21,22.9995093 C13.8225172,22.9995093 8,23.2092631 8,14.9554493 C8,6.7016354 13.8161259,0 20.9936087,0 C28.1710914,0 34,6.69114771 34,14.9554493 Z" id="Path" fill="#08C455"></path>
                                <path d="M11,21.6130559 C11,24.1623763 9.36413043,24.8543347 7.5,24.9878705 C5.57880435,25.1214063 4,24.1623763 4,21.6130559 C4,19.0637355 5.56612319,17 7.5,17 C9.43387681,17 11,19.0758752 11,21.6130559 Z" id="Path" fill="#39B54A"></path>
                                <path d="M35,20.8813353 C35,22.4694728 34.0623306,22.9118826 33,22.9912894 C31.899729,23.0820402 31,22.4694728 31,20.8813353 C31,19.2931977 31.8943089,18 33,18 C34.1056911,18 35,19.2818539 35,20.8813353 Z" id="Path" fill="#39B54A"></path>
                                <g id="Group" transform="translate(11.000000, 5.000000)" fill="#F5FAFD" opacity="0.5">
                                    <path d="M3.02931034,5.20493827 C1.84655172,5.20493827 1.36982759,4.4345679 1.75603448,3.5654321 C2.54051724,1.80740741 3.72327586,0.464197531 5.53965517,0.0395061728 C5.93793103,-0.049382716 6.55948276,0.207407407 6.83706897,0.543209877 C7.04224138,0.790123457 7.01810345,1.51111111 6.83706897,1.86666667 C5.91982759,3.65432099 4.53189655,4.81975309 3.02931034,5.20493827 Z" id="Path"></path>
                                    <path d="M1.10431034,6.77530864 C1.34568966,6.98271605 1.32155172,7.38765432 1.06206897,7.55555556 C0.844827586,7.7037037 0.651724138,7.82222222 0.452586207,7.90123457 C0.380172414,7.9308642 1.65145675e-15,7.39753086 0.0422413793,7.32839506 C0.229310345,7.02222222 0.500862069,6.7654321 0.784482759,6.54814815 C0.814655172,6.52839506 0.917241379,6.61728395 1.10431034,6.77530864 Z" id="Path"></path>
                                </g>
                            </g>
                        </g>
                    </g>
                    <g id="Principale-Title"></g>
                    <g id="Principale-Title-Copy">
                        <text id="Compétence-principal" font-family="FredokaOne-Regular, Fredoka One" font-size="24" font-weight="normal" fill="#FFFFFF">
                            <tspan x="0.856" y="23">Compétence principale</tspan>
                        </text>
                        <circle id="Oval" fill="#08C455" cx="271" cy="20" r="3"></circle>
                    </g>
                </g>
            </g>
        </g>
    </g>
</svg>