<?xml version="1.0" encoding="UTF-8"?>
<svg width="33px" height="31px" viewBox="0 0 33 31" version="1.1" xmlns="http://www.w3.org/2000/svg" xmlns:xlink="http://www.w3.org/1999/xlink">
    <!-- Generator: Sketch 52.4 (67378) - http://www.bohemiancoding.com/sketch -->
    <title>Mask</title>
    <desc>Created with Sketch.</desc>
    <g id="Page-1" stroke="none" stroke-width="1" fill="none" fill-rule="evenodd">
        <g id="BurgerMenuAlternative-Copy-7" transform="translate(-19.000000, -343.000000)" fill="#FFFFFF">
            <g id="Compétence-principale-Copy-2" transform="translate(10.000000, 296.000000)">
                <g id="Principal" transform="translate(1.000000, 40.000000)">
                    <g id="Slot">
                        <g id="Left-skillBox">
                            <g id="Rectangle">
                                <g id="Mask" transform="translate(8.250345, 7.501787)">
                                    <path d="M31.919006,19.5666336 C30.9802117,17.6703078 29.2434422,16.3256405 27.0278877,15.7826018 C24.1176254,15.0757895 20.6816383,15.6705462 17.8840313,17.2307051 C16.6542108,16.4894141 15.2084676,16.08429 13.7251726,16.08429 C12.4108606,16.08429 11.1247124,16.3945978 9.99815923,16.9807349 C9.91366774,13.8604171 10.6740911,9.11960278 11.021445,7.15431976 L15.2647952,7.98180735 L19.1983433,6.47336643 C19.8085596,6.24063555 20.2497929,5.77517378 20.4093879,5.18903674 C20.568983,4.6028997 20.4187759,3.99952334 20.0057064,3.53406157 L16.8889093,0.0344786495 L7.08789692,0.0344786495 L4.8535665,5.35281033 C1.51145881,11.4469116 0.122043258,20.7992453 0.0375517717,25.27285 C0.00938794294,26.5140814 0.516336861,27.6777358 1.4645191,28.5655611 C2.41270133,29.4533863 3.67068569,29.9360874 5.02254947,29.9360874 L12.9271974,29.9360874 C14.1100782,29.9360874 15.2741832,29.6861172 16.3162448,29.2034161 C16.6448228,29.2465144 16.9734008,29.2982324 17.3301427,29.3499503 C19.1701795,29.6257795 21.3763461,29.9619464 23.5074091,29.9619464 C24.0519098,29.9619464 24.5870225,29.9360874 25.1127474,29.8929891 C28.2858721,29.5913009 30.5108145,28.3069712 31.7124712,26.0744786 C32.8578003,23.9799007 32.9329038,21.6094935 31.919006,19.5666336 Z" id="Path"></path>
                                </g>
                            </g>
                        </g>
                    </g>
                </g>
            </g>
        </g>
    </g>
</svg>