<svg xmlns="http://www.w3.org/2000/svg" viewBox="0 0 254.5 270.4">
  <defs>
    <style>
      .cls-1 {
        fill: #08c455;
      }

      .cls-2 {
        fill: #39b54a;
      }

      .cls-3 {
        fill: #f5fafd;
        opacity: 0.5;
      }
    </style>
  </defs>
  <title>sticky_1</title>
  <g id="Calque_2" data-name="Calque 2">
    <g id="game">
      <g id="ici">
        <g id="shield">
          <g>
            <path class="cls-1" d="M131.8,198.9c-7-1-22.6.8-33.4,23s-15.6,49.5-31.7,48.4S49.8,251.6,72,232.6s32.1-41.3,25.4-44.7-22.8,16.9-25,24-19.3,10.9-13.6-2.3,25.4-13.6,20-26.3-14.9-14.6-24.3-20-18.8-13.4-4.4-33.5-18.2-23.3-29.6-22.4S2.3,105.7.3,102.1s7-18.4,16.1-12.7,28.8,17.2,36.4,13.1,10.1-15.6,8.6-21.3-10.8-24.9-.6-29.7S72.5,66.3,81.5,65.8s16.7-18.4,12-32.7-12-18.6-12-24.8S89.3-4.4,99.1,3.9s-3.9,19.2,8,37.7,29.8,13.9,36.5,5.5,8,3.8,15.5,10.9,8.9,10.2,19.8,4.4,10.9-18.1,19.2-21.7,6.7,9.6-1.2,14-12.1,17.2-7.3,19.7S210,82.9,221.9,64,232,35,240.8,32.3s17.4,10.3,5.6,15.9-30.1,29.6-33.1,37.1-1.5,9.7,7.3,19.3-5.1,11.1-7.6,20-1.5,19.4,10.1,25.9,19.2-3.2,27.9,1.7-.6,19.6-8.9,13.4-25.3-11.5-34.6-4.5-11.9,16.8-12.8,26.4-8.7,15.1-23.5,14.4-5.7,27.1,3.5,39.6,13.5,22.7,3.8,27.4-21.7-1.2-23-22.2S150.8,201.7,131.8,198.9Z"/>
            <path class="cls-2" d="M200.5,134c0,30.3-30.8,38.5-65.7,40.1S69.1,164.3,69.1,134s29.4-54.7,65.7-54.7S200.5,103.8,200.5,134Z"/>
            <path class="cls-3" d="M102.2,115.5c-6.2,0-8.7-3.8-6.7-8,4.2-8.5,10.4-15,20-17.1a8.6,8.6,0,0,1,6.9,2.5c1.1,1.2.9,4.7,0,6.4C117.5,108,110.2,113.6,102.2,115.5Z"/>
            <path class="cls-3" d="M88.6,123.1a2.3,2.3,0,0,1-.2,3.8,16.6,16.6,0,0,1-3.2,1.7c-.4.1-2.4-2.4-2.2-2.8a15.7,15.7,0,0,1,3.9-3.8C87.1,121.9,87.6,122.3,88.6,123.1Z"/>
          </g>
        </g>
      </g>
    </g>
  </g>
</svg>
