<svg xmlns="http://www.w3.org/2000/svg" viewBox="0 0 284.2 284.3">
  <defs>
    <style>
      .cls-1 {
        fill: #08c455;
      }

      .cls-2 {
        fill: #39b54a;
      }

      .cls-3 {
        fill: #f5fafd;
        opacity: 0.5;
      }
    </style>
  </defs>
  <title>jumpy</title>
  <g id="Calque_2" data-name="Calque 2">
    <g id="game">
      <g id="ici">
        <g id="jumpy">
          <path class="cls-1" d="M51.5,177.8C54,185.9,18.6,246.9.7,276.9a4.9,4.9,0,0,0,6.7,6.7c39.7-23.1,136.4-79,142.3-76.1s5.4,9.5,3.8,16.4a4.9,4.9,0,0,0,8,4.9l93-78.4h0l4.6-4.3a85.6,85.6,0,1,0-121-121c-3.6,3.6-9.7,11.5-9.7,11.5L33.7,162.8a5,5,0,0,0,3.7,7.9C43.3,170.9,49.9,172.5,51.5,177.8Z"/>
          <path class="cls-2" d="M164.3,174.5c-41,0-53.7-12.7-53.7-53.7S152.8,16.1,193.9,16.1a74.4,74.4,0,0,1,74.3,74.4C268.2,131.5,205.4,174.5,164.3,174.5Z"/>
          <path class="cls-3" d="M189.1,40.1c-4.5-4.5-3.6-9.1.9-10.7,9.3-3.2,18.6-3.4,27.1,2.2a8.3,8.3,0,0,1,3.2,6.7c0,1.7-2.7,4.2-4.7,4.7C205.8,45.8,196.3,44.6,189.1,40.1Z"/>
          <path class="cls-3" d="M176.1,38.3a2.3,2.3,0,0,1-2.9,2.6,17,17,0,0,1-3.6-1.1c-.4-.2,0-3.5.4-3.6a13.7,13.7,0,0,1,5.7.1C175.9,36.3,176,37,176.1,38.3Z"/>
        </g>
      </g>
    </g>
  </g>
</svg>
