<?xml version="1.0" encoding="UTF-8"?>
<svg width="100px" height="72px" viewBox="0 0 100 72" version="1.1" xmlns="http://www.w3.org/2000/svg" xmlns:xlink="http://www.w3.org/1999/xlink">
    <!-- Generator: Sketch 52.4 (67378) - http://www.bohemiancoding.com/sketch -->
    <title>icon_slime-parts</title>
    <desc>Created with Sketch.</desc>
    <g id="Page-1" stroke="none" stroke-width="1" fill="none" fill-rule="evenodd">
        <g id="BurgerMenuAlternative-Copy-7" transform="translate(-129.000000, -179.000000)">
            <g id="slimeParts" transform="translate(128.000000, 179.000000)">
                <g id="icon_slime-parts" transform="translate(0.000000, 0.500000)">
                    <g id="groupleft" transform="translate(25.276080, 36.615355) scale(-1, 1) translate(-25.276080, -36.615355) translate(0.276080, 20.115355)">
                        <path d="M24.5791968,11.3948089 C24.6612886,17.9375272 18.9312823,19.9517701 12.3967767,20.537472 C5.64883238,21.1517447 0.0830097042,18.8803643 0.000917924551,12.3376461 C-0.0811738554,5.79492783 5.35330197,0.266473762 12.1422922,0.00933636353 C18.9312823,-0.247801035 24.497105,4.83780528 24.5791968,11.3948089 Z" id="Path" fill="#138742"></path>
                        <path d="M39.9426108,17.250358 C39.9426108,26.7707168 33.061944,26.5287763 24.5800682,26.5287763 C16.0981924,26.5287763 9.21752557,26.7707168 9.21752557,17.250358 C9.21752557,7.72999911 16.0906395,0 24.5725153,0 C33.0543912,0 39.9426108,7.71790208 39.9426108,17.250358 Z" id="Path" fill="#15A550"></path>
                        <path d="M49.1601363,29.9266725 C49.1601363,31.7992167 47.719638,32.3208541 46.087628,32.4144813 C44.3973319,32.5214838 43.0151194,31.7992167 43.0151194,29.9266725 C43.0151194,28.0541283 44.3890054,26.5293423 46.087628,26.5293423 C47.7862506,26.5293423 49.1601363,28.040753 49.1601363,29.9266725 Z" id="Path" fill="#39B54A"></path>
                        <g id="reflet3" opacity="0.5" transform="translate(11.489298, 5.895410)" fill="#F5FAFD">
                            <path d="M4.78969994,5.75348287 C3.23225598,5.75348287 2.6045107,4.90192374 3.11306384,3.94119038 C4.14606239,1.99788874 5.70350638,0.513118966 8.09529534,0.0436696994 C8.61974077,-0.054587124 9.43819344,0.229265921 9.80371602,0.600458365 C10.0738849,0.873393985 10.0421003,1.670366 9.80371602,2.06339329 C8.59590231,4.0394472 6.76828951,5.3277033 4.78969994,5.75348287 Z" id="Path"></path>
                            <path d="M2.25488042,7.48935343 C2.57272613,7.71861935 2.54094156,8.16623377 2.19925742,8.35183 C1.91319628,8.51559137 1.65891972,8.64660047 1.39669701,8.73393985 C1.30134329,8.76669212 0.800736302,8.17715118 0.856359301,8.10072922 C1.10268973,7.76228904 1.46026615,7.47843601 1.83373486,7.23825265 C1.87346557,7.21641782 2.00855,7.31467464 2.25488042,7.48935343 Z" id="Path"></path>
                        </g>
                    </g>
                    <g id="groupdown" transform="translate(37.055668, 7.205500)">
                        <path d="M24.6018192,11.3948089 C24.6839865,17.9375272 18.9487064,19.9517701 12.4081865,20.537472 C5.65403149,21.1517447 0.0830861052,18.8803643 0.000918769396,12.3376461 C-0.0812485667,5.79492783 5.35822908,0.266473762 12.1534678,0.00933636353 C18.9487064,-0.247801035 24.5196518,4.83780528 24.6018192,11.3948089 Z" id="Path" fill="#138742"></path>
                        <path d="M52.2807191,12.6950218 C52.2807191,16.4469115 48.6848359,17.4811568 44.592378,17.6682011 C40.3629345,17.8662481 36.9040369,16.4469115 36.9040369,12.6950218 C36.9040369,8.94313212 40.3458112,5.89540941 44.592378,5.89540941 C48.8389451,5.89540941 52.2807191,8.94313212 52.2807191,12.6950218 Z" id="Path" fill="#138742"></path>
                        <path d="M39.9793734,17.250358 C39.9793734,26.7707168 33.0923738,26.5287763 24.6026913,26.5287763 C16.113009,26.5287763 9.22600925,26.7707168 9.22600925,17.250358 C9.22600925,7.72999911 16.1054491,0 24.5951315,0 C33.084814,0 39.9793734,7.71790208 39.9793734,17.250358 Z" id="Path" fill="#15A550"></path>
                        <path d="M15.3766821,28.6808601 C15.3766821,31.4988515 13.2206039,32.2637348 10.7636775,32.4113439 C8.23153907,32.5589529 6.15067284,31.4988515 6.15067284,28.6808601 C6.15067284,25.8628687 8.21482529,23.5816376 10.7636775,23.5816376 C13.3125297,23.5816376 15.3766821,25.8762877 15.3766821,28.6808601 Z" id="Path" fill="#39B54A"></path>
                        <path d="M49.2053826,29.9266725 C49.2053826,31.7992167 47.7635585,32.3208541 46.1300464,32.4144813 C44.4381947,32.5214838 43.0547099,31.7992167 43.0547099,29.9266725 C43.0547099,28.0541283 44.4298605,26.5293423 46.1300464,26.5293423 C47.8302324,26.5293423 49.2053826,28.040753 49.2053826,29.9266725 Z" id="Path" fill="#39B54A"></path>
                        <g id="reflet2" opacity="0.5" transform="translate(11.499873, 5.895410)" fill="#F5FAFD">
                            <path d="M4.79410832,5.75348287 C3.2352309,5.75348287 2.60690786,4.90192374 3.11592906,3.94119038 C4.14987837,1.99788874 5.70875581,0.513118966 8.10274614,0.0436696994 C8.62767426,-0.054587124 9.44688022,0.229265921 9.81273923,0.600458365 C10.0831567,0.873393985 10.0513429,1.670366 9.81273923,2.06339329 C8.60381386,4.0394472 6.77451895,5.3277033 4.79410832,5.75348287 Z" id="Path"></path>
                            <path d="M2.25695578,7.48935343 C2.57509404,7.71861935 2.54328021,8.16623377 2.20128159,8.35183 C1.91495716,8.51559137 1.66044657,8.64660047 1.39798251,8.73393985 C1.30254103,8.76669212 0.801473289,8.17715118 0.857147483,8.10072922 C1.10370463,7.76228904 1.46161016,7.47843601 1.8354226,7.23825265 C1.87518988,7.21641782 2.01039864,7.31467464 2.25695578,7.48935343 Z" id="Path"></path>
                        </g>
                    </g>
                    <g id="groupfront" transform="translate(57.251696, 46.115355) scale(-1, 1) translate(-57.251696, -46.115355) translate(15.251696, 20.115355)">
                        <path d="M44.2516851,20.4551712 C44.3994808,32.2002054 34.0833409,35.8160347 22.3188032,36.8674462 C10.1699967,37.970146 0.149448305,33.8927213 0.00165260519,22.147687 C-0.146143095,10.4026528 9.63793222,0.478355226 21.8606366,0.0167599926 C34.0833409,-0.444835241 44.1038894,8.68449271 44.2516851,20.4551712 Z" id="Path" fill="#138742"></path>
                        <path d="M73.7554233,32.1135597 C73.7554233,49.8368217 61.2024966,49.386421 45.7283624,49.386421 C30.254228,49.386421 17.7013016,49.8368217 17.7013016,32.1135597 C17.7013016,14.3902978 30.2404487,0 45.7145831,0 C61.1887173,0 73.7554233,14.3677778 73.7554233,32.1135597 Z" id="Path" fill="#08C455"></path>
                        <path d="M24.5500194,44.7397155 C24.5500194,49.6578598 21.1027551,50.9927847 17.1744771,51.2504019 C13.1259457,51.5080187 9.79893479,49.6578598 9.79893479,44.7397155 C9.79893479,39.8215711 13.0992228,35.8402161 17.1744771,35.8402161 C21.2497315,35.8402161 24.5500194,39.8449908 24.5500194,44.7397155 Z" id="Path" fill="#39B54A"></path>
                        <path d="M83.9758175,45.7165243 C83.9758175,47.5684407 81.9010714,48.0843316 79.5504921,48.1769274 C77.1159634,48.2827512 75.1251667,47.5684407 75.1251667,45.7165243 C75.1251667,43.8646082 77.1039708,42.356619 79.5504921,42.356619 C81.9970134,42.356619 83.9758175,43.8513802 83.9758175,45.7165243 Z" id="Path" fill="#39B54A"></path>
                        <g id="reflet1" opacity="0.5" transform="translate(23.297891, 12.346870)" fill="#F5FAFD">
                            <path d="M6.68750198,10.0413577 C4.19507732,10.0413577 3.1904776,8.55516055 4.00433054,6.87842531 C5.65746934,3.48684718 8.14989399,0.895529056 11.9775461,0.076215239 C12.816832,-0.0952690487 14.1266266,0.400130006 14.7115834,1.04795954 C15.1439428,1.52430478 15.0930769,2.91523289 14.7115834,3.60117004 C12.7786826,7.0499096 9.8538986,9.29825915 6.68750198,10.0413577 Z" id="Path"></path>
                            <path d="M2.6309537,13.0709135 C3.13961179,13.4710435 3.08874599,14.2522497 2.54193854,14.5761644 C2.08414626,14.8619716 1.67721979,15.0906173 1.25757686,15.2430478 C1.10497943,15.3002092 0.303842939,14.2713035 0.392858105,14.1379268 C0.787068126,13.5472587 1.35930848,13.0518596 1.95698174,12.6326758 C2.020564,12.5945682 2.23674369,12.7660525 2.6309537,13.0709135 Z" id="Path"></path>
                        </g>
                    </g>
                    <g id="icon_slime-parts-copy" opacity="0.125093006" transform="translate(3.758655, 0.000000)">
                        <g id="groupleft" transform="translate(20.508147, 21.905271) scale(-1, 1) translate(-20.508147, -21.905271) translate(0.508147, 6.905271)">
                            <path d="M24.5791968,11.3948089 C24.6612886,17.9375272 18.9312823,19.9517701 12.3967767,20.537472 C5.64883238,21.1517447 0.0830097042,18.8803643 0.000917924551,12.3376461 C-0.0811738554,5.79492783 5.35330197,0.266473762 12.1422922,0.00933636353 C18.9312823,-0.247801035 24.497105,4.83780528 24.5791968,11.3948089 Z" id="Path" fill="#138742"></path>
                            <path d="M39.9426108,17.250358 C39.9426108,26.7707168 33.061944,26.5287763 24.5800682,26.5287763 C16.0981924,26.5287763 9.21752557,26.7707168 9.21752557,17.250358 C9.21752557,7.72999911 16.0906395,0 24.5725153,0 C33.0543912,0 39.9426108,7.71790208 39.9426108,17.250358 Z" id="Path" fill="#15A550"></path>
                            <path d="M37.9941906,27.1154356 C37.9941906,28.9879799 36.5536923,29.5096172 34.9216823,29.6032444 C33.2313863,29.7102469 31.8491737,28.9879799 31.8491737,27.1154356 C31.8491737,25.2428914 33.2230598,23.7181054 34.9216823,23.7181054 C36.6203049,23.7181054 37.9941906,25.2295161 37.9941906,27.1154356 Z" id="Path" fill="#39B54A"></path>
                            <g id="reflet3" opacity="0.5" transform="translate(11.489298, 5.895410)" fill="#F5FAFD">
                                <path d="M4.78969994,5.75348287 C3.23225598,5.75348287 2.6045107,4.90192374 3.11306384,3.94119038 C4.14606239,1.99788874 5.70350638,0.513118966 8.09529534,0.0436696994 C8.61974077,-0.054587124 9.43819344,0.229265921 9.80371602,0.600458365 C10.0738849,0.873393985 10.0421003,1.670366 9.80371602,2.06339329 C8.59590231,4.0394472 6.76828951,5.3277033 4.78969994,5.75348287 Z" id="Path"></path>
                                <path d="M2.25488042,7.48935343 C2.57272613,7.71861935 2.54094156,8.16623377 2.19925742,8.35183 C1.91319628,8.51559137 1.65891972,8.64660047 1.39669701,8.73393985 C1.30134329,8.76669212 0.800736302,8.17715118 0.856359301,8.10072922 C1.10268973,7.76228904 1.46026615,7.47843601 1.83373486,7.23825265 C1.87346557,7.21641782 2.00855,7.31467464 2.25488042,7.48935343 Z" id="Path"></path>
                            </g>
                        </g>
                        <g id="groupdown" transform="translate(33.297014, 0.000000)">
                            <path d="M24.6018192,12.8959549 C24.6839865,19.4386731 18.9487064,21.4529161 12.4081865,22.0386179 C5.65403149,22.6528906 0.0830861052,20.3815102 0.000918769397,13.838792 C-0.0812485667,7.29607374 5.35822908,1.76761967 12.1534678,1.51048228 C18.9487064,1.25334488 24.5196518,6.3389512 24.6018192,12.8959549 Z" id="Path" fill="#138742"></path>
                            <path d="M63.1504428,24.5131342 C63.1504428,28.2650239 59.5545596,29.2992691 55.4621017,29.4863135 C51.2326582,29.6843604 47.7737606,28.2650239 47.7737606,24.5131342 C47.7737606,20.7612445 51.2155349,17.7135218 55.4621017,17.7135218 C59.7086688,17.7135218 63.1504428,20.7612445 63.1504428,24.5131342 Z" id="Path" fill="#138742"></path>
                            <path d="M52.3867652,17.250358 C52.3867652,26.7707168 45.4997656,26.5287763 37.0100831,26.5287763 C28.5204007,26.5287763 21.633401,26.7707168 21.633401,17.250358 C21.633401,7.72999911 28.5128409,0 37.0025233,0 C45.4922058,0 52.3867652,7.71790208 52.3867652,17.250358 Z" id="Path" fill="#15A550"></path>
                            <path d="M9.36740403,22.6762764 C9.36740403,25.4942678 7.2113258,26.2591512 4.75439942,26.4067602 C2.22226101,26.5543693 0.141394774,25.4942678 0.141394774,22.6762764 C0.141394774,19.8582851 2.20554722,17.577054 4.75439942,17.577054 C7.30325161,17.577054 9.36740403,19.8717041 9.36740403,22.6762764 Z" id="Path" fill="#39B54A"></path>
                            <path d="M43.1961046,23.9220889 C43.1961046,25.7946331 41.7542804,26.3162704 40.1207684,26.4098976 C38.4289166,26.5169002 37.0454319,25.7946331 37.0454319,23.9220889 C37.0454319,22.0495447 38.4205824,20.5247587 40.1207684,20.5247587 C41.8209543,20.5247587 43.1961046,22.0361694 43.1961046,23.9220889 Z" id="Path" fill="#39B54A"></path>
                            <g id="reflet2" opacity="0.5" transform="translate(24.037112, 5.704354)" fill="#F5FAFD">
                                <path d="M4.79410832,5.75348287 C3.2352309,5.75348287 2.60690786,4.90192374 3.11592906,3.94119038 C4.14987837,1.99788874 5.70875581,0.513118966 8.10274614,0.0436696994 C8.62767426,-0.054587124 9.44688022,0.229265921 9.81273923,0.600458365 C10.0831567,0.873393985 10.0513429,1.670366 9.81273923,2.06339329 C8.60381386,4.0394472 6.77451895,5.3277033 4.79410832,5.75348287 Z" id="Path"></path>
                                <path d="M2.25695578,7.48935343 C2.57509404,7.71861935 2.54328021,8.16623377 2.20128159,8.35183 C1.91495716,8.51559137 1.66044657,8.64660047 1.39798251,8.73393985 C1.30254103,8.76669212 0.801473289,8.17715118 0.857147483,8.10072922 C1.10370463,7.76228904 1.46161016,7.47843601 1.8354226,7.23825265 C1.87518988,7.21641782 2.01039864,7.31467464 2.25695578,7.48935343 Z" id="Path"></path>
                            </g>
                        </g>
                    </g>
                </g>
            </g>
        </g>
    </g>
</svg>