<svg height="25" viewBox="0 0 39 25" width="39" xmlns="http://www.w3.org/2000/svg"><g fill="none" fill-rule="evenodd" transform="matrix(-1 0 0 1 39 0)"><path d="m20.9992555 9.3880189c.0701352 5.3904513-4.8253 7.049957-10.4080599 7.5325083-5.76511135.5060904-10.5202762-1.3652671-10.59041137-6.7557184-.07013518-5.39045127 4.57281339-9.94526491 10.37299237-10.1571167 5.8001789-.2118518 10.5553438 3.97810597 10.6254789 9.3803268z" fill="#138742"/><path d="m39 10.7668704c0 3.1820434-2.8062361 4.0592049-6 4.2178405-3.3006682.1679671-6-1.0357971-6-4.2178405 0-3.18204337 2.6859688-5.7668704 6-5.7668704s6 2.58482703 6 5.7668704z" fill="#138742"/><path d="m34 14.9554493c0 8.2538138-5.8225172 8.04406-13 8.04406s-13 .2097538-13-8.04406c0-8.2538139 5.8161259-14.9554493 12.9936087-14.9554493 7.1774827 0 13.0063913 6.69114771 13.0063913 14.9554493z" fill="#08c455"/><path d="m11 21.6130559c0 2.5493204-1.63586957 3.2412788-3.5 3.3748146-1.92119565.1335358-3.5-.8254942-3.5-3.3748146s1.56612319-4.6130559 3.5-4.6130559 3.5 2.0758752 3.5 4.6130559z" fill="#39b54a"/><path d="m35 20.8813353c0 1.5881375-.9376694 2.0305473-2 2.1099541-1.100271.0907508-2-.5218166-2-2.1099541 0-1.5881376.8943089-2.8813353 2-2.8813353s2 1.2818539 2 2.8813353z" fill="#39b54a"/><g fill="#f5fafd" opacity=".5" transform="translate(11 5)"><path d="m3.02931034 5.20493827c-1.18275862 0-1.65948275-.77037037-1.27327586-1.63950617.78448276-1.75802469 1.96724138-3.10123457 3.78362069-3.52592593.39827586-.08888889 1.01982759.16790124 1.2974138.50370371.20517241.24691358.18103448.96790123 0 1.32345679-.91724138 1.78765432-2.30517242 2.95308642-3.80775863 3.3382716z"/><path d="m1.10431034 6.77530864c.24137932.20740741.21724138.61234568-.04224137.78024692-.21724138.14814814-.41034483.26666666-.60948276.34567901-.0724138.02962963-.45258621-.50370371-.41034483-.57283951.18706897-.30617284.45862069-.56296296.74224138-.78024691.03017241-.01975309.13275862.0691358.31982758.22716049z"/></g></g></svg>