<?xml version="1.0" encoding="UTF-8"?>
<svg width="112px" height="79px" viewBox="0 0 112 79" version="1.1" xmlns="http://www.w3.org/2000/svg" xmlns:xlink="http://www.w3.org/1999/xlink">
    <!-- Generator: Sketch 52.4 (67378) - http://www.bohemiancoding.com/sketch -->
    <title>Group 24 Copy</title>
    <desc>Created with Sketch.</desc>
    <defs>
        <polygon id="path-1" points="0 0.178100592 111.677832 0.178100592 111.677832 78.9999555 0 78.9999555"></polygon>
    </defs>
    <g id="Page-1" stroke="none" stroke-width="1" fill="none" fill-rule="evenodd">
        <g id="iPhone-8-Copy-24" transform="translate(-132.000000, -95.000000)">
            <g id="Group-24-Copy" transform="translate(132.000000, 95.000000)">
                <g id="Group-3">
                    <mask id="mask-2" fill="white">
                        <use xlink:href="#path-1"></use>
                    </mask>
                    <g id="Clip-2"></g>
                    <path d="M55.838653,78.8756568 C25.1233709,80.2223964 -4.78632479e-05,70.7227633 -4.78632479e-05,45.6236686 C-4.78632479e-05,20.524574 24.9998838,0.178100592 55.838653,0.178100592 C86.6779009,0.178100592 111.677832,20.524574 111.677832,45.6236686 C111.677832,70.7227633 85.5497641,77.5733254 55.838653,78.8756568 Z" id="Fill-1" fill="#04E762" mask="url(#mask-2)"></path>
                </g>
                <path d="M62.1061934,28.6626445 C60.2814789,27.6008419 59.3075956,26.5773783 58.5309788,26.7045515 C57.6681776,26.8452836 56.4165891,28.0141548 56.3859458,28.7757912 C56.3553025,29.526674 57.6418435,30.9555021 58.3480764,30.954567 C59.30185,30.9526968 60.2537084,29.868452 62.1061934,28.6626445 M97.9967131,49.0491601 C98.1911067,57.8357983 89.7316328,68.2644668 80.9326883,70.1669215 C78.5252718,70.6877704 76.1609475,71.3993792 73.7765135,72.0235564 C73.5462098,72.0329074 73.3149484,72.0422583 73.0846446,72.0516093 C69.930297,72.4845592 66.7759494,72.9175091 63.6216017,73.3504589 C62.9493637,73.3705635 62.2761681,73.3911357 61.6039301,73.4112402 C49.9197247,74.8050022 38.4471498,73.6585734 27.1287491,70.6662632 C26.9405799,70.6442884 26.7524107,70.6185733 26.5651991,70.5891177 C22.4709632,68.3575089 18.193346,66.3905325 14.326541,63.8316398 C8.78919579,60.16793 8.4588224,55.8379637 13.9621727,52.0971085 C18.1684483,49.2375821 23.475011,47.9695907 28.0087872,45.4981295 C29.9062795,44.4639123 31.0712048,42.1472097 32.5688975,40.41354 C33.1468115,39.7398026 33.7247256,39.0660653 34.3026396,38.392328 C33.4853246,37.97808 32.6684883,37.5638321 31.8516521,37.1495842 C27.7272516,34.2241334 27.3863446,31.330476 30.7729112,27.99218 C40.9014889,18.0058124 60.7176676,14.934019 73.3513373,21.3913308 C80.9714713,25.2860095 82.5663608,32.5068279 77.3129452,39.2367205 C76.8609561,39.8150779 76.5535652,40.5009715 76.1786632,41.1363699 C76.8839386,41.3261946 77.5949595,41.6983631 78.2940105,41.6773235 C84.5653592,41.4898365 90.8697452,41.0783939 96.0637894,45.565924 C96.4769955,46.2924943 96.8902017,47.0181295 97.3043654,47.7442323 C97.310111,47.9335894 97.3345299,48.1206088 97.3776221,48.3052905 C97.5839858,48.5530911 97.7903494,48.8013594 97.9967131,49.0491601" id="Fill-4" fill-opacity="0.6" fill="#08C455"></path>
                <path d="M22.2877474,30 C16.9890223,29.9840106 14.8571209,26.8867718 16.5918566,23.3597006 C20.0923567,16.2425412 25.4125631,10.7835755 33.5482541,9.07553253 C35.3283393,8.70166299 38.1046803,9.76777904 39.3501194,11.1254663 C40.2795444,12.1384412 40.153998,15.0574453 39.3415269,16.4922579 C35.2328668,23.7472082 29.024766,28.4480887 22.2877474,30" id="Fill-6" fill="#F5FAFD" opacity="0.64687965"></path>
                <path d="M13.1827607,36.8300934 C14.3493127,37.5891327 14.2513659,39.0751393 12.98894,39.7221401 C11.9265537,40.2669379 11.0035732,40.7039735 10.017886,40.9960433 C9.66755767,41.0995292 7.80656782,39.140994 8.0164539,38.87672 C8.91818666,37.7422235 10.2526475,36.7886135 11.6316767,36.0146072 C11.7876661,35.9269435 12.2722179,36.2382566 13.1827607,36.8300934" id="Fill-8" fill="#F5FAFD" opacity="0.64687965"></path>
                <path d="M62,74.565 C62.6663503,74.522 63.3336497,74.479 64,74.435 C63.3336497,74.478 62.6663503,74.522 62,74.565" id="Fill-10" fill="#BADCF1"></path>
                <path d="M99,50 C98.6666667,49.6666667 98.3333333,49.3333333 98,49 C98.3333333,49.3333333 98.6666667,49.6666667 99,50" id="Fill-12" fill="#BADCF1"></path>
                <path d="M27,71.4175 C27.3327674,71.4805 27.6655348,71.5355 28,71.5825 C27.6663837,71.5265 27.3336163,71.4725 27,71.4175" id="Fill-14" fill="#BADCF1"></path>
                <path d="M73,73.53 C73.332872,73.51 73.667128,73.49 74,73.47 C73.667128,73.49 73.333564,73.51 73,73.53" id="Fill-16" fill="#BADCF1"></path>
                <path d="M36,27 C40.8128263,27.8011962 44.8180884,29.4620603 48,32" id="Stroke-18" stroke="#000000" stroke-width="2" stroke-linecap="round"></path>
                <path d="M64,32 C67.1804317,29.1406892 71.2315725,27.5485628 76,27" id="Stroke-20" stroke="#000000" stroke-width="2" stroke-linecap="round"></path>
                <path d="M54,59 C54.3172448,58.295657 55.9409768,54.8767826 59.3147088,54.1393838 C59.7842768,54.036826 60.3483312,53.9726921 61,54.0113985" id="Stroke-22" stroke="#000000" stroke-width="3" stroke-linecap="round"></path>
            </g>
        </g>
    </g>
</svg>