<?xml version="1.0" encoding="UTF-8"?>
<svg width="159px" height="80px" viewBox="0 0 159 80" version="1.1" xmlns="http://www.w3.org/2000/svg" xmlns:xlink="http://www.w3.org/1999/xlink">
    <!-- Generator: Sketch 52.4 (67378) - http://www.bohemiancoding.com/sketch -->
    <title>Group 25</title>
    <desc>Created with Sketch.</desc>
    <defs>
        <polygon id="path-1" points="0 0.119485207 75.7813863 0.119485207 75.7813863 52.9999701 0 52.9999701"></polygon>
    </defs>
    <g id="Page-1" stroke="none" stroke-width="1" fill="none" fill-rule="evenodd">
        <g id="Victoire2-Copy" transform="translate(-108.000000, -95.000000)">
            <g id="Group-25" transform="translate(108.000000, 95.000000)">
                <path d="M47.2501603,70 L26.0489542,70 C24.9015455,70 23.7733672,69.7081078 22.7708269,69.1528736 L3.47171245,58.4615244 C1.32860094,57.2747804 0,55.0223104 0,52.5776604 L0,39.0739196 C0,38.162023 0.185465682,37.2603532 0.54571354,36.4221753 L14.4466656,4.07924613 C15.5107429,1.60434155 17.9504285,0 20.6507918,0 L34.9662639,0 C39.2259918,0 42.4207877,3.88578768 41.5853375,8.05068392 C40.9545832,11.1967274 38.1837088,13.4611287 34.9662639,13.4611287 L26.9997863,13.4611287 L24.2998504,43.0764642 C24.2998504,35.6428019 30.3450061,29.6153354 37.7999573,29.6153354 C40.8020227,29.606813 43.6968258,30.7321958 45.9001923,32.7647879 L51.8821016,38.3917016 C53.2337789,39.6632435 54,41.4346241 54,43.2873935 L54,63.2690095 C54,66.9864798 50.9782769,70 47.2501603,70" id="Fill-1" fill="#08C455"></path>
                <path d="M111.74984,70 L132.950618,70 C134.098027,70 135.226205,69.7081078 136.228746,69.1528736 L155.52786,58.4615244 C157.670972,57.2747804 159,55.0223104 159,52.5776604 L159,39.0739196 C159,38.162023 158.814534,37.2603532 158.454286,36.4221753 L144.553334,4.07924613 C143.489257,1.60434155 141.049571,0 138.348781,0 L124.033309,0 C119.773581,0 116.579212,3.88578768 117.414663,8.05068392 C118.045417,11.1967274 120.815864,13.4611287 124.033309,13.4611287 L132.000214,13.4611287 L134.70015,43.0764642 C134.70015,35.6428019 128.654994,29.6153354 121.200043,29.6153354 C118.19755,29.606813 115.303174,30.7321958 113.099808,32.7647879 L107.117898,38.3917016 C105.766221,39.6632435 105,41.4346241 105,43.2873935 L105,63.2690095 C105,66.9864798 108.021723,70 111.74984,70" id="Fill-3" fill="#08C455"></path>
                <g id="Group-9" transform="translate(24.000000, 48.000000)" fill="#138742">
                    <path d="M20.8645808,8.81455714 L10.5398577,8.81455714 C6.87431154,8.83341429 3.38391538,7.27084286 0.983969231,4.53612857 C0.0478076923,3.53712857 0.110826923,1.97712857 1.12391538,1.05398571 C1.28037692,0.912985714 1.45639615,0.788271429 1.64284615,0.690985714 L2.08180769,0.474128571 C3.14183462,-0.0238714286 4.41351923,0.2547 5.15758077,1.15127143 C6.52227308,2.61055714 8.44457692,3.43384286 10.4572808,3.42612857 L20.8645808,3.42612857 L20.8645808,8.81455714 Z" id="Fill-5"></path>
                    <path d="M102.585007,8.81455714 L92.2598496,8.81455714 L92.2598496,3.3987 L102.585007,3.3987 C104.597711,3.40684286 106.520015,2.58398571 107.884273,1.12427143 C108.628334,0.228128571 109.900019,-0.0508714286 110.96048,0.447557143 L111.482019,0.690985714 C112.719803,1.29184286 113.227869,2.77041429 112.618973,3.98884286 C112.514665,4.19798571 112.379934,4.38955714 112.223473,4.5627 C109.801361,7.30855714 106.275761,8.86298571 102.585007,8.81455714" id="Fill-7"></path>
                </g>
                <g id="Group-24-Copy" transform="translate(42.000000, 27.000000)">
                    <g id="Group-3">
                        <mask id="mask-2" fill="white">
                            <use xlink:href="#path-1"></use>
                        </mask>
                        <g id="Clip-2"></g>
                        <path d="M37.8905145,52.9165799 C17.0480017,53.8200888 -3.24786325e-05,47.4469172 -3.24786325e-05,30.608284 C-3.24786325e-05,13.7696509 16.9642068,0.119485207 37.8905145,0.119485207 C58.817147,0.119485207 75.7813863,13.7696509 75.7813863,30.608284 C75.7813863,47.4469172 58.0516256,52.0428639 37.8905145,52.9165799 Z" id="Fill-1" fill="#04E762" mask="url(#mask-2)"></path>
                    </g>
                    <path d="M42.52695,19.2353659 C41.2828265,18.514857 40.6188152,17.8203639 40.0893037,17.90666 C39.5010302,18.0021567 38.6476744,18.7953193 38.6267812,19.312144 C38.605888,19.8216717 39.4830751,20.7912336 39.9645976,20.7905991 C40.6148977,20.78933 41.2638921,20.0535924 42.52695,19.2353659 M66.9977589,33.0690729 C67.1303,39.0314346 61.3624769,46.108031 55.3631966,47.3989824 C53.7217763,47.7524157 52.1097369,48.235293 50.4839865,48.6588418 C50.3269612,48.6651871 50.169283,48.6715324 50.0122577,48.6778777 C47.8615661,48.9716652 45.7108746,49.2654526 43.560183,49.55924 C43.1018389,49.5728824 42.6428419,49.586842 42.1844978,49.6004844 C34.2179941,50.5462515 26.3957839,49.7683176 18.6786926,47.7378215 C18.5503954,47.72291 18.4220982,47.7054604 18.294454,47.6854727 C15.5029294,46.1711668 12.5863723,44.8364328 9.94991432,43.1000413 C6.17445167,40.6139525 5.94919709,37.6757611 9.70148137,35.1373236 C12.5693966,33.1969307 16.1875075,32.336508 19.2787185,30.659445 C20.5724633,29.9576548 21.3667306,28.3856066 22.3878847,27.2091878 C22.781917,26.7520089 23.1759492,26.29483 23.5699815,25.8376511 C23.0127213,25.5565543 22.4557875,25.2754575 21.8988537,24.9943607 C19.0867625,23.0092334 18.8543258,21.0456801 21.1633485,18.7804078 C28.0691969,12.0039441 41.5802279,9.91951288 50.1940936,14.3012602 C55.3896395,16.9440779 56.4770642,21.843919 52.8951899,26.4106318 C52.5870155,26.8030886 52.3774308,27.2685164 52.1218158,27.6996796 C52.6026854,27.8284892 53.0874724,28.0810321 53.564098,28.0667552 C57.8400176,27.9395319 62.1384626,27.6603387 65.6798564,30.7054484 C65.9615879,31.1984783 66.2433193,31.6908736 66.5257037,32.1835862 C66.5296211,32.3120785 66.5462704,32.4389846 66.5756514,32.5643042 C66.7163539,32.7324547 66.8570564,32.9009224 66.9977589,33.0690729" id="Fill-4" fill-opacity="0.6" fill="#08C455"></path>
                    <path d="M15.1918316,20 C11.6593482,19.9893404 10.2380806,17.9245145 11.3945711,15.5731337 C13.7282378,10.8283608 17.275042,7.18905036 22.6988361,6.05035502 C23.8855596,5.80110866 25.7364535,6.51185269 26.5667463,7.41697754 C27.1863629,8.09229411 27.1026654,10.0382969 26.5610179,10.9948386 C23.8219112,15.8314721 19.6831773,18.9653924 15.1918316,20" id="Fill-6" fill="#F5FAFD" opacity="0.64687965"></path>
                    <path d="M8.45517381,24.498056 C9.23287513,24.9534796 9.16757724,25.8450836 8.32596,26.2332841 C7.61770247,26.5601628 7.00238215,26.8223841 6.34525735,26.997626 C6.11170512,27.0597175 4.87104522,25.8845964 5.01096927,25.726032 C5.61212444,25.0453341 6.50176499,24.4731681 7.42111782,24.0087643 C7.52511075,23.9561661 7.84814529,24.1429539 8.45517381,24.498056" id="Fill-8" fill="#F5FAFD" opacity="0.64687965"></path>
                    <path d="M42,49.565 C42.3331751,49.522 42.6668249,49.479 43,49.435 C42.6668249,49.478 42.3331751,49.522 42,49.565" id="Fill-10" fill="#BADCF1"></path>
                    <path d="M67,34 C66.6666667,33.6666667 66.3333333,33.3333333 66,33 C66.3333333,33.3333333 66.6666667,33.6666667 67,34" id="Fill-12" fill="#BADCF1"></path>
                    <path d="M18,47.4175 C18.3327674,47.4805 18.6655348,47.5355 19,47.5825 C18.6663837,47.5265 18.3336163,47.4725 18,47.4175" id="Fill-14" fill="#BADCF1"></path>
                    <path d="M49,49.53 C49.332872,49.51 49.667128,49.49 50,49.47 C49.667128,49.49 49.333564,49.51 49,49.53" id="Fill-16" fill="#BADCF1"></path>
                    <path d="M25,18 C28.2085509,18.4807177 30.8787256,19.4772362 33,21" id="Stroke-18" stroke="#000000" stroke-width="2" stroke-linecap="round"></path>
                    <path d="M44,21 C46.1202878,19.2844135 48.8210483,18.3291377 52,18" id="Stroke-20" stroke="#000000" stroke-width="2" stroke-linecap="round"></path>
                    <path d="M34,37 C34.3625654,36.5773942 36.2182592,34.5260695 40.0739529,34.0836303 C40.6106021,34.0220956 41.2552356,33.9836153 42,34.0068391" id="Stroke-22" stroke="#000000" stroke-width="3" stroke-linecap="round" transform="translate(38.000000, 35.500000) scale(1, -1) translate(-38.000000, -35.500000) "></path>
                </g>
                <path d="M56.9296141,46 C53.6182709,45.9893912 52.2856571,43.9244976 53.3699201,41.5727424 C55.5578296,36.8284944 58.8829028,33.1892573 63.9678337,32.0502982 C65.0803643,31.801204 66.8151851,32.5119925 67.5937546,33.4171339 C68.1748549,34.0922769 68.0961096,36.0383522 67.5885049,36.9948401 C65.0205986,41.8315967 61.1406735,44.9654314 56.9296141,46" id="Fill-13" fill="#F5FAFD" opacity="0.65"></path>
                <path d="M51.4552168,50.6641876 C52.2329224,51.2717156 52.1674511,52.4603775 51.3261448,52.9776098 C50.6176517,53.4133444 50.0026891,53.7634139 49.3447025,53.9967936 C49.111344,54.0801434 47.8711304,52.5127027 48.0109584,52.3010866 C48.6118915,51.3939621 49.501366,50.6308477 50.4207702,50.0117433 C50.5250566,49.941359 50.8482043,50.1909456 51.4552168,50.6641876" id="Fill-15" fill="#F5FAFD" opacity="0.65"></path>
                <path d="M84,77.0208939 L85,76.9791061 L84,77.0208939 Z" id="Fill-17" fill="#BADCF1"></path>
                <path d="M108.206873,61 L107.793127,60 L108.206873,61 Z" id="Fill-19" fill="#BADCF1"></path>
                <path d="M59.8115395,74.9737211 C59.9367466,74.9939688 60.0623869,75.0116316 60.1884605,75.0262789 C60.0628202,75.008616 59.9371798,74.991384 59.8115395,74.9737211" id="Fill-21" fill="#BADCF1"></path>
                <path d="M92,76.009693 C92.3327085,76.003231 92.6672915,75.9971998 93,75.990307 C92.6672915,75.996769 92.3327085,76.0028002 92,76.009693" id="Fill-23" fill="#BADCF1"></path>
            </g>
        </g>
    </g>
</svg>