<?xml version="1.0" encoding="UTF-8"?>
<svg width="335px" height="238px" viewBox="0 0 335 238" version="1.1" xmlns="http://www.w3.org/2000/svg" xmlns:xlink="http://www.w3.org/1999/xlink">
    <!-- Generator: Sketch 52.4 (67378) - http://www.bohemiancoding.com/sketch -->
    <title>slimeParts</title>
    <desc>Created with Sketch.</desc>
    <g id="Page-1" stroke="none" stroke-width="1" fill="none" fill-rule="evenodd">
        <g id="Website+NavHover" transform="translate(-813.000000, -3469.000000)">
            <g id="Group-6" transform="translate(140.000000, 3188.000000)">
                <g id="Group" transform="translate(100.000000, 281.000000)">
                    <g id="slimeParts" transform="translate(573.000000, 0.000000)">
                        <g id="icon_slime-parts" transform="translate(0.000000, 24.000000)">
                            <g id="groupleft" transform="translate(82.000000, 97.000000) scale(-1, 1) translate(-82.000000, -97.000000) translate(0.000000, 43.000000)">
                                <path d="M81.8041587,37.953702 C82.0773754,59.7461147 63.0068443,66.4551326 41.2587887,68.4059818 C18.8003694,70.4519943 0.276271803,62.8865061 0.00305502439,41.0940934 C-0.270161755,19.3016807 17.816789,0.887567823 40.4118166,0.0310974551 C63.0068443,-0.825372912 81.5309419,16.1137077 81.8041587,37.953702 Z" id="Path" fill="#138742"></path>
                                <path d="M132.93647,57.4572991 C132.93647,89.1676039 110.036326,88.3617511 81.8070588,88.3617511 C53.5777917,88.3617511 30.677647,89.1676039 30.677647,57.4572991 C30.677647,25.7469945 53.5526543,0 81.7819214,0 C110.011189,0 132.93647,25.7067018 132.93647,57.4572991 Z" id="Path" fill="#15A550"></path>
                                <path d="M163.614117,99.6794258 C163.614117,105.916475 158.81987,107.653939 153.388236,107.965791 C147.762615,108.322194 143.162353,105.916475 143.162353,99.6794258 C143.162353,93.4423765 147.734902,88.3636363 153.388236,88.3636363 C159.041569,88.3636363 163.614117,93.3978262 163.614117,99.6794258 Z" id="Path" fill="#39B54A"></path>
                                <g id="reflet3" opacity="0.5" transform="translate(38.238531, 19.636366)" fill="#F5FAFD">
                                    <path d="M15.9410162,19.1636363 C10.7575517,19.1636363 8.66829817,16.3272727 10.360858,13.1272728 C13.7988702,6.65454545 18.9823347,1.70909091 26.9426552,0.145454546 C28.6881076,-0.181818181 31.4120709,0.763636364 32.6285984,2 C33.5277708,2.90909091 33.4219858,5.56363636 32.6285984,6.87272727 C28.6087687,13.4545455 22.5261319,17.7454545 15.9410162,19.1636363 Z" id="Path"></path>
                                    <path d="M7.50466328,24.9454545 C8.56251319,25.7090909 8.45672819,27.2 7.31953955,27.8181819 C6.36747464,28.3636364 5.52119473,28.8 4.64846856,29.0909091 C4.33111359,29.2 2.665,27.2363636 2.85012373,26.9818182 C3.6699574,25.8545454 4.86003854,24.9090909 6.10301217,24.1090909 C6.23524341,24.0363637 6.68482961,24.3636364 7.50466328,24.9454545 Z" id="Path"></path>
                                </g>
                            </g>
                            <g id="groupdown" transform="translate(120.000000, 0.000000)">
                                <path d="M81.8794501,37.953702 C82.1529183,59.7461147 63.0648349,66.4551326 41.2967627,68.4059818 C18.817673,70.4519943 0.27652608,62.8865061 0.00305783619,41.0940934 C-0.270410408,19.3016807 17.8331874,0.887567823 40.4490111,0.0310974551 C63.0648349,-0.825372912 81.6059818,16.1137077 81.8794501,37.953702 Z" id="Path" fill="#138742"></path>
                                <path d="M174,42.2844365 C174,54.7811887 162.032229,58.2260412 148.411764,58.8490464 C134.335386,59.5086991 122.823529,54.7811887 122.823529,42.2844365 C122.823529,29.7876843 134.278397,19.6363637 148.411764,19.6363637 C162.545133,19.6363637 174,29.7876843 174,42.2844365 Z" id="Path" fill="#138742"></path>
                                <path d="M133.058823,57.4572991 C133.058823,89.1676039 110.137602,88.3617511 81.8823529,88.3617511 C53.627104,88.3617511 30.7058823,89.1676039 30.7058823,57.4572991 C30.7058823,25.7469945 53.6019434,0 81.8571924,0 C110.112442,0 133.058823,25.7067018 133.058823,57.4572991 Z" id="Path" fill="#15A550"></path>
                                <path d="M51.1764706,95.5298877 C51.1764706,104.916022 44.0006394,107.463687 35.8235294,107.955341 C27.3960998,108.446996 20.4705882,104.916022 20.4705882,95.5298877 C20.4705882,86.1437536 27.3404732,78.5454545 35.8235294,78.5454545 C44.3065857,78.5454545 51.1764706,86.1884495 51.1764706,95.5298877 Z" id="Path" fill="#39B54A"></path>
                                <path d="M163.764706,99.6794258 C163.764706,105.916475 158.966045,107.653939 153.529412,107.965791 C147.898613,108.322194 143.294118,105.916475 143.294118,99.6794258 C143.294118,93.4423765 147.870876,88.3636363 153.529412,88.3636363 C159.187949,88.3636363 163.764706,93.3978262 163.764706,99.6794258 Z" id="Path" fill="#39B54A"></path>
                                <g id="reflet2" opacity="0.5" transform="translate(38.273725, 19.636366)" fill="#F5FAFD">
                                    <path d="M15.9556881,19.1636363 C10.7674528,19.1636363 8.67627636,16.3272727 10.370394,13.1272728 C13.8115705,6.65454545 18.9998058,1.70909091 26.9674528,0.145454546 C28.7145117,-0.181818181 31.4409822,0.763636364 32.6586293,2 C33.5586293,2.90909091 33.4527469,5.56363636 32.6586293,6.87272727 C28.6350998,13.4545455 22.5468646,17.7454545 15.9556881,19.1636363 Z" id="Path"></path>
                                    <path d="M7.51157047,24.9454545 C8.57039401,25.7090909 8.46451165,27.2 7.32627636,27.8181819 C6.37333518,28.3636364 5.52627636,28.8 4.65274695,29.0909091 C4.33509989,29.2 2.66745283,27.2363636 2.85274695,26.9818182 C3.67333518,25.8545454 4.86451166,24.9090909 6.1086293,24.1090909 C6.24098225,24.0363637 6.69098224,24.3636364 7.51157047,24.9454545 Z" id="Path"></path>
                                </g>
                            </g>
                            <g id="groupfront" transform="translate(187.000000, 128.500000) scale(-1, 1) translate(-187.000000, -128.500000) translate(47.000000, 43.000000)">
                                <path d="M147.277875,68.1318551 C147.769767,107.252084 113.435726,119.295647 74.2811466,122.797677 C33.847649,126.470537 0.497391877,112.889497 0.0055001788,73.769268 C-0.48639152,34.6490393 32.0768389,1.59330023 72.7562824,0.0558239958 C113.435726,-1.48165224 146.785983,28.9262111 147.277875,68.1318551 Z" id="Path" fill="#138742"></path>
                                <path d="M245.471827,106.963485 C245.471827,165.995928 203.693342,164.495738 152.192533,164.495738 C100.691723,164.495738 58.9132384,165.995928 58.9132384,106.963485 C58.9132384,47.9310429 100.645863,0 152.146673,0 C203.647482,0 245.471827,47.8560334 245.471827,106.963485 Z" id="Path" fill="#08C455"></path>
                                <path d="M81.7070509,149.018543 C81.7070509,165.399843 70.2339112,169.846196 57.1598683,170.704265 C43.6855995,171.562332 32.6126856,165.399843 32.6126856,149.018543 C32.6126856,132.637243 43.5966605,119.37619 57.1598683,119.37619 C70.7230761,119.37619 81.7070509,132.715249 81.7070509,149.018543 Z" id="Path" fill="#39B54A"></path>
                                <path d="M279.487208,152.272087 C279.487208,158.44043 272.582066,160.158753 264.758899,160.46717 C256.656333,160.819647 250.030589,158.44043 250.030589,152.272087 C250.030589,146.103746 256.616419,141.080952 264.758899,141.080952 C272.901379,141.080952 279.487208,146.059686 279.487208,152.272087 Z" id="Path" fill="#39B54A"></path>
                                <g id="reflet1" opacity="0.5" transform="translate(77.539734, 41.124815)" fill="#F5FAFD">
                                    <path d="M22.2572559,33.4456419 C13.962001,33.4456419 10.6185055,28.495433 13.3271601,22.910582 C18.8291149,11.6139516 27.1243697,2.98281815 39.8635111,0.253856865 C42.6568112,-0.317321081 47.0160522,1.33274854 48.9628978,3.49053189 C50.4018706,5.07713728 50.2325796,9.71002506 48.9628978,11.9947369 C42.5298429,23.48176 32.7956154,30.9705375 22.2572559,33.4456419 Z" id="Path"></path>
                                    <path d="M8.75630543,43.5364523 C10.4492146,44.8692007 10.2799237,47.4712337 8.46004632,48.5501253 C6.93642809,49.5020886 5.58210077,50.2636592 4.18545072,50.7713728 C3.67757798,50.9617655 1.01124606,47.5346979 1.30750517,47.0904484 C2.61950976,45.1230577 4.52403255,43.472988 6.5132008,42.0767752 C6.72481444,41.9498469 7.44430084,42.5210247 8.75630543,43.5364523 Z" id="Path"></path>
                                </g>
                            </g>
                        </g>
                        <g id="icon_slime-parts-copy" opacity="0.125093006" transform="translate(11.000000, 0.000000)">
                            <g id="groupleft" transform="translate(66.500000, 72.500000) scale(-1, 1) translate(-66.500000, -72.500000) translate(0.000000, 23.000000)">
                                <path d="M81.8041587,37.953702 C82.0773754,59.7461147 63.0068443,66.4551326 41.2587887,68.4059818 C18.8003694,70.4519943 0.276271803,62.8865061 0.00305502439,41.0940934 C-0.270161755,19.3016807 17.816789,0.887567823 40.4118166,0.0310974551 C63.0068443,-0.825372912 81.5309419,16.1137077 81.8041587,37.953702 Z" id="Path" fill="#138742"></path>
                                <path d="M132.93647,57.4572991 C132.93647,89.1676039 110.036326,88.3617511 81.8070588,88.3617511 C53.5777917,88.3617511 30.677647,89.1676039 30.677647,57.4572991 C30.677647,25.7469945 53.5526543,0 81.7819214,0 C110.011189,0 132.93647,25.7067018 132.93647,57.4572991 Z" id="Path" fill="#15A550"></path>
                                <path d="M126.451764,90.3157894 C126.451764,96.5528388 121.657517,98.2903025 116.225883,98.602155 C110.600262,98.9585579 106,96.5528388 106,90.3157894 C106,84.0787402 110.572549,79 116.225883,79 C121.879216,79 126.451764,84.0341899 126.451764,90.3157894 Z" id="Path" fill="#39B54A"></path>
                                <g id="reflet3" opacity="0.5" transform="translate(38.238531, 19.636366)" fill="#F5FAFD">
                                    <path d="M15.9410162,19.1636363 C10.7575517,19.1636363 8.66829817,16.3272727 10.360858,13.1272728 C13.7988702,6.65454545 18.9823347,1.70909091 26.9426552,0.145454546 C28.6881076,-0.181818181 31.4120709,0.763636364 32.6285984,2 C33.5277708,2.90909091 33.4219858,5.56363636 32.6285984,6.87272727 C28.6087687,13.4545455 22.5261319,17.7454545 15.9410162,19.1636363 Z" id="Path"></path>
                                    <path d="M7.50466328,24.9454545 C8.56251319,25.7090909 8.45672819,27.2 7.31953955,27.8181819 C6.36747464,28.3636364 5.52119473,28.8 4.64846856,29.0909091 C4.33111359,29.2 2.665,27.2363636 2.85012373,26.9818182 C3.6699574,25.8545454 4.86003854,24.9090909 6.10301217,24.1090909 C6.23524341,24.0363637 6.68482961,24.3636364 7.50466328,24.9454545 Z" id="Path"></path>
                                </g>
                            </g>
                            <g id="groupdown" transform="translate(109.000000, 0.000000)">
                                <path d="M81.8794501,42.953702 C82.1529183,64.7461147 63.0648349,71.4551326 41.2967627,73.4059818 C18.817673,75.4519943 0.27652608,67.8865061 0.00305783619,46.0940934 C-0.270410408,24.3016807 17.8331874,5.88756782 40.4490111,5.03109746 C63.0648349,4.17462709 81.6059818,21.1137077 81.8794501,42.953702 Z" id="Path" fill="#138742"></path>
                                <path d="M210.176471,81.6480728 C210.176471,94.1448251 198.2087,97.5896775 184.588236,98.2126828 C170.511857,98.8723354 159,94.1448251 159,81.6480728 C159,69.1513207 170.454868,59 184.588236,59 C198.721604,59 210.176471,69.1513207 210.176471,81.6480728 Z" id="Path" fill="#138742"></path>
                                <path d="M174.352941,57.4572991 C174.352941,89.1676039 151.43172,88.3617511 123.176471,88.3617511 C94.9212216,88.3617511 72,89.1676039 72,57.4572991 C72,25.7469945 94.8960611,0 123.15131,0 C151.406559,0 174.352941,25.7067018 174.352941,57.4572991 Z" id="Path" fill="#15A550"></path>
                                <path d="M31.1764706,75.5298877 C31.1764706,84.9160218 24.0006394,87.4636868 15.8235294,87.9553414 C7.39609979,88.4469958 0.470588222,84.9160218 0.470588222,75.5298877 C0.470588222,66.1437536 7.34047319,58.5454545 15.8235294,58.5454545 C24.3065857,58.5454545 31.1764706,66.1884495 31.1764706,75.5298877 Z" id="Path" fill="#39B54A"></path>
                                <path d="M143.764706,79.6794258 C143.764706,85.9164751 138.966045,87.6539388 133.529412,87.9657913 C127.898613,88.3221942 123.294118,85.9164751 123.294118,79.6794258 C123.294118,73.4423765 127.870876,68.3636363 133.529412,68.3636363 C139.187949,68.3636363 143.764706,73.3978262 143.764706,79.6794258 Z" id="Path" fill="#39B54A"></path>
                                <g id="reflet2" opacity="0.5" transform="translate(80.000000, 19.000000)" fill="#F5FAFD">
                                    <path d="M15.9556881,19.1636363 C10.7674528,19.1636363 8.67627636,16.3272727 10.370394,13.1272728 C13.8115705,6.65454545 18.9998058,1.70909091 26.9674528,0.145454546 C28.7145117,-0.181818181 31.4409822,0.763636364 32.6586293,2 C33.5586293,2.90909091 33.4527469,5.56363636 32.6586293,6.87272727 C28.6350998,13.4545455 22.5468646,17.7454545 15.9556881,19.1636363 Z" id="Path"></path>
                                    <path d="M7.51157047,24.9454545 C8.57039401,25.7090909 8.46451165,27.2 7.32627636,27.8181819 C6.37333518,28.3636364 5.52627636,28.8 4.65274695,29.0909091 C4.33509989,29.2 2.66745283,27.2363636 2.85274695,26.9818182 C3.67333518,25.8545454 4.86451166,24.9090909 6.1086293,24.1090909 C6.24098225,24.0363637 6.69098224,24.3636364 7.51157047,24.9454545 Z" id="Path"></path>
                                </g>
                            </g>
                        </g>
                        <g id="count" transform="translate(205.000000, 181.000000)">
                            <rect id="Rectangle" fill="#FF3C3C" x="0" y="0" width="130" height="57" rx="28.5"></rect>
                            <text id="300" font-family="FredokaOne-Regular, Fredoka One" font-size="45" font-weight="normal" fill="#FFFFFF">
                                <tspan x="24" y="46">300</tspan>
                            </text>
                        </g>
                    </g>
                </g>
            </g>
        </g>
    </g>
</svg>