<?xml version="1.0" encoding="utf-8"?>
<!-- Generator: Adobe Illustrator 23.0.1, SVG Export Plug-In . SVG Version: 6.00 Build 0)  -->
<svg version="1.1" id="Calque_1" xmlns="http://www.w3.org/2000/svg" xmlns:xlink="http://www.w3.org/1999/xlink" x="0px" y="0px"
	 viewBox="0 0 530 530" style="enable-background:new 0 0 530 530;" xml:space="preserve">
<g id="armbg_2_">
	<g id="bg_3_">
		<path style="fill:#FFFFFF;" d="M80.2,520C41.5,520,10,488.6,10,449.9V80.2C10,41.5,41.5,10,80.2,10h369.7
			c38.7,0,70.2,31.5,70.2,70.2v369.7c0,38.7-31.5,70.2-70.2,70.2H80.2z"/>
		<path style="fill:#39B54A;" d="M449.9,20c16,0,31.1,6.3,42.5,17.7C503.8,49.1,510,64.2,510,80.2v369.7c0,16-6.3,31.1-17.7,42.5
			c-11.4,11.4-26.5,17.7-42.5,17.7H80.2c-16,0-31.1-6.3-42.5-17.7C26.3,480.9,20,465.9,20,449.9V80.2c0-16,6.3-31.1,17.7-42.5
			S64.2,20,80.2,20H449.9 M449.9,0H80.2C36.1,0,0,36.1,0,80.2v369.7C0,494,36.1,530,80.2,530h369.7C494,530,530,494,530,449.9V80.2
			C530,36.1,494,0,449.9,0L449.9,0z"/>
	</g>
</g>
</svg>
