<?xml version="1.0" encoding="utf-8"?>
<!-- Generator: Adobe Illustrator 23.0.1, SVG Export Plug-In . SVG Version: 6.00 Build 0)  -->
<svg version="1.1" id="Calque_1" xmlns="http://www.w3.org/2000/svg" xmlns:xlink="http://www.w3.org/1999/xlink" x="0px" y="0px"
	 viewBox="0 0 636.5 248.7" style="enable-background:new 0 0 636.5 248.7;" xml:space="preserve">
<g>
	<g>
		<g>
			<path style="fill:#138742;" d="M299.4,79.8c1,45.8-68.8,59.9-148.4,64C68.8,148.1,1,132.2,0,86.4S65.2,1.9,147.9,0.1
				S298.4,33.9,299.4,79.8z"/>
		</g>
	</g>
</g>
<g>
	<g>
		<g>
			<path style="fill:#138742;" d="M636.5,95.3c0,34.1-42,43.5-89.8,45.2c-49.4,1.8-89.8-11.1-89.8-45.2s40.2-61.8,89.8-61.8
				S636.5,61.2,636.5,95.3z"/>
		</g>
	</g>
</g>
<path style="fill:#08C455;" d="M507.7,149.3c0,78.7-91.1,76.7-203.4,76.7s-203.4,2-203.4-76.7S191.9,6.7,304.2,6.7
	S507.7,70.5,507.7,149.3z"/>
<g>
	<g>
		<path style="fill:#39B54A;" d="M162.7,220.8c0,21-25.8,26.7-55.2,27.8c-30.3,1.1-55.2-6.8-55.2-27.8s24.7-38,55.2-38
			S162.7,199.9,162.7,220.8z"/>
	</g>
</g>
<g>
	<g>
		<path style="fill:#39B54A;" d="M618.4,223.3c0,14-17.3,17.9-36.9,18.6c-20.3,0.8-36.9-4.6-36.9-18.6c0-14,16.5-25.4,36.9-25.4
			S618.4,209.2,618.4,223.3z"/>
	</g>
</g>
<g>
	<path style="opacity:0.5;fill:#F5FAFD;" d="M190.2,91.7c-19.6,0-27.5-7.8-21.1-16.6c13-17.8,32.6-31.4,62.7-35.7
		c6.6-0.9,16.9,1.7,21.5,5.1c3.4,2.5,3,9.8,0,13.4C238.1,76,215.1,87.8,190.2,91.7z"/>
	<path style="opacity:0.5;fill:#F5FAFD;" d="M158.3,107.6c4,2.1,3.6,6.2-0.7,7.9c-3.6,1.5-6.8,2.7-10.1,3.5
		c-1.2,0.3-7.5-5.1-6.8-5.8c3.1-3.1,7.6-5.7,12.3-7.9C153.5,105.1,155.2,106,158.3,107.6z"/>
</g>
</svg>
