<?xml version="1.0" encoding="utf-8"?>
<!-- Generator: Adobe Illustrator 23.0.1, SVG Export Plug-In . SVG Version: 6.00 Build 0)  -->
<svg version="1.1" id="Calque_1" xmlns="http://www.w3.org/2000/svg" xmlns:xlink="http://www.w3.org/1999/xlink" x="0px" y="0px"
	 viewBox="0 0 659.4 697.3" style="enable-background:new 0 0 659.4 697.3;" xml:space="preserve">
<g>
	<path style="fill:#08C455;" d="M299.5,438c-29,50.7-46.9,50.7-75.9,0s-44.2-181.3-15.2-232s76.1-50.7,105.1,0
		S328.5,387.3,299.5,438z"/>
</g>
<path style="opacity:0.5;fill:#F5FAFD;" d="M222.1,241.5c-6.5,0-9.1-6.7-6.9-14.3c4.3-15.4,10.7-27.2,20.7-30.9
	c2.2-0.8,5.6,1.5,7.1,4.4c1.1,2.2,1,8.5,0,11.6C237.8,228,230.3,238.2,222.1,241.5z"/>
<path style="opacity:0.5;fill:#F5FAFD;" d="M211.5,255.3c1.3,1.8,1.2,5.3-0.2,6.9c-1.2,1.3-2.2,2.3-3.3,3c-0.4,0.2-2.5-4.4-2.2-5
	c1-2.7,2.5-5,4.1-6.8C210,253.2,210.5,253.9,211.5,255.3z"/>
<g>
	<rect style="fill:#FFFFFF;" width="90.4" height="15.3"/>
	<rect x="39.6" y="42.9" style="fill:#FFFFFF;" width="50.8" height="15.3"/>
	<rect y="85.3" style="fill:#FFFFFF;" width="90.4" height="15.3"/>
	<rect x="39.6" y="128.2" style="fill:#FFFFFF;" width="50.8" height="15.3"/>
	<rect y="171.1" style="fill:#FFFFFF;" width="90.4" height="15.3"/>
	<rect x="39.6" y="214" style="fill:#FFFFFF;" width="50.8" height="15.3"/>
	<rect y="256.3" style="fill:#FFFFFF;" width="90.4" height="15.3"/>
	<rect x="39.6" y="299.2" style="fill:#FFFFFF;" width="50.8" height="15.3"/>
	<rect y="340.9" style="fill:#FFFFFF;" width="90.4" height="15.3"/>
	<rect x="39.6" y="383.7" style="fill:#FFFFFF;" width="50.8" height="15.3"/>
	<rect y="426.1" style="fill:#FFFFFF;" width="90.4" height="15.3"/>
	<rect x="39.6" y="469" style="fill:#FFFFFF;" width="50.8" height="15.3"/>
	<rect y="511.9" style="fill:#FFFFFF;" width="90.4" height="15.3"/>
	<rect x="39.6" y="554.8" style="fill:#FFFFFF;" width="50.8" height="15.3"/>
	<rect y="597.2" style="fill:#FFFFFF;" width="90.4" height="15.3"/>
	<rect y="682" style="fill:#FFFFFF;" width="90.4" height="15.3"/>
	<rect x="39.6" y="640.1" style="fill:#FFFFFF;" width="50.8" height="15.3"/>
</g>
<g>
	<path style="fill:#FFFFFF;" d="M594.1,355.5l29.8-80.4h35.5V412h-32.1l3.3-89.6l-24.1,64.8h-24.8l-24.1-64.8L561,412h-32.1V275.1
		h35.5L594.1,355.5z"/>
</g>
<g>
	<g>
		<path style="fill:#FFFFFF;" d="M494.7,614.3c-3-3-7.6-3-10.5,0l-30.5,27.4V55.5L484.3,83c1.4,1.4,3.2,2.2,5.3,2.2s3.9-0.8,5.3-2.2
			l4.1-4.1c1.4-1.4,2.2-3.3,2.2-5.4c0-2-0.8-4-2.2-5.4l-47-47c-1.5-1.5-3.4-2.3-5.5-2.2c-2.1,0-4.1,0.7-5.5,2.2L394,68.1
			c-2.9,2.9-2.9,7.9,0,10.8l4.1,4.1c3,3,8,3,11,0l30.8-26.6v584.7L409,614.3c-3-3-7.9-3-10.9,0l-4.1,4.1c-2.9,2.9-2.9,7.9,0,10.8
			l46.9,47c1.5,1.5,3.4,2.3,5.4,2.2c2.1,0,4.1-0.7,5.5-2.2l46.9-46.9c2.9-2.9,2.9-7.9,0-10.8L494.7,614.3z"/>
	</g>
</g>
</svg>
