<svg width="33" height="29" xmlns="http://www.w3.org/2000/svg"><path d="M31.327 9.044c-2.042-.093-1.58 4.074-4.817 2.531-.576-.272-.882-.639-1.004-1.082-.009-.025-.017-.06-.026-.085-.009-.026-.009-.06-.018-.085-.113-.742.515-1.713 1.222-1.526.768.213 1.493.196 1.65-.315.157-.511-.428-.648-1.074-.332-.646.315-1.379-.154-.558-2.14.82-1.976.55-3.85-1.571-4.694-2.121-.844-2.662 1.04-3.256 1.048-.593.017.698-1.509-.218-1.696-.916-.187-.899.92-.803 1.55.096.631-.628 1.245-.995.725-.366-.528-.55-2.335-1.292-1.764-.741.58.62 2.233.699 3.06.06.647-.603.92-.9 1.013-.095.026-.2.052-.296.069-1.292.213.009-2.915-2.13-2.531-2.243.4-.279 3.98-2.592 3.528-2.321-.452-1.85-5.974-3.526-5.795-1.667.18-1.763 1.994 0 3.443 1.763 1.448.742 3.349.742 3.349-.2.536-.724.221-1.484-.358-.733-.571-2.592.179-.558 1.627 2.042 1.449 1.108 2.804-1.58 1.628S.265 7.136.641 10.57c.366 3.442 7.506.451 8.16 2.266.646 1.807-.742 1.543-2.321 1.45-1.58-.095-2.41 2.172-.646 3.169 1.763.997 3.796-1.721 3.613.818-.183 2.53-2.871.452-4.73 4.252-1.85 3.8 3.796 6.067 4.355 1.628.558-4.431 5.28-5.25 5.935-3.8.645 1.448-2.689 1.806-2.505 3.442.183 1.627 3.063.63 3.988 0 .925-.63 2.505 0 2.688 1.806.184 1.807.646 3.358 2.043 2.804 2.435-.963-.925-3.255-.925-5.522 0-2.267 3.613-2.718 4.538-.903.925 1.806 3.526 2.53 4.172 0 .646-2.531-6.764-2.625-6.118-5.522.646-2.897 6.397-2.625 8.44-3.17 2.033-.528 2.033-4.15 0-4.244z" fill="#FFF" fill-rule="evenodd"/></svg>