<svg width="31" height="20" xmlns="http://www.w3.org/2000/svg"><g fill="none" fill-rule="evenodd"><path d="M8.47 7.514c-.024 2.018 1.73 2.64 3.733 2.82 2.067.19 3.772-.511 3.797-2.529.025-2.018-1.64-3.723-3.72-3.802-2.08-.08-3.784 1.489-3.81 3.511z" fill="#138742"/><path d="M3.765 9.32c0 2.936 2.107 2.862 4.706 2.862 2.598 0 4.705.074 4.705-2.862S11.071 4 8.473 4C5.875 4 3.765 6.38 3.765 9.32z" fill="#15A550"/><path d="M.941 13.23c0 .577.441.738.941.767.518.033.942-.19.942-.767 0-.578-.421-1.048-.942-1.048-.52 0-.94.466-.94 1.048z" fill="#39B54A"/><g fill="#F5FAFD" opacity=".5"><path d="M11.013 7.593c.477 0 .67-.263.514-.56-.316-.599-.794-1.057-1.526-1.201-.16-.03-.412.057-.524.171-.082.085-.073.33 0 .452.37.609.93 1.006 1.536 1.138zM11.79 8.128a.155.155 0 0 0 .017.266c.088.05.165.09.246.118.029.01.182-.172.165-.196a1.11 1.11 0 0 0-.3-.265c-.011-.007-.053.023-.128.077z"/></g><g><path d="M19.53 3.514c.024 2.018-1.73 2.64-3.733 2.82-2.067.19-3.772-.511-3.797-2.529-.025-2.018 1.64-3.723 3.72-3.802 2.08-.08 3.784 1.489 3.81 3.511zM28 3.915c0 1.157-1.1 1.476-2.353 1.534-1.294.061-2.353-.377-2.353-1.534s1.053-2.097 2.353-2.097c1.3 0 2.353.94 2.353 2.097z" fill="#138742"/><path d="M24.235 5.32c0 2.936-2.107 2.862-4.706 2.862-2.598 0-4.705.074-4.705-2.862S16.929 0 19.527 0c2.598 0 4.708 2.38 4.708 5.32z" fill="#15A550"/><path d="M16.706 8.845c0 .87-.66 1.105-1.412 1.15-.775.046-1.412-.28-1.412-1.15 0-.869.632-1.572 1.412-1.572.78 0 1.412.707 1.412 1.572zM27.059 9.23c0 .577-.441.738-.941.767-.518.033-.942-.19-.942-.767 0-.578.421-1.048.942-1.048.52 0 .94.466.94 1.048z" fill="#39B54A"/><g fill="#F5FAFD" opacity=".5"><path d="M16.987 3.593c-.477 0-.67-.263-.514-.56.316-.599.794-1.057 1.526-1.201.16-.03.412.057.524.171.082.085.073.33 0 .452-.37.609-.93 1.006-1.536 1.138zM16.21 4.128a.155.155 0 0 1-.017.266 1.37 1.37 0 0 1-.246.118c-.029.01-.182-.172-.165-.196a1.11 1.11 0 0 1 .3-.265c.011-.007.053.023.128.077z"/></g></g><g><path d="M17.452 10.278c-.045 3.605 3.113 4.715 6.715 5.037 3.72.339 6.787-.913 6.832-4.517.046-3.605-2.95-6.651-6.692-6.793-3.742-.142-6.81 2.66-6.855 6.273z" fill="#138742"/><path d="M8.42 13.856c0 5.44 3.843 5.302 8.58 5.302s8.58.138 8.58-5.302C25.58 8.416 21.743 4 17.005 4 12.267 4 8.42 8.41 8.42 13.856z" fill="#08C455"/><path d="M23.484 17.731c0 1.51 1.055 1.92 2.258 1.999 1.24.079 2.258-.49 2.258-1.999C28 16.221 26.99 15 25.742 15s-2.258 1.23-2.258 2.731zM5.29 18.031c0 .569.636.727 1.355.755C7.391 18.82 8 18.6 8 18.031 8 17.463 7.394 17 6.645 17s-1.355.459-1.355 1.031z" fill="#39B54A"/><g fill="#F5FAFD" opacity=".5"><path d="M21.82 10.871c.763 0 1.07-.456.821-.97-.506-1.041-1.269-1.837-2.44-2.088-.258-.053-.659.1-.838.298-.132.146-.117.573 0 .784.592 1.058 1.487 1.748 2.457 1.976zM23.062 11.801a.281.281 0 0 0 .027.462c.14.088.265.158.393.205.047.017.292-.298.265-.34a1.834 1.834 0 0 0-.479-.461c-.02-.012-.086.04-.206.134z"/></g></g></g></svg>