<svg width="31" height="19" xmlns="http://www.w3.org/2000/svg"><g fill="none" fill-rule="evenodd"><path d="M16 6.627c-.05 3.805 3.447 4.976 7.435 5.317 4.118.357 7.514-.964 7.564-4.769.05-3.805-3.266-7.02-7.409-7.17-4.143-.15-7.54 2.809-7.59 6.622zM0 8.037c0 2.227 2.105 2.841 4.5 2.952 2.476.118 4.5-.725 4.5-2.952C9 5.809 6.986 4 4.5 4S0 5.81 0 8.037z" fill="#138742"/><path d="M6 10.404C6 16.146 10.255 16 15.5 16s9.5.146 9.5-5.596S20.75 0 15.505 0C10.26 0 6 4.655 6 10.404z" fill="#08C455"/><path d="M23 16.883c0 1.593 1.168 2.026 2.5 2.11 1.372.083 2.5-.517 2.5-2.11S26.881 14 25.5 14 23 15.297 23 16.883zM6 16.305c0 1.27-.938 1.625-2 1.688-1.1.073-2-.417-2-1.688C2 15.035 2.894 14 4 14c1.106 0 2 1.025 2 2.305z" fill="#39B54A"/><g fill="#F5FAFD" opacity=".5"><path d="M20.836 7.253c.845 0 1.186-.481.91-1.025-.56-1.098-1.405-1.938-2.703-2.203-.284-.056-.728.105-.927.315-.146.154-.129.604 0 .827.656 1.117 1.647 1.845 2.72 2.086zM22.211 8.235a.29.29 0 0 0 .03.487c.156.093.293.167.436.216.051.019.323-.315.293-.358a1.991 1.991 0 0 0-.53-.487c-.022-.013-.095.043-.229.142z"/></g></g></svg>