<svg width="25" height="23" xmlns="http://www.w3.org/2000/svg"><path d="M24.089 15c-.698-1.453-1.99-2.483-3.637-2.9-2.165-.54-4.72-.085-6.8 1.11a5.875 5.875 0 0 0-3.093-.878c-.977 0-1.934.238-2.771.687-.063-2.39.502-6.023.76-7.528l3.156.634 2.925-1.156a1.46 1.46 0 0 0 .9-.984 1.38 1.38 0 0 0-.3-1.268L12.913.036H5.624L3.962 4.11C1.477 8.78.444 15.944.381 19.372c-.021.95.356 1.842 1.06 2.522.706.68 1.641 1.05 2.647 1.05h5.878c.88 0 1.745-.191 2.52-.561.244.033.489.073.754.112 1.368.212 3.009.47 4.594.47.404 0 .802-.02 1.193-.054 2.36-.23 4.015-1.215 4.908-2.925.852-1.605.908-3.42.154-4.986z" fill="#08C455" fill-rule="evenodd"/></svg>