<svg width="42" height="54" xmlns="http://www.w3.org/2000/svg" xmlns:xlink="http://www.w3.org/1999/xlink"><defs><path id="a" d="M0 .087h41.987V51.83H0z"/><path d="M3.192 5.112C2.256 4.84.73 4.326.118 3.43a.319.319 0 0 1 .04-.404C2.895.255 7.437.026 11.219.106c2.346.05 5.033.193 7.244.984 1.032.369 1.763.916 2.412 1.581.136.14.123.36-.028.485-.768.634-1.66 1.124-2.775 1.499-2.345.788-4.943 1.09-7.41 1.234" id="c"/><path id="e" d="M.122.063h14.843v.924H.122z"/></defs><g fill="none" fill-rule="evenodd"><g transform="translate(0 2)"><mask id="b" fill="#fff"><use xlink:href="#a"/></mask><path d="M40.887 42.311L28.852 23.972a13.75 13.75 0 0 1-2.253-7.544V.087H15.185v16.178c0 2.633-.756 5.21-2.176 7.425l-2.321 3.618L3.2 38.98c-.624.971-1.25 1.941-1.895 2.899C.738 42.722 0 43.545 0 44.62c0 3.981 9.4 7.21 20.993 7.21 11.595 0 20.994-3.229 20.994-7.21 0-.808-.387-1.584-1.1-2.31" fill="#D2D8D2" mask="url(#b)"/></g><g fill="#161616"><path d="M26.838 9.553h-3.42c-.143 0-.26-.105-.26-.235v-.005c0-.13.117-.235.26-.235h3.42v.475zM26.838 18.87h-3.42c-.143 0-.26-.106-.26-.235v-.005c0-.13.117-.235.26-.235h3.42v.475zM26.838 16.44h-1.91c-.08 0-.146-.06-.146-.135v-.003c0-.075.065-.136.145-.136h1.911v.274zM26.838 14.111h-1.91c-.08 0-.146-.06-.146-.136v-.002c0-.075.065-.136.145-.136h1.911v.274zM26.838 11.782h-1.91c-.08 0-.146-.06-.146-.136v-.003c0-.075.065-.136.145-.136h1.911v.275z"/></g><path d="M34.709 47.979c.278-.13.555-.266.83-.405 1.087-.551 2.39-1.281 2.46-2.598.054-1.044-1.098-2.204-1.682-3.02-1.208-1.69-2.428-3.38-3.72-5.01-1.024-1.294-1.889-2.372-3.558-2.97-2.156-.774-4.775-.915-7.063-.964-3.917-.083-8.67.173-11.26 3.391-1.576 1.957-3.024 4.014-4.63 5.948-.926 1.116-2.942 3.14-1.685 4.638.77.917 2.09 1.427 3.236 1.827 8.618 3.006 18.71 3.075 27.072-.837" fill="#08C455"/><g transform="translate(11 33)"><mask id="d" fill="#fff"><use xlink:href="#c"/></mask><path d="M3.192 5.112c2.422.705 4.943.924 7.468.776 2.468-.144 5.066-.446 7.41-1.234 1.115-.375 2.008-.865 2.776-1.5a.327.327 0 0 0 .028-.484c-.649-.665-1.38-1.212-2.412-1.581-2.211-.79-4.898-.935-7.244-.984C7.436.025 2.894.254.158 3.026a.319.319 0 0 0-.04.404c.612.896 2.138 1.41 3.074 1.682" mask="url(#d)"/></g><path d="M26.237 5H14.763C13.789 5 13 4.167 13 3.14V1h15v2.14C28 4.167 27.21 5 26.237 5" fill="#D2D8D2"/><g transform="translate(13)"><mask id="f" fill="#fff"><use xlink:href="#e"/></mask><path d="M14.965.525c0 .255-3.244.462-7.37.462C3.467.987.121.78.121.525S3.468.063 7.594.063c4.127 0 7.371.207 7.371.462" fill="#CCC" mask="url(#f)"/></g></g></svg>