<?xml version="1.0" encoding="utf-8"?>
<!-- Generator: Adobe Illustrator 23.0.1, SVG Export Plug-In . SVG Version: 6.00 Build 0)  -->
<svg version="1.1" id="Calque_1" xmlns="http://www.w3.org/2000/svg" xmlns:xlink="http://www.w3.org/1999/xlink" x="0px" y="0px"
	 viewBox="0 0 181.7 207.3" style="enable-background:new 0 0 181.7 207.3;" xml:space="preserve">
<g>
	<path style="fill:#39B54A;" d="M30.8,207.3L30.8,207.3c-17,0-30.8-13.8-30.8-30.8L0,30.8C0,13.8,13.8,0,30.8,0h0
		c17,0,30.8,13.8,30.8,30.8v72.9v72.9C61.6,193.5,47.8,207.3,30.8,207.3z"/>
	<path style="fill:#39B54A;" d="M150.9,207.3L150.9,207.3c-17,0-30.8-13.8-30.8-30.8V30.8c0-17,13.8-30.8,30.8-30.8h0
		c17,0,30.8,13.8,30.8,30.8v145.7C181.7,193.5,167.9,207.3,150.9,207.3z"/>
</g>
</svg>
