<?xml version="1.0" encoding="UTF-8"?>
<svg width="29px" height="31px" viewBox="0 0 29 31" version="1.1" xmlns="http://www.w3.org/2000/svg" xmlns:xlink="http://www.w3.org/1999/xlink">
    <!-- Generator: Sketch 52.4 (67378) - http://www.bohemiancoding.com/sketch -->
    <title>pause</title>
    <desc>Created with Sketch.</desc>
    <g id="Page-1" stroke="none" stroke-width="1" fill="none" fill-rule="evenodd">
        <g id="iPhone-8-Copy-14" transform="translate(-297.000000, -576.000000)" fill="#FFFFFF">
            <g id="Group" transform="translate(297.000000, 576.000000)">
                <g id="pause">
                    <path d="M5,31 C2.24025974,31 0,28.9363242 0,26.3941148 L0,4.60588519 C0,2.06367583 2.24025974,0 5,0 C7.75974026,0 10,2.06367583 10,4.60588519 L10,15.5074771 L10,26.409069 C10,28.9363242 7.75974026,31 5,31 Z" id="Path"></path>
                    <path d="M24,31 C21.2402597,31 19,28.9363242 19,26.3941148 L19,4.60588519 C19,2.06367583 21.2402597,0 24,0 C26.7597403,0 29,2.06367583 29,4.60588519 L29,26.3941148 C29,28.9363242 26.7597403,31 24,31 Z" id="Path"></path>
                </g>
            </g>
        </g>
    </g>
</svg>