<?xml version="1.0" encoding="utf-8"?>
<!-- Generator: Adobe Illustrator 23.0.1, SVG Export Plug-In . SVG Version: 6.00 Build 0)  -->
<svg version="1.1" id="Calque_1" xmlns="http://www.w3.org/2000/svg" xmlns:xlink="http://www.w3.org/1999/xlink" x="0px" y="0px"
	 viewBox="0 0 530 530" style="enable-background:new 0 0 530 530;" xml:space="preserve">
<g id="tachebg">
	<path id="bg_1_" style="fill:#39B54A;" d="M449.9,530H80.2C36.1,530,0,494,0,449.9V80.2C0,36.1,36.1,0,80.2,0h369.7
		C494,0,530,36.1,530,80.2v369.7C530,494,494,530,449.9,530z"/>
	<g id="tache">
		<path style="fill:#E6E6E6;" d="M438.3,210.3c-23.4-1.1-18.1,47.8-55.2,29.7c-6.6-3.2-10.1-7.5-11.5-12.7c-0.1-0.3-0.2-0.7-0.3-1
			c-0.1-0.3-0.1-0.7-0.2-1c-1.3-8.7,5.9-20.1,14-17.9c8.8,2.5,17.1,2.3,18.9-3.7c1.8-6-4.9-7.6-12.3-3.9c-7.4,3.7-15.8-1.8-6.4-25.1
			c9.4-23.2,6.3-45.2-18-55.1s-30.5,12.2-37.3,12.3c-6.8,0.2,8-17.7-2.5-19.9c-10.5-2.2-10.3,10.8-9.2,18.2
			c1.1,7.4-7.2,14.6-11.4,8.5c-4.2-6.2-6.3-27.4-14.8-20.7c-8.5,6.8,7.1,26.2,8,35.9c0.7,7.6-6.9,10.8-10.3,11.9
			c-1.1,0.3-2.3,0.6-3.4,0.8c-14.8,2.5,0.1-34.2-24.4-29.7c-25.7,4.7-3.2,46.7-29.7,41.4c-26.6-5.3-21.2-70.1-40.4-68
			c-19.1,2.1-20.2,23.4,0,40.4s8.5,39.3,8.5,39.3c-2.3,6.3-8.3,2.6-17-4.2c-8.4-6.7-29.7,2.1-6.4,19.1c23.4,17,12.7,32.9-18.1,19.1
			c-30.8-13.8-76.5-36.1-72.2,4.2c4.2,40.4,86,5.3,93.5,26.6c7.4,21.2-8.5,18.1-26.6,17c-18.1-1.1-27.6,25.5-7.4,37.2
			c20.2,11.7,43.5-20.2,41.4,9.6c-2.1,29.7-32.9,5.3-54.2,49.9c-21.2,44.6,43.5,71.2,49.9,19.1c6.4-52,60.5-61.6,68-44.6
			c7.4,17-30.8,21.2-28.7,40.4c2.1,19.1,35.1,7.4,45.7,0c10.6-7.4,28.7,0,30.8,21.2c2.1,21.2,7.4,39.4,23.4,32.9
			c27.9-11.3-10.6-38.2-10.6-64.8c0-26.6,41.4-31.9,52-10.6c10.6,21.2,40.4,29.7,47.8,0c7.4-29.7-77.5-30.8-70.1-64.8
			c7.4-34,73.3-30.8,96.7-37.2C461.6,253.9,461.6,211.4,438.3,210.3z"/>
	</g>
</g>
</svg>
