<?xml version="1.0" encoding="UTF-8"?>
<svg width="60px" height="60px" viewBox="0 0 60 60" version="1.1" xmlns="http://www.w3.org/2000/svg" xmlns:xlink="http://www.w3.org/1999/xlink">
    <!-- Generator: Sketch 52.4 (67378) - http://www.bohemiancoding.com/sketch -->
    <title>skill_box_tache</title>
    <desc>Created with Sketch.</desc>
    <g id="Page-1" stroke="none" stroke-width="1" fill="none" fill-rule="evenodd">
        <g id="iPhone-8-Copy-14" transform="translate(-297.000000, -393.000000)" fill="#38383E">
            <g id="skill_box_tache" transform="translate(297.000000, 393.000000)">
                <path d="M50.9320755,60 L9.07924528,60 C4.08679245,60 -3.55271368e-15,55.9245283 -3.55271368e-15,50.9320755 L-3.55271368e-15,9.07924528 C-3.55271368e-15,4.08679245 4.08679245,0 9.07924528,0 L50.9320755,0 C55.9245283,0 60,4.08679245 60,9.07924528 L60,50.9320755 C60,55.9245283 55.9245283,60 50.9320755,60 Z M49.6188679,23.2203774 C46.9698113,23.1041509 47.5698113,28.2709434 43.3698113,26.3584906 C42.6226415,26.0203774 42.2264151,25.5660377 42.0679245,25.0166038 C42.0566038,24.9849057 42.045283,24.9426415 42.0339623,24.9109434 C42.0226415,24.8792453 42.0226415,24.8369811 42.0113208,24.805283 C41.8641509,23.8860377 42.6792453,22.6815094 43.5962264,22.9139623 C44.5924528,23.1781132 45.5320755,23.1569811 45.7358491,22.5230189 C45.9396226,21.8890566 45.1811321,21.72 44.3433962,22.1109434 C43.5056604,22.5018868 42.554717,21.9207547 43.6188679,19.4588679 C44.6830189,17.0075472 44.3320755,14.6830189 41.5811321,13.6369811 C38.8301887,12.5909434 38.1283019,14.9260377 37.3584906,14.9366038 C36.5886792,14.9577358 38.2641509,13.0664151 37.0754717,12.8339623 C35.8867925,12.6015094 35.909434,13.9750943 36.0339623,14.7569811 C36.1584906,15.5388679 35.2188679,16.2996226 34.7433962,15.6550943 C34.2679245,15 34.0301887,12.76 33.0679245,13.4679245 C32.1056604,14.1864151 33.8716981,16.2362264 33.9735849,17.2611321 C34.0528302,18.0641509 33.1924528,18.4022642 32.8075472,18.5184906 C32.6830189,18.5501887 32.5471698,18.5818868 32.4226415,18.6030189 C30.7471698,18.8671698 32.4339623,14.989434 29.6603774,15.4649057 C26.7509434,15.9615094 29.2981132,20.3992453 26.2981132,19.8392453 C23.2867925,19.2792453 23.8981132,12.4324528 21.7245283,12.6543396 C19.5622642,12.8762264 19.4377358,15.1267925 21.7245283,16.9230189 C24.0113208,18.7192453 22.6867925,21.0754717 22.6867925,21.0754717 C22.4264151,21.7411321 21.7471698,21.3501887 20.7622642,20.6316981 C19.8113208,19.9237736 17.4,20.8535849 20.0377358,22.6498113 C22.6867925,24.4460377 21.4754717,26.1260377 17.9886792,24.6679245 C14.5018868,23.2098113 9.32830189,20.8535849 9.81509434,25.1116981 C10.290566,29.3803774 19.5509434,25.6716981 20.4,27.9222642 C21.2377358,30.1622642 19.4377358,29.834717 17.3886792,29.7184906 C15.3396226,29.6022642 14.2641509,32.4128302 16.5509434,33.6490566 C18.8377358,34.885283 21.4754717,31.514717 21.2377358,34.6633962 C21,37.8015094 17.5132075,35.2233962 15.1018868,39.9358491 C12.7018868,44.6483019 20.0264151,47.4588679 20.7509434,41.9539623 C21.4754717,36.4596226 27.6,35.445283 28.4490566,37.2415094 C29.2867925,39.0377358 24.9622642,39.4815094 25.2,41.5101887 C25.4377358,43.5283019 29.1735849,42.2920755 30.3735849,41.5101887 C31.5735849,40.7283019 33.6226415,41.5101887 33.8603774,43.7501887 C34.0981132,45.9901887 34.6981132,47.9132075 36.509434,47.2264151 C39.6679245,46.0324528 35.309434,43.1901887 35.309434,40.3796226 C35.309434,37.5690566 39.9962264,37.0090566 41.1962264,39.2596226 C42.3962264,41.4996226 45.7698113,42.3977358 46.6075472,39.2596226 C47.445283,36.1215094 37.8339623,36.005283 38.6716981,32.4128302 C39.509434,28.8203774 46.9698113,29.1584906 49.6188679,28.4822642 C52.2566038,27.8271698 52.2566038,23.3366038 49.6188679,23.2203774 Z" id="Combined-Shape"></path>
            </g>
        </g>
    </g>
</svg>