<?xml version="1.0" encoding="utf-8"?>
<!-- Generator: Adobe Illustrator 23.0.1, SVG Export Plug-In . SVG Version: 6.00 Build 0)  -->
<svg version="1.1" id="Calque_1" xmlns="http://www.w3.org/2000/svg" xmlns:xlink="http://www.w3.org/1999/xlink" x="0px" y="0px"
	 viewBox="0 0 530 530" style="enable-background:new 0 0 530 530;" xml:space="preserve">
<g>
	<path style="fill:#39B54A;" d="M449.9,530H80.2C36.1,530,0,494,0,449.9V80.2C0,36.1,36.1,0,80.2,0h369.7C494,0,530,36.1,530,80.2
		v369.7C530,494,494,530,449.9,530z"/>
	
		<path style="fill:none;stroke:#F2F2F2;stroke-width:15;stroke-linecap:round;stroke-linejoin:round;stroke-miterlimit:10;stroke-dasharray:29;" d="
		M124.2,470.6c-3.5-253.1,142.5-432.9,146-179.7"/>
	
		<path style="fill:none;stroke:#F2F2F2;stroke-width:15;stroke-linecap:round;stroke-linejoin:round;stroke-miterlimit:10;stroke-dasharray:29;" d="
		M307.5,292.4C306,204.1,307,131.5,371.4,104"/>
	<path style="fill:#F2F2F2;" d="M360.4,134.8c-22.9,3.8-31.1-2.1-34.8-25s13.9-62.2,36.8-65.9s44.5,11.7,48.2,34.6
		S383.2,131.1,360.4,134.8z"/>
	<path style="opacity:0.5;fill:#F2F2F2;" d="M411.7,341.5L338,315.2h0c-0.6-0.9-3-1.8-6.7-2.5c3,0.9,4.6,1.8,4.6,2.8
		c0,3.4-18.7,6.2-41.9,6.2c-23.1,0-41.9-2.8-41.9-6.2c0-0.8,1.1-1.6,3.1-2.4c-2.5,0.6-4.1,1.3-4.5,2.1l-76.1,27.7l63.3-8.4l-16.2,15
		l43.5-14.6l26,17.6l26.5-17.2l39.1,15.1L340.8,333L411.7,341.5z"/>
</g>
</svg>
