<?xml version="1.0" encoding="UTF-8"?>
<svg width="60px" height="60px" viewBox="0 0 60 60" version="1.1" xmlns="http://www.w3.org/2000/svg" xmlns:xlink="http://www.w3.org/1999/xlink">
    <!-- Generator: Sketch 52.4 (67378) - http://www.bohemiancoding.com/sketch -->
    <title>skill_box_strong</title>
    <desc>Created with Sketch.</desc>
    <g id="Page-1" stroke="none" stroke-width="1" fill="none" fill-rule="evenodd">
        <g id="iPhone-8-Copy-14" transform="translate(-297.000000, -471.000000)" fill="#3D3D42">
            <g id="skill_box_strong" transform="translate(297.000000, 471.000000)">
                <path d="M50.9320755,60 L9.07924528,60 C4.08679245,60 -3.55271368e-15,55.9245283 -3.55271368e-15,50.9320755 L-3.55271368e-15,9.07924528 C-3.55271368e-15,4.08679245 4.08679245,0 9.07924528,0 L50.9320755,0 C55.9245283,0 60,4.08679245 60,9.07924528 L60,50.9320755 C60,55.9245283 55.9245283,60 50.9320755,60 Z M48.7924528,35.6 C47.6603774,33.2754717 45.5660377,31.6271698 42.8943396,30.9615094 C39.3849057,30.0950943 35.2415094,30.8241509 31.8679245,32.7366038 C30.3849057,31.8279245 28.6415094,31.3313208 26.8528302,31.3313208 C25.2679245,31.3313208 23.7169811,31.7116981 22.3584906,32.4301887 C22.2566038,28.605283 23.1735849,22.7939623 23.5924528,20.3849057 L28.709434,21.3992453 L33.4528302,19.5501887 C34.1886792,19.2649057 34.7207547,18.6943396 34.9132075,17.9758491 C35.1056604,17.2573585 34.9245283,16.5177358 34.4264151,15.9471698 L30.6679245,11.6573585 L18.8490566,11.6573585 L16.154717,18.1766038 C12.1245283,25.6467925 10.4490566,37.1109434 10.3471698,42.594717 C10.3132075,44.1162264 10.9245283,45.5426415 12.0679245,46.6309434 C13.2113208,47.7192453 14.7283019,48.3109434 16.3584906,48.3109434 L25.890566,48.3109434 C27.3169811,48.3109434 28.7207547,48.0045283 29.9773585,47.4128302 C30.3735849,47.4656604 30.7698113,47.5290566 31.2,47.5924528 C33.4188679,47.930566 36.0792453,48.3426415 38.6490566,48.3426415 C39.3056604,48.3426415 39.9509434,48.3109434 40.5849057,48.2581132 C44.4113208,47.8883019 47.0943396,46.3139623 48.5433962,43.5773585 C49.9245283,41.0098113 50.0150943,38.1041509 48.7924528,35.6 Z" id="Combined-Shape"></path>
            </g>
        </g>
    </g>
</svg>