
<svg width="43px" height="36px" viewBox="0 0 43 36" version="1.1" xmlns="http://www.w3.org/2000/svg" xmlns:xlink="http://www.w3.org/1999/xlink">
<!-- Generator: Sketch 52.4 (67378) - http://www.bohemiancoding.com/sketch -->
<title>Rectangle</title>
<desc>Created with Sketch.</desc>
<g id="Page-1" stroke="none" stroke-width="1" fill="none" fill-rule="evenodd">
    <g id="Artboard" transform="translate(-9.000000, -11.000000)">
        <g id="skill_box_tache">
            <g id="Rectangle" transform="translate(9.000000, 11.000000)">
                <g id="mask" transform="translate(0.735849, 0.622642)" fill="#FFFFFF">
                    <path d="M39.8830189,10.5977358 C37.2339623,10.4815094 37.8339623,15.6483019 33.6339623,13.7358491 C32.8867925,13.3977358 32.490566,12.9433962 32.3320755,12.3939623 C32.3207547,12.3622642 32.309434,12.32 32.2981132,12.2883019 C32.2867925,12.2566038 32.2867925,12.2143396 32.2754717,12.1826415 C32.1283019,11.2633962 32.9433962,10.0588679 33.8603774,10.2913208 C34.8566038,10.5554717 35.7962264,10.5343396 36,9.90037736 C36.2037736,9.26641509 35.445283,9.09735849 34.6075472,9.48830189 C33.7698113,9.87924528 32.8188679,9.29811321 33.8830189,6.83622642 C34.9471698,4.38490566 34.5962264,2.06037736 31.845283,1.01433962 C29.0943396,-0.0316981132 28.3924528,2.30339623 27.6226415,2.31396226 C26.8528302,2.33509434 28.5283019,0.443773585 27.3396226,0.211320755 C26.1509434,-0.0211320755 26.1735849,1.35245283 26.2981132,2.13433962 C26.4226415,2.91622642 25.4830189,3.67698113 25.0075472,3.03245283 C24.5320755,2.37735849 24.2943396,0.137358491 23.3320755,0.845283019 C22.3698113,1.56377358 24.1358491,3.61358491 24.2377358,4.63849057 C24.3169811,5.44150943 23.4566038,5.77962264 23.0716981,5.89584906 C22.9471698,5.92754717 22.8113208,5.95924528 22.6867925,5.98037736 C21.0113208,6.2445283 22.6981132,2.36679245 19.9245283,2.84226415 C17.0150943,3.33886792 19.5622642,7.77660377 16.5622642,7.21660377 C13.5509434,6.65660377 14.1622642,-0.190188679 11.9886792,0.0316981132 C9.82641509,0.253584906 9.70188679,2.50415094 11.9886792,4.30037736 C14.2754717,6.09660377 12.9509434,8.45283019 12.9509434,8.45283019 C12.690566,9.11849057 12.0113208,8.72754717 11.0264151,8.0090566 C10.0754717,7.30113208 7.66415094,8.2309434 10.3018868,10.0271698 C12.9509434,11.8233962 11.7396226,13.5033962 8.25283019,12.045283 C4.76603774,10.5871698 -0.40754717,8.2309434 0.079245283,12.4890566 C0.554716981,16.7577358 9.81509434,13.0490566 10.6641509,15.2996226 C11.5018868,17.5396226 9.70188679,17.2120755 7.65283019,17.0958491 C5.60377358,16.9796226 4.52830189,19.7901887 6.81509434,21.0264151 C9.10188679,22.2626415 11.7396226,18.8920755 11.5018868,22.0407547 C11.2641509,25.1788679 7.77735849,22.6007547 5.36603774,27.3132075 C2.96603774,32.0256604 10.290566,34.8362264 11.0150943,29.3313208 C11.7396226,23.8369811 17.8641509,22.8226415 18.7132075,24.6188679 C19.5509434,26.4150943 15.2264151,26.8588679 15.4641509,28.8875472 C15.7018868,30.9056604 19.4377358,29.669434 20.6377358,28.8875472 C21.8377358,28.1056604 23.8867925,28.8875472 24.1245283,31.1275472 C24.3622642,33.3675472 24.9622642,35.290566 26.7735849,34.6037736 C29.9320755,33.4098113 25.5735849,30.5675472 25.5735849,27.7569811 C25.5735849,24.9464151 30.2603774,24.3864151 31.4603774,26.6369811 C32.6603774,28.8769811 36.0339623,29.7750943 36.8716981,26.6369811 C37.709434,23.4988679 28.0981132,23.3826415 28.9358491,19.7901887 C29.7735849,16.1977358 37.2339623,16.5358491 39.8830189,15.8596226 C42.5207547,15.2045283 42.5207547,10.7139623 39.8830189,10.5977358 Z" id="skill"></path>
                </g>
                
                <mask>
                    <rect id="green-rec" fill="#08C455" x="1" y="21" width="42" height="18"></rect>
                </mask>
            </g>
        </g>
    </g>
</g>
</svg>


