<?xml version="1.0" encoding="utf-8"?>
<!-- Generator: Adobe Illustrator 23.0.1, SVG Export Plug-In . SVG Version: 6.00 Build 0)  -->
<svg version="1.1" id="Calque_1" xmlns="http://www.w3.org/2000/svg" xmlns:xlink="http://www.w3.org/1999/xlink" x="0px" y="0px"
	 viewBox="0 0 530 530" style="enable-background:new 0 0 530 530;" xml:space="preserve">
<g>
	<path style="fill:#39B54A;" d="M449.9,530H80.2C36.1,530,0,494,0,449.9V80.2C0,36.1,36.1,0,80.2,0h369.7C494,0,530,36.1,530,80.2
		v369.7C530,494,494,530,449.9,530z"/>
	<path style="fill:#F2F2F2;" d="M429.5,463.5c-6.8,0-12.3-5.5-12.3-12.3V75.5c0-6.8,5.5-12.3,12.3-12.3s12.3,5.5,12.3,12.3v375.8
		C441.7,458.1,436.3,463.5,429.5,463.5z"/>
	
		<path style="fill:none;stroke:#F2F2F2;stroke-width:15;stroke-linecap:round;stroke-linejoin:round;stroke-miterlimit:10;stroke-dasharray:29;" d="
		M142.6,429.6c3-163.9,121.9-194.1,224.1-164.7"/>
	<path style="fill:#F2F2F2;" d="M219.2,139.5c22.4-13.6,21.8-7.8,8.2-30.1s-72.9-55.7-95.3-42.1s-29.5,42.7-15.9,65
		S196.8,153.1,219.2,139.5z"/>
	
		<path style="fill:none;stroke:#F2F2F2;stroke-width:15;stroke-linecap:round;stroke-linejoin:round;stroke-miterlimit:10;stroke-dasharray:29;" d="
		M365.1,220.5c-42.2-80.4-119.9-107-204.2-93.2"/>
	<path style="opacity:0.5;fill:#F2F2F2;" d="M379.4,341.7l26.4-49.2v0c0.9-0.4,1.8-2,2.5-4.5c-0.9,2-1.8,3.1-2.8,3.1
		c-3.4,0-6.2-12.5-6.2-27.9s2.8-27.9,6.2-27.9c0.8,0,1.6,0.7,2.4,2.1c-0.6-1.7-1.3-2.7-2.1-3l-27.7-50.8l8.4,42.2l-15-10.8l14.6,29
		l-17.6,17.4l17.2,17.7l-15.1,26.1l17.3-10.8L379.4,341.7z"/>
</g>
</svg>
