<?xml version="1.0" encoding="utf-8"?>
<!-- Generator: Adobe Illustrator 23.0.1, SVG Export Plug-In . SVG Version: 6.00 Build 0)  -->
<svg version="1.1" id="Calque_1" xmlns="http://www.w3.org/2000/svg" xmlns:xlink="http://www.w3.org/1999/xlink" x="0px" y="0px"
	 viewBox="0 0 530 530" style="enable-background:new 0 0 530 530;" xml:space="preserve">
<g id="armbg">
	<path id="bg" style="fill:#39B54A;" d="M449.9,530H80.2C36.1,530,0,494,0,449.9V80.2C0,36.1,36.1,0,80.2,0h369.7
		C494,0,530,36.1,530,80.2v369.7C530,494,494,530,449.9,530z"/>
	<g id="arm">
		<path style="fill:#E6E6E6;" d="M431,318c-10-22-28.5-37.6-52.1-43.9c-31-8.2-67.6-1.3-97.4,16.8c-13.1-8.6-28.5-13.3-44.3-13.3
			c-14,0-27.7,3.6-39.7,10.4c-0.9-36.2,7.2-91.2,10.9-114l45.2,9.6l41.9-17.5c6.5-2.7,11.2-8.1,12.9-14.9c1.7-6.8,0.1-13.8-4.3-19.2
			l-33.2-40.6H166.5l-23.8,61.7c-35.6,70.7-50.4,179.2-51.3,231.1c-0.3,14.4,5.1,27.9,15.2,38.2c10.1,10.3,23.5,15.9,37.9,15.9h84.2
			c12.6,0,25-2.9,36.1-8.5c3.5,0.5,7,1.1,10.8,1.7c19.6,3.2,43.1,7.1,65.8,7.1c5.8,0,11.5-0.3,17.1-0.8
			c33.8-3.5,57.5-18.4,70.3-44.3C441,369.2,441.8,341.7,431,318z"/>
	</g>
</g>
</svg>
