<?xml version="1.0" encoding="UTF-8"?>
<svg width="31px" height="20px" viewBox="0 0 31 20" version="1.1" xmlns="http://www.w3.org/2000/svg" xmlns:xlink="http://www.w3.org/1999/xlink">
    <!-- Generator: Sketch 52.4 (67378) - http://www.bohemiancoding.com/sketch -->
    <title>Group 6</title>
    <desc>Created with Sketch.</desc>
    <g id="Page-1" stroke="none" stroke-width="1" fill="none" fill-rule="evenodd">
        <g id="iPhone-8-Copy-17" transform="translate(-311.000000, -92.000000)">
            <g id="parts-copy" transform="translate(256.000000, 73.000000)">
                <g id="Group-6" transform="translate(55.000000, 19.000000)">
                    <g id="groupleft" transform="translate(8.000000, 9.000000) scale(-1, 1) translate(-8.000000, -9.000000) translate(0.000000, 4.000000)">
                        <path d="M7.52914484,3.51423167 C7.55429134,5.53204766 5.79906528,6.15325302 3.79740347,6.3338872 C1.73036074,6.52333281 0.0254276855,5.82282464 0.000281180339,3.80500865 C-0.0248653249,1.78719266 1.63983332,0.0821822058 3.7194493,0.00287939399 C5.79906528,-0.0764234178 7.50399833,1.49200997 7.52914484,3.51423167 Z" id="Path" fill="#138742"></path>
                        <path d="M12.2352941,5.32012029 C12.2352941,8.25625962 10.1275956,8.18164362 7.52941176,8.18164362 C4.93122795,8.18164362 2.82352941,8.25625962 2.82352941,5.32012029 C2.82352941,2.38398097 4.92891434,0 7.52709815,0 C10.125282,0 12.2352941,2.38025017 12.2352941,5.32012029 Z" id="Path" fill="#15A550"></path>
                        <path d="M15.0588235,9.22957646 C15.0588235,9.80708103 14.6175674,9.9679573 14.1176471,9.99683253 C13.5998725,10.0298328 13.1764706,9.80708103 13.1764706,9.22957646 C13.1764706,8.6520719 13.5973219,8.18181818 14.1176471,8.18181818 C14.6379723,8.18181818 15.0588235,8.64794687 15.0588235,9.22957646 Z" id="Path" fill="#39B54A"></path>
                        <g id="reflet3" transform="translate(3.764706, 1.818182)" fill="#F5FAFD" opacity="0.5">
                            <path d="M1.22190669,1.77441077 C0.744827586,1.77441077 0.552535497,1.51178451 0.70831643,1.21548822 C1.02474645,0.616161616 1.50182556,0.158249158 2.23448276,0.0134680135 C2.39513185,-0.0168350168 2.64584178,0.0707070707 2.75780933,0.185185185 C2.84056795,0.269360269 2.83083164,0.515151515 2.75780933,0.636363636 C2.38782961,1.24579125 1.82799189,1.64309764 1.22190669,1.77441077 Z" id="Path"></path>
                            <path d="M0.445436105,2.30976431 C0.542799189,2.38047138 0.53306288,2.51851852 0.428397566,2.57575758 C0.340770791,2.62626263 0.262880325,2.66666667 0.182555781,2.69360269 C0.153346856,2.7037037 6.80011603e-16,2.52188552 0.0170385396,2.4983165 C0.092494929,2.39393939 0.202028398,2.30639731 0.31643002,2.23232323 C0.328600406,2.22558923 0.369979716,2.25589226 0.445436105,2.30976431 Z" id="Path"></path>
                        </g>
                    </g>
                    <g id="groupdown" transform="translate(12.000000, 0.000000)">
                        <path d="M7.52914484,3.51423167 C7.55429134,5.53204766 5.79906528,6.15325302 3.79740347,6.3338872 C1.73036074,6.52333281 0.0254276855,5.82282464 0.000281180339,3.80500865 C-0.0248653249,1.78719266 1.63983332,0.0821822058 3.7194493,0.00287939399 C5.79906528,-0.0764234178 7.50399833,1.49200997 7.52914484,3.51423167 Z" id="Path" fill="#138742"></path>
                        <path d="M16,3.9152256 C16,5.07233229 14.8995153,5.39130011 13.6470588,5.44898578 C12.3526792,5.51006473 11.2941176,5.07233229 11.2941176,3.9152256 C11.2941176,2.75811892 12.3474388,1.81818182 13.6470588,1.81818182 C14.9466789,1.81818182 16,2.75811892 16,3.9152256 Z" id="Path" fill="#138742"></path>
                        <path d="M12.2352941,5.32012029 C12.2352941,8.25625962 10.1275956,8.18164362 7.52941176,8.18164362 C4.93122795,8.18164362 2.82352941,8.25625962 2.82352941,5.32012029 C2.82352941,2.38398097 4.92891434,0 7.52709815,0 C10.125282,0 12.2352941,2.38025017 12.2352941,5.32012029 Z" id="Path" fill="#15A550"></path>
                        <path d="M4.70588235,8.84535997 C4.70588235,9.71444646 4.04603581,9.95034137 3.29411765,9.99586494 C2.51918159,10.0413885 1.88235294,9.71444646 1.88235294,8.84535997 C1.88235294,7.97627348 2.5140665,7.27272727 3.29411765,7.27272727 C4.0741688,7.27272727 4.70588235,7.98041199 4.70588235,8.84535997 Z" id="Path" fill="#39B54A"></path>
                        <path d="M15.0588235,9.22957646 C15.0588235,9.80708103 14.6175674,9.9679573 14.1176471,9.99683253 C13.5998725,10.0298328 13.1764706,9.80708103 13.1764706,9.22957646 C13.1764706,8.6520719 13.5973219,8.18181818 14.1176471,8.18181818 C14.6379723,8.18181818 15.0588235,8.64794687 15.0588235,9.22957646 Z" id="Path" fill="#39B54A"></path>
                        <g id="reflet2" transform="translate(3.764706, 1.818182)" fill="#F5FAFD" opacity="0.5">
                            <path d="M1.22190669,1.77441077 C0.744827586,1.77441077 0.552535497,1.51178451 0.70831643,1.21548822 C1.02474645,0.616161616 1.50182556,0.158249158 2.23448276,0.0134680135 C2.39513185,-0.0168350168 2.64584178,0.0707070707 2.75780933,0.185185185 C2.84056795,0.269360269 2.83083164,0.515151515 2.75780933,0.636363636 C2.38782961,1.24579125 1.82799189,1.64309764 1.22190669,1.77441077 Z" id="Path"></path>
                            <path d="M0.445436105,2.30976431 C0.542799189,2.38047138 0.53306288,2.51851852 0.428397566,2.57575758 C0.340770791,2.62626263 0.262880325,2.66666667 0.182555781,2.69360269 C0.153346856,2.7037037 6.80011603e-16,2.52188552 0.0170385396,2.4983165 C0.092494929,2.39393939 0.202028398,2.30639731 0.31643002,2.23232323 C0.328600406,2.22558923 0.369979716,2.25589226 0.445436105,2.30976431 Z" id="Path"></path>
                        </g>
                    </g>
                    <g id="groupfront" transform="translate(18.000000, 12.000000) scale(-1, 1) translate(-18.000000, -12.000000) translate(5.000000, 4.000000)">
                        <path d="M13.5479068,6.27805598 C13.5931553,9.88281597 10.43481,10.9925783 6.83302942,11.3152752 C3.11360274,11.6537134 0.0457544543,10.4022792 0.000505954541,6.79751921 C-0.0447425453,3.19275922 2.95070814,0.14681573 6.69275907,0.00514393994 C10.43481,-0.13652785 13.5026583,2.66542533 13.5479068,6.27805598 Z" id="Path" fill="#138742"></path>
                        <path d="M22.5806452,9.85622286 C22.5806452,15.2958073 18.7374948,15.1575713 14,15.1575713 C9.26250515,15.1575713 5.41935484,15.2958073 5.41935484,9.85622286 C5.41935484,4.41663844 9.25828655,0 13.9957814,0 C18.7332762,0 22.5806452,4.40972664 22.5806452,9.85622286 Z" id="Path" fill="#08C455"></path>
                        <path d="M7.51612903,13.7314147 C7.51612903,15.2408807 6.46072931,15.6505929 5.25806452,15.7296602 C4.01858345,15.8087274 3,15.2408807 3,13.7314147 C3,12.2219487 4.01040206,11 5.25806452,11 C6.50572698,11 7.51612903,12.2291366 7.51612903,13.7314147 Z" id="Path" fill="#39B54A"></path>
                        <path d="M25.7096774,14.0312147 C25.7096774,14.5996008 25.074482,14.7579369 24.3548387,14.7863562 C23.6094938,14.8188354 23,14.5996008 23,14.0312147 C23,13.4628287 23.6058222,13 24.3548387,13 C25.1038552,13 25.7096774,13.4587688 25.7096774,14.0312147 Z" id="Path" fill="#39B54A"></path>
                        <g id="reflet1" transform="translate(7.225806, 3.789474)" fill="#F5FAFD" opacity="0.5">
                            <path d="M1.95439377,3.08187135 C1.19132369,3.08187135 0.883759733,2.62573099 1.13292547,2.11111111 C1.63904338,1.07017544 2.40211346,0.274853801 3.57397108,0.0233918129 C3.83092325,-0.0292397661 4.23192436,0.122807018 4.41101224,0.321637427 C4.54338154,0.467836257 4.52780868,0.894736842 4.41101224,1.10526316 C3.8192436,2.16374269 2.92380423,2.85380117 1.95439377,3.08187135 Z" id="Path"></path>
                            <path d="M0.712458287,4.01169591 C0.868186874,4.13450292 0.852614016,4.37426901 0.685205784,4.47368421 C0.545050056,4.56140351 0.420467186,4.63157895 0.291991101,4.67836257 C0.245272525,4.69590643 1.05471187e-15,4.38011696 0.0272525028,4.33918129 C0.147942158,4.15789474 0.323136819,4.00584795 0.506117909,3.87719298 C0.525583982,3.86549708 0.591768632,3.91812865 0.712458287,4.01169591 Z" id="Path"></path>
                        </g>
                    </g>
                </g>
            </g>
        </g>
    </g>
</svg>